<svg width="470" height="145" viewBox="0 0 470 145" fill="none" xmlns="http://www.w3.org/2000/svg">
<path d="M308.607 83.4795C308.607 85.218 308.597 86.9598 308.618 88.6982C308.621 89.0763 308.53 89.1843 308.136 89.2012C300.808 89.5253 294.955 94.4165 293.352 101.536C291.402 110.198 297.397 118.957 306.169 120.26C314.582 121.509 322.199 116.183 323.93 107.845C324.109 106.981 324.196 106.106 324.223 105.225C324.233 104.898 324.341 104.8 324.664 104.8C328.2 104.81 331.733 104.817 335.269 104.797C335.801 104.793 335.707 105.107 335.7 105.408C335.552 111.609 333.551 117.151 329.628 121.941C324.994 127.606 318.997 130.894 311.743 131.781C297.619 133.506 284.411 123.676 281.949 109.651C279.397 95.1254 288.584 81.4103 302.98 78.2743C304.657 77.9064 306.358 77.7275 308.079 77.6937C308.543 77.6836 308.624 77.8388 308.621 78.2608C308.601 79.9992 308.611 81.7411 308.611 83.4795" fill="#00A04A"/>
<path d="M335.562 126.178C335.562 124.46 335.579 122.738 335.552 121.02C335.545 120.581 335.673 120.47 336.104 120.449C343.153 120.088 348.834 115.548 350.662 108.844C353.063 100.034 347.16 90.8417 338.189 89.4172C329.524 88.04 321.657 93.6604 320.155 102.312C320.041 102.97 319.95 103.642 319.983 104.314C320 104.678 319.896 104.83 319.495 104.827C315.979 104.813 312.467 104.81 308.955 104.83C308.429 104.834 308.456 104.567 308.466 104.206C308.675 97.9204 310.709 92.3068 314.743 87.4796C319.317 82.0111 325.183 78.8178 332.242 77.8861C346.278 76.0362 359.512 85.6872 362.183 99.6825C365.018 114.552 355.242 128.855 340.405 131.535C338.983 131.791 337.549 131.93 336.104 131.96C335.653 131.97 335.552 131.829 335.559 131.397C335.582 129.658 335.569 127.916 335.569 126.178" fill="#82C341"/>
<path d="M392.019 121.037C383.149 121.111 376.458 115.484 375.256 107.288C373.959 98.4638 379.519 90.2375 388.696 88.8433C392.222 88.3066 395.7 88.6273 398.99 90.1666C400.718 90.9767 402.18 92.1413 403.493 93.5186C403.759 93.8021 403.735 93.9506 403.479 94.2207C401.883 95.9119 400.3 97.6098 398.738 99.3314C398.425 99.6757 398.28 99.5677 398.021 99.3044C396.717 97.9643 395.246 96.8874 393.38 96.4756C389.42 95.6013 386.005 97.4039 384.49 101.181C383.53 103.578 383.513 106.012 384.422 108.419C386.119 112.922 391.181 114.761 395.589 112.513C396.66 111.966 397.6 111.237 398.472 110.417C398.734 110.171 398.876 110.184 399.118 110.434C400.624 111.976 402.136 113.516 403.668 115.031C403.971 115.332 403.87 115.467 403.638 115.72C400.344 119.329 396.273 121.124 392.016 121.037" fill="#00A04A"/>
<path d="M457.439 88.607C461.207 88.607 464.514 89.3531 467.414 91.4932C468.242 92.1042 468.99 92.8029 469.697 93.5456C469.889 93.7481 469.916 93.8764 469.704 94.1026C468.067 95.841 466.441 97.5862 464.831 99.3483C464.545 99.6622 464.413 99.5103 464.204 99.2943C462.901 97.9542 461.433 96.8672 459.574 96.4419C455.664 95.5473 452.28 97.2757 450.71 100.985C449.64 103.517 449.636 106.093 450.677 108.625C452.458 112.969 457.439 114.667 461.76 112.459C462.81 111.922 463.74 111.207 464.592 110.4C464.861 110.147 465.003 110.11 465.282 110.4C466.767 111.933 468.273 113.448 469.785 114.957C470.03 115.204 470.094 115.335 469.822 115.649C463.326 123.173 451.037 122.498 445.235 115.599C441.187 110.788 440.156 105.279 442.15 99.3652C444.083 93.63 448.239 90.2071 454.125 88.9109C455.29 88.6543 456.483 88.5665 457.439 88.6003" fill="#00A04A"/>
<path d="M432.266 92.2528C427.599 88.597 422.254 87.824 416.61 89.3295C406.315 92.0772 401.412 104.027 406.874 113.118C410.144 118.559 415.223 120.892 420.055 121.043C424.268 121.057 426.966 120.429 429.505 119.136C439.907 113.84 441.426 99.426 432.266 92.2528M424.696 112.8C419.749 114.842 414.253 111.676 413.482 106.349C413.115 103.818 413.525 101.445 415.054 99.3686C416.947 96.7997 419.587 95.8748 422.675 96.3305C425.699 96.7761 427.737 98.5618 428.919 101.347C429.39 102.457 429.606 103.629 429.579 104.719C429.576 108.5 427.7 111.558 424.696 112.797" fill="#00A04A"/>
<path d="M228.149 36.9229H226.583V118.4H228.149V36.9229Z" fill="black"/>
<path d="M283.835 30.7117V34.6848H281.519V23.4136H285.907C286.752 23.4136 287.493 23.5689 288.136 23.8794C288.776 24.19 289.271 24.6288 289.614 25.1993C289.958 25.7698 290.133 26.4179 290.133 27.147C290.133 28.2508 289.756 29.1218 289.001 29.7598C288.247 30.3977 287.203 30.7151 285.869 30.7151H283.839L283.835 30.7117ZM283.835 28.8315H285.907C286.519 28.8315 286.988 28.6863 287.307 28.3994C287.627 28.1091 287.789 27.6972 287.789 27.1605C287.789 26.6238 287.627 26.1613 287.304 25.8204C286.981 25.4795 286.533 25.3039 285.96 25.2938H283.835V28.8315V28.8315Z" fill="black"/>
<path d="M294.039 32.8181H298.959V34.6848H291.722V23.4136H294.039V32.8181Z" fill="black"/>
<path d="M306.776 32.3589H302.714L301.943 34.6814H299.478L303.664 23.4102H305.812L310.022 34.6814H307.557L306.776 32.3589V32.3589ZM303.337 30.4787H306.149L304.735 26.2592L303.337 30.4787Z" fill="black"/>
<path d="M318.616 25.2938H315.171V34.6848H312.854V25.2938H309.456V23.4136H318.616V25.2938Z" fill="black"/>
<path d="M325.368 32.3589H321.307L320.535 34.6814H318.07L322.256 23.4102H324.405L328.614 34.6814H326.149L325.368 32.3589V32.3589ZM321.93 30.4787H324.742L323.327 26.2592L321.93 30.4787Z" fill="black"/>
<path d="M336.427 30.0771H331.979V34.6848H329.662V23.4136H336.983V25.2938H331.979V28.2036H336.427V30.0771V30.0771Z" fill="black"/>
<path d="M347.564 29.304C347.564 30.4146 347.369 31.3868 346.978 32.2239C346.588 33.0611 346.029 33.7058 345.298 34.1582C344.57 34.6139 343.735 34.84 342.792 34.84C341.849 34.84 341.028 34.6139 340.297 34.1649C339.566 33.7159 339 33.0746 338.596 32.2408C338.196 31.407 337.99 30.4483 337.987 29.3648V28.8078C337.987 27.6972 338.185 26.7217 338.586 25.8777C338.987 25.0338 339.549 24.3857 340.277 23.9334C341.004 23.4811 341.839 23.2549 342.776 23.2549C343.712 23.2549 344.544 23.4811 345.274 23.9334C346.002 24.3857 346.567 25.0338 346.965 25.8777C347.366 26.7217 347.564 27.6972 347.564 28.801V29.304V29.304ZM345.217 28.7943C345.217 27.6128 345.005 26.7149 344.584 26.1005C344.163 25.4862 343.56 25.179 342.776 25.179C341.991 25.179 341.398 25.4828 340.977 26.087C340.556 26.6946 340.341 27.5824 340.337 28.7538V29.304C340.337 30.4551 340.55 31.3463 340.971 31.9843C341.391 32.6189 342.001 32.9362 342.792 32.9362C343.584 32.9362 344.166 32.629 344.584 32.018C345.002 31.407 345.214 30.5159 345.217 29.3445V28.7943V28.7943Z" fill="black"/>
<path d="M353.41 30.5564H351.565V34.6814H349.248V23.4102H353.427C354.754 23.4102 355.781 23.7072 356.502 24.3013C357.223 24.8954 357.583 25.7326 357.583 26.8162C357.583 27.5858 357.418 28.2272 357.084 28.7403C356.751 29.2534 356.249 29.6618 355.576 29.9656L358.007 34.5734V34.6814H355.522L353.414 30.5564H353.41ZM351.565 28.6761H353.434C354.017 28.6761 354.468 28.5276 354.784 28.2305C355.104 27.9335 355.263 27.525 355.263 27.0052C355.263 26.4854 355.111 26.0566 354.811 25.7495C354.512 25.4423 354.047 25.2938 353.424 25.2938H351.562V28.6761H351.565Z" fill="black"/>
<path d="M362.371 23.4101L365.261 31.5859L368.133 23.4101H371.178V34.6813H368.854V31.5994L369.086 26.2794L366.052 34.678H364.463L361.435 26.2861L361.668 31.596V34.678H359.351V23.4067H362.378L362.371 23.4101Z" fill="black"/>
<path d="M379.674 32.3589H375.613L374.842 34.6814H372.376L376.562 23.4102H378.711L382.92 34.6814H380.455L379.674 32.3589V32.3589ZM376.236 30.4787H379.048L377.633 26.2592L376.236 30.4787V30.4787Z" fill="black"/>
<path d="M281.519 50.5367V39.2655H284.977C285.967 39.2655 286.849 39.4883 287.631 39.9339C288.412 40.3795 289.018 41.0141 289.456 41.8377C289.894 42.6614 290.113 43.5964 290.113 44.6429V45.1627C290.113 46.2092 289.897 47.1408 289.466 47.9577C289.035 48.7746 288.429 49.4059 287.648 49.8548C286.866 50.3038 285.981 50.53 284.997 50.5367H281.515H281.519ZM283.835 41.1457V48.67H284.953C285.859 48.67 286.553 48.3729 287.031 47.7788C287.509 47.1847 287.755 46.3374 287.765 45.2336V44.6361C287.765 43.4918 287.53 42.6209 287.055 42.0301C286.58 41.4394 285.89 41.1423 284.977 41.1423H283.835V41.1457Z" fill="black"/>
<path d="M298.562 45.6522H294.113V48.67H299.333V50.5367H291.796V39.2655H299.32V41.1457H294.113V43.8327H298.562V45.6522Z" fill="black"/>
<path d="M311.399 45.6522H306.951V48.67H312.17V50.5367H304.634V39.2655H312.157V41.1457H306.951V43.8327H311.399V45.6522Z" fill="black"/>
<path d="M313.531 50.5367V39.2655H316.99C317.98 39.2655 318.862 39.4883 319.643 39.9339C320.425 40.3795 321.031 41.0141 321.469 41.8377C321.906 42.6614 322.125 43.5964 322.125 44.6429V45.1627C322.125 46.2092 321.91 47.1408 321.479 47.9577C321.048 48.7746 320.442 49.4059 319.66 49.8548C318.879 50.3038 317.993 50.53 317.01 50.5367H313.528H313.531ZM315.848 41.1457V48.67H316.966C317.872 48.67 318.566 48.3729 319.044 47.7788C319.522 47.1847 319.768 46.3374 319.778 45.2336V44.6361C319.778 43.4918 319.542 42.6209 319.068 42.0301C318.593 41.4394 317.902 41.1423 316.99 41.1423H315.848V41.1457Z" fill="black"/>
<path d="M332.322 39.2656V46.6886C332.322 47.9207 331.938 48.8962 331.167 49.6153C330.396 50.3343 329.345 50.6921 328.012 50.6921C326.678 50.6921 325.658 50.3444 324.883 49.6456C324.112 48.9503 323.718 47.9916 323.701 46.773V39.2622H326.018V46.7021C326.018 47.4414 326.193 47.9781 326.547 48.3156C326.9 48.6532 327.389 48.822 328.012 48.822C329.315 48.822 329.975 48.1367 329.995 46.7628V39.2622H332.319L332.322 39.2656Z" fill="black"/>
<path d="M343.048 46.7831C342.96 47.995 342.513 48.9503 341.708 49.649C340.903 50.3478 339.839 50.6955 338.522 50.6955C337.081 50.6955 335.946 50.2094 335.121 49.2372C334.296 48.265 333.881 46.9283 333.881 45.2303V44.5417C333.881 43.4581 334.073 42.5028 334.454 41.6792C334.834 40.8555 335.38 40.2209 336.087 39.7787C336.794 39.3365 337.616 39.1171 338.556 39.1171C339.852 39.1171 340.899 39.4648 341.691 40.1635C342.482 40.8589 342.94 41.8378 343.065 43.0969H340.748C340.691 42.3678 340.489 41.8412 340.142 41.5138C339.795 41.1863 339.266 41.0209 338.556 41.0209C337.784 41.0209 337.205 41.2977 336.821 41.8513C336.437 42.4049 336.242 43.2657 336.232 44.4337V45.2843C336.232 46.5029 336.417 47.3941 336.784 47.9545C337.151 48.5182 337.734 48.7984 338.525 48.7984C339.243 48.7984 339.775 48.633 340.128 48.3055C340.482 47.9781 340.684 47.4717 340.734 46.7831H343.051H343.048Z" fill="black"/>
<path d="M350.918 48.2143H346.857L346.086 50.5367H343.621L347.807 39.2655H349.955L354.165 50.5367H351.699L350.918 48.2143V48.2143ZM347.48 46.3341H350.292L348.877 42.1145L347.48 46.3341V46.3341Z" fill="black"/>
<path d="M363.88 46.7831C363.792 47.995 363.345 48.9503 362.54 49.649C361.735 50.3478 360.671 50.6955 359.354 50.6955C357.913 50.6955 356.778 50.2094 355.953 49.2372C355.128 48.265 354.713 46.9283 354.713 45.2303V44.5417C354.713 43.4581 354.905 42.5028 355.286 41.6792C355.666 40.8521 356.212 40.2209 356.919 39.7787C357.626 39.3365 358.448 39.1171 359.388 39.1171C360.684 39.1171 361.731 39.4648 362.523 40.1635C363.314 40.8589 363.772 41.8378 363.897 43.0969H361.58C361.523 42.3678 361.321 41.8412 360.974 41.5138C360.627 41.1863 360.098 41.0209 359.388 41.0209C358.616 41.0209 358.037 41.2977 357.653 41.8513C357.269 42.4049 357.074 43.2657 357.064 44.4337V45.2843C357.064 46.5029 357.249 47.3941 357.616 47.9545C357.983 48.5182 358.566 48.7984 359.357 48.7984C360.075 48.7984 360.607 48.633 360.96 48.3055C361.314 47.9781 361.516 47.4717 361.566 46.7831H363.883H363.88ZM360.203 50.4929L360.118 50.9419C360.89 51.0803 361.277 51.5259 361.277 52.282C361.277 52.8491 361.041 53.2981 360.57 53.6289C360.098 53.9597 359.435 54.1251 358.579 54.1251L358.525 52.8322C359.101 52.8322 359.391 52.6229 359.391 52.2044C359.391 51.9883 359.303 51.8398 359.132 51.7588C358.96 51.6778 358.68 51.6271 358.293 51.6001L358.532 50.4929H360.199H360.203Z" fill="black"/>
<path d="M371.75 48.2143H367.689L366.918 50.5368H364.453L368.639 39.2655H370.787L374.997 50.5368H372.532L371.75 48.2143V48.2143ZM372.646 36.3558C372.646 36.9397 372.474 37.4292 372.138 37.8242C371.797 38.2191 371.383 38.4183 370.895 38.4183C370.7 38.4183 370.524 38.398 370.373 38.3507C370.221 38.3069 370.013 38.2123 369.743 38.0672C369.474 37.922 369.282 37.8343 369.164 37.8005C369.046 37.7668 368.918 37.7499 368.777 37.7499C368.595 37.7499 368.443 37.814 368.319 37.9423C368.191 38.0706 368.13 38.2562 368.13 38.4925L366.834 38.4149C366.834 37.841 367.002 37.3549 367.339 36.9532C367.675 36.5515 368.09 36.349 368.578 36.349C368.733 36.349 368.878 36.3693 369.016 36.4064C369.15 36.4435 369.376 36.538 369.683 36.6899C369.992 36.8385 370.205 36.9296 370.322 36.96C370.44 36.9904 370.565 37.0072 370.693 37.0072C370.871 37.0072 371.03 36.9431 371.161 36.8182C371.292 36.6933 371.356 36.511 371.356 36.2714L372.646 36.3558V36.3558ZM368.312 46.3341H371.124L369.709 42.1146L368.312 46.3341V46.3341Z" fill="black"/>
<path d="M385.123 45.1561C385.123 46.2666 384.928 47.2388 384.537 48.076C384.146 48.9131 383.587 49.5579 382.856 50.0102C382.129 50.4659 381.294 50.6921 380.351 50.6921C379.408 50.6921 378.586 50.4659 377.856 50.017C377.125 49.568 376.559 48.9266 376.155 48.0929C375.754 47.2591 375.549 46.3004 375.545 45.2168V44.6598C375.545 43.5493 375.744 42.5737 376.145 41.7298C376.546 40.8859 377.108 40.2378 377.835 39.7854C378.563 39.3331 379.398 39.1069 380.334 39.1069C381.27 39.1069 382.102 39.3331 382.833 39.7854C383.56 40.2378 384.126 40.8859 384.523 41.7298C384.921 42.5737 385.123 43.5493 385.123 44.6531V45.1561ZM382.776 44.6463C382.776 43.4649 382.563 42.567 382.143 41.9526C381.722 41.3382 381.119 41.031 380.334 41.031C379.549 41.031 378.957 41.3348 378.536 41.9391C378.115 42.5467 377.899 43.4345 377.896 44.6058V45.1561C377.896 46.3071 378.108 47.1983 378.529 47.8363C378.95 48.4709 379.56 48.7882 380.351 48.7882C381.142 48.7882 381.725 48.481 382.143 47.8701C382.56 47.2591 382.772 46.3679 382.776 45.1966V44.6463V44.6463Z" fill="black"/>
<path d="M133.852 66.0309C133.957 68.1913 133.118 69.4166 131.027 69.9871C128.306 70.7129 125.517 70.6319 122.739 70.5036C120.092 70.3652 117.459 70.1289 114.839 69.6867C113.842 69.5179 114.334 70.2876 114.381 70.5711C114.876 73.7071 115.354 76.8565 115.95 79.9756C117.189 86.5311 118.853 92.9718 121.49 99.1255C122.291 101.006 123.46 102.643 124.389 104.439C125.073 105.792 125.595 107.163 125.554 108.706C125.467 110.795 124.218 112.02 122.123 111.99C121.22 111.98 120.362 111.757 119.496 111.49C116.105 110.431 112.993 110.913 110.336 113.344C106.578 116.773 102.146 117.54 97.2969 116.8C96.5392 116.679 95.7848 116.675 95.017 116.655C94.4209 116.645 93.8485 116.564 93.5656 116C93.2692 115.403 93.5083 114.826 93.899 114.339C94.522 113.519 95.2999 112.858 95.8454 111.97C98.1725 108.135 99.6879 103.98 100.843 99.6758C102.177 94.7237 102.668 89.64 103.402 84.5867C103.911 81.0524 104.365 77.4945 104.874 73.9602C105.019 72.9273 104.901 71.891 104.978 71.0268C104.985 69.7137 105.002 68.5457 104.786 67.4081C104.561 66.2098 104.083 65.1499 103.311 64.1946C99.0918 58.9455 95.3875 53.3284 91.8784 47.5932C91.3699 46.7493 91.114 45.7636 90.72 44.8455C90.0363 43.2623 89.0429 42.0268 87.4668 41.1323C85.2375 39.8833 83.8096 37.9018 83.4628 35.2857C83.2809 33.8882 83.5739 33.1388 84.2238 33.0713C84.931 33.0105 85.9346 34.1582 86.0154 35.1608C86.0626 35.8663 86.2006 36.5583 86.79 37.0208C87.2244 37.3583 87.6487 37.652 87.6824 36.6933C87.7059 36.3186 87.8743 35.9338 88.0562 35.5794C88.3222 35.0325 88.6354 34.462 89.3763 34.5802C90.0498 34.6747 90.3798 35.2182 90.5314 35.8089C90.7031 36.4469 90.7873 37.1018 90.885 37.7567C91.3194 40.9129 92.9224 43.5053 94.9463 45.8041C99.2737 50.692 104.463 54.223 110.976 55.4584C118.627 56.9133 125.144 54.5706 130.693 49.2473C131.316 48.6633 131.902 48.0152 132.509 47.4143C132.791 47.1611 133.074 46.7054 133.499 46.9113C133.906 47.1308 133.718 47.6304 133.724 48.0084C133.728 48.184 133.694 48.3392 133.697 48.5148C133.691 48.8658 133.468 49.3148 133.835 49.514C134.149 49.6895 134.536 49.4228 134.849 49.2473C136.358 48.4371 137.166 47.0464 137.856 45.551C138.045 45.1526 138.085 44.4303 138.611 44.5315C139.217 44.6767 138.988 45.3586 138.954 45.8345C138.607 49.568 136.684 52.2786 133.425 54.0238C132.704 54.4019 132.562 54.7799 132.697 55.5732C133.175 58.2096 133.367 60.8966 133.576 63.5667C133.647 64.3937 133.808 65.2207 133.856 66.0444" fill="#0A467B"/>
<path d="M75.1513 28.3691C75.4072 27.1842 75.6564 26.1344 75.8551 25.0711C75.9326 24.6491 76.0471 24.4263 76.532 24.4398C77.7242 24.4702 78.9197 24.4702 80.1084 24.4365C80.6237 24.423 80.7045 24.6525 80.7045 25.0913C80.7079 32.3624 80.718 39.6335 80.7516 46.9046C80.7516 47.5055 80.5226 47.6135 79.9939 47.6067C77.9734 47.5865 75.9528 47.5764 73.9322 47.6169C73.2924 47.627 73.1038 47.438 73.0769 46.7898C72.9354 43.5425 73.0465 40.2816 72.5481 37.0545C72.2888 35.3667 71.8409 33.7431 70.8812 32.3084C69.4264 30.1345 67.4361 30.1683 66.1059 32.4131C64.7353 34.722 64.7757 37.2267 65.2943 39.7517C66.0487 43.3906 67.6247 46.7156 69.2816 50.0001C72.0161 55.4112 75.1008 60.6367 77.6703 66.1356C79.802 70.6893 81.4824 75.3882 82.0313 80.4212C82.7048 86.5784 81.9505 92.5363 79.3608 98.1973C78.428 100.236 77.1281 102.035 75.3971 103.49C71.3695 106.869 66.6144 106.667 62.9471 102.899C62.3746 102.312 62.0345 102.221 61.7718 103.045C61.2431 104.705 60.1318 105.242 58.4581 104.972C57.5522 104.824 56.3298 105.343 55.7741 104.793C55.1713 104.196 55.5889 102.967 55.5855 102.015C55.5586 94.5448 55.572 87.0746 55.5249 79.6043C55.5182 78.7064 55.7674 78.4802 56.6295 78.5106C58.4513 78.5747 60.2732 78.5477 62.0951 78.5106C62.7316 78.5005 62.9538 78.6524 62.9033 79.3478C62.6609 82.6626 62.5362 85.9775 62.873 89.2923C63.1087 91.6418 63.4522 93.971 64.5029 96.1212C65.2101 97.5694 66.1733 98.7509 67.9042 99.0277C69.4668 99.2774 70.3289 98.8859 71.0967 97.5221C72.8546 94.3963 72.7468 91.1051 71.8982 87.7666C70.8071 83.4829 68.7326 79.6279 66.5572 75.8304C65.1562 73.3864 63.7149 70.9627 62.2399 68.566C58.5894 62.6485 56.6867 56.137 55.6731 49.3249C54.9827 44.67 54.8547 40.0048 55.8549 35.3667C56.5621 32.0687 57.8317 29.0374 60.3204 26.6542C64.5467 22.6035 69.5745 22.6642 73.6965 26.8095C74.1579 27.2754 74.5923 27.7716 75.1513 28.3691" fill="#0A467B"/>
<path d="M44.2774 28.342C44.4997 27.2551 44.7287 26.1951 44.924 25.1284C45.0116 24.6592 45.2103 24.4601 45.7154 24.4769C46.7728 24.5107 47.837 24.5343 48.8911 24.4668C49.6319 24.4196 49.8542 24.6356 49.8374 25.3985C49.7767 28.4163 49.7767 31.4409 49.7666 34.462C49.7498 39.6402 49.7262 44.8218 49.7431 50C49.7431 50.7123 49.6185 50.9857 48.8338 50.9621C46.9143 50.898 44.9914 50.9148 43.0718 50.9621C42.3747 50.979 42.1761 50.7697 42.1727 50.0743C42.1491 44.9602 41.9807 39.8529 41.5631 34.7557C41.4857 33.8105 41.2432 32.9228 40.7111 32.1396C39.4281 30.2493 37.0506 30.094 35.5385 31.8088C34.5552 32.9261 34.1746 34.2798 34.1409 35.7549C34.0567 39.4377 33.9423 43.1205 33.8715 46.8067C33.6661 57.261 33.3159 67.7187 33.5112 78.1764C33.5988 82.8213 33.6661 87.4729 34.2521 92.0873C34.4844 93.9203 35.1849 95.6216 36.0841 97.2082C37.1381 99.0648 40.0646 99.0884 41.5463 97.2926C42.698 95.8984 43.1897 94.2072 43.5938 92.489C44.3684 89.1809 44.6277 85.8087 44.7725 82.4229C44.8499 80.6642 44.887 78.9055 44.9038 77.1468C44.9072 76.6405 45.0452 76.4413 45.574 76.4616C46.6684 76.4987 47.7629 76.492 48.854 76.465C49.3389 76.4515 49.5612 76.5493 49.5545 77.1097C49.4568 84.0736 48.8641 90.9565 46.3755 97.5424C45.6211 99.5374 44.6041 101.397 43.183 103.007C39.8524 106.778 34.6528 107.139 30.8508 103.848C28.4901 101.806 26.9511 99.1897 25.7152 96.371C23.3781 91.0308 22.2162 85.3867 21.738 79.6144C20.8625 69.0622 21.3508 58.5201 22.2365 47.9915C22.5665 44.0623 22.7584 40.1095 23.8563 36.2849C24.8699 32.7607 26.3988 29.5167 29.0862 26.9411C33.8143 22.4111 39.1452 22.6507 43.4726 27.5555C43.7083 27.8188 43.8531 28.18 44.2774 28.342" fill="#0A467B"/>
<path d="M91.1543 107.089C91.9827 88.9311 92.3599 71.0032 92.2824 52.8524C93.387 53.6929 94.2188 54.5672 95.0472 55.4348C97.0779 57.5682 98.59 59.9817 98.9503 62.9793C99.1625 64.7312 99.1389 66.4967 99.0143 68.2486C98.3576 77.6633 98.6775 87.088 98.7011 96.5094C98.7078 99.4495 97.6976 101.785 95.6063 103.75C94.303 104.975 92.865 106.012 91.1543 107.092" fill="#0A467B"/>
<path d="M102.759 46.2666C102.759 44.9535 102.995 43.691 103.689 42.5568C105.019 40.3829 107.666 40.3424 108.905 42.5635C110.272 45.021 110.279 47.6033 108.915 50.0608C107.679 52.282 105.036 52.2415 103.692 50.0777C103.086 49.1021 102.759 47.7586 102.759 46.2666" fill="#0A467B"/>
<path d="M121.207 132.308C121.012 130.762 120.843 129.213 120.611 127.673C120.53 127.126 120.628 126.789 121.17 126.596C121.807 126.37 122.325 125.861 123.261 125.719C122.551 126.397 122.844 126.89 123.184 127.43C124.026 128.78 124.848 130.137 125.636 131.521C126.03 132.21 126.383 132.855 127.404 132.659L124.265 134.34C124.905 133.449 124.255 132.824 123.868 132.166C123.15 130.951 122.419 129.742 121.53 128.588C121.776 130.509 122.025 132.433 122.261 134.357C122.308 134.728 122.574 135.184 122.153 135.457C121.699 135.751 121.439 135.258 121.147 135.046C119.86 134.114 118.601 133.142 117.321 132.207C117.078 132.028 116.883 131.687 116.408 131.829C117.254 133.236 118.116 134.593 118.89 135.998C119.207 136.571 119.715 136.193 120.227 136.467C119.392 136.919 118.648 137.321 117.9 137.726C118.735 136.895 118.112 136.264 117.725 135.616C116.974 134.367 116.23 133.115 115.479 131.866C115.043 131.141 114.375 130.762 113.475 130.728C114.415 130.215 115.176 129.793 115.944 129.385C116.327 129.182 116.56 129.496 116.816 129.685C118.196 130.715 119.57 131.748 120.948 132.781C121.396 132.831 121.261 132.548 121.214 132.315" fill="#0A467B"/>
<path d="M7.00482 78.2945C5.58706 78.6152 4.17603 78.9696 2.74816 79.2464C2.10495 79.3713 1.60318 79.5469 1.62338 80.546C1.0913 79.6009 1.06436 78.7772 0.862305 77.9063C1.51562 79.0506 2.37773 78.5173 3.18259 78.335C4.63066 78.0076 6.07873 77.6565 7.53353 77.3493C8.28451 77.194 9.05569 77.1198 9.03885 76.0126C9.52379 76.8092 9.59451 77.6599 9.82351 78.4599C9.95147 78.8987 9.54399 79.0068 9.28469 79.1823C7.80968 80.1849 6.32793 81.1773 4.61045 82.3317C5.92718 82.5377 7.00145 82.7064 8.07235 82.8718C8.39901 82.9225 8.72903 82.9596 9.05569 83.017C11.3322 83.3984 11.4804 83.5672 11.7127 86.3487C11.0628 84.9816 10.1704 85.5251 9.36214 85.6939C7.87703 86.0044 6.39865 86.3757 4.91354 86.6931C4.19287 86.845 3.47557 86.9564 3.61027 88.1074C3.15228 87.3007 2.67408 85.5082 2.61009 84.3504C3.11187 85.3867 3.79212 85.1571 4.49258 84.985C5.80932 84.6576 7.13279 84.3774 8.45626 84.0803C8.64484 84.0364 8.8368 84.0162 9.01528 83.7394C7.08901 83.4525 5.24356 83.179 3.39474 82.9022C3.13207 82.8617 2.8694 82.8381 2.61009 82.7807C2.33395 82.7199 1.97025 82.7706 1.9029 82.3723C1.84565 82.0212 2.18241 81.9571 2.38446 81.822C3.99418 80.7114 5.61063 79.6177 7.22371 78.5173C7.35505 78.2405 7.25065 78.2 7.00482 78.2979" fill="#0A467B"/>
<path d="M163.757 80.1377C162.12 79.7596 160.699 79.4625 159.291 79.098C158.645 78.9292 158.48 79.4727 158.032 80.0026C158.055 78.8819 158.395 78.1224 158.695 77.2448C158.786 78.4026 159.655 78.3992 160.406 78.568C162.275 78.9933 164.144 79.4322 166.009 79.8676C166.282 79.9318 166.683 79.8575 166.74 80.2356C166.811 80.6913 166.427 80.8297 166.084 80.9816C163.938 81.9335 161.793 82.8888 159.651 83.8441C159.446 83.9352 159.244 84.0298 158.884 84.1952C160.783 84.634 162.514 85.0087 164.228 85.4475C164.885 85.6129 165.026 85.0492 165.511 84.5192C165.393 85.6636 165.151 86.467 164.763 87.2974C164.794 86.2948 164.12 86.1902 163.423 86.0416C161.904 85.7209 160.396 85.3395 158.877 85.0154C158.072 84.8433 157.149 84.1648 156.587 85.5758C156.779 84.1344 156.89 82.9226 158.53 82.4196C160.251 81.893 161.857 80.9849 163.76 80.1343" fill="#0A467B"/>
<path d="M40.398 129.077C41.2803 127.967 42.1492 126.846 43.0483 125.752C43.4895 125.216 42.752 125.033 42.7958 124.392C43.6141 124.969 44.3347 125.476 45.0554 125.982C43.9071 125.6 43.4962 126.451 42.9843 127.096C41.8697 128.497 40.7651 129.904 39.6369 131.292C39.4315 131.545 39.3103 132.018 38.8085 131.805C38.364 131.616 38.4785 131.204 38.465 130.86C38.3808 128.804 38.3135 126.748 38.2225 124.692C38.2091 124.379 38.3101 124.031 38.0138 123.653C36.9058 125.047 35.8248 126.411 34.7371 127.771C34.3296 128.281 35.0839 128.473 35.0233 128.976C34.1343 128.618 33.5146 127.953 32.73 127.359C33.9524 127.92 34.3296 126.968 34.8549 126.32C35.7743 125.185 36.6701 124.038 37.5793 122.9C38.0486 122.31 38.1372 121.706 37.8454 121.087C39.3103 121.553 39.903 122.205 39.9468 123.636C40.004 125.418 39.9636 127.201 39.967 128.983C40.1084 129.013 40.2532 129.044 40.3947 129.071" fill="#0A467B"/>
<path d="M86.9616 142.215C86.9616 140.659 86.9145 139.333 86.9717 138.016C87.0054 137.277 86.4397 137.236 85.9648 136.997C86.901 136.72 87.7901 136.811 88.7734 136.878C87.3994 137.253 87.78 138.296 87.7766 139.177C87.7732 140.835 87.8002 142.496 87.7934 144.156C87.7934 144.423 87.9786 144.784 87.5947 144.943C87.1772 145.118 86.9246 144.842 86.6754 144.555C85.4125 143.107 84.1429 141.662 82.8734 140.217C82.5097 139.805 82.146 139.393 81.6341 138.816C81.6341 140.713 81.661 142.384 81.6307 144.055C81.6172 144.747 82.3851 144.46 82.5871 144.97C81.6577 144.97 80.7787 144.97 79.8964 144.973C80.9505 144.737 80.836 143.954 80.8225 143.194C80.7922 141.668 80.7652 140.143 80.7854 138.617C80.7955 137.868 80.745 137.219 79.6943 137.122C81.102 136.551 82.1864 136.777 83.0249 137.733C84.2878 139.171 85.5506 140.615 86.9549 142.215" fill="#0A467B"/>
<path d="M136.314 115.46C137.095 114.623 137.877 113.786 138.654 112.952C138.449 113.82 139.022 114.154 139.496 114.535C140.631 115.447 141.732 116.402 142.918 117.243C143.995 118.005 144.75 117.908 145.598 117.111C146.605 116.166 146.713 115.133 145.713 114.181C144.517 113.043 143.181 112.054 141.948 110.957C141.446 110.512 141.113 111.058 140.433 111.065C141.16 110.268 141.756 109.614 142.352 108.959C142.446 108.969 142.544 108.979 142.638 108.989C141.803 110.002 142.601 110.376 143.16 110.842C144.073 111.609 145.019 112.334 145.891 113.145C147.393 114.545 147.545 115.798 146.467 117.246C145.073 119.113 143.352 119.639 141.685 118.559C140.581 117.843 139.594 116.945 138.564 116.115C137.92 115.599 137.361 114.815 136.314 115.46" fill="#0A467B"/>
<path d="M145.521 21.7426C143.312 25.26 141.214 28.585 139.129 31.9303C138.887 32.3185 138.59 32.3353 138.203 32.2982C133.303 31.8155 128.386 31.3429 123.487 30.8602C118.442 30.3707 113.397 29.8678 108.366 29.3783C105.467 29.088 102.554 28.8551 99.6709 28.5243C98.8121 28.4196 98.6101 28.6087 98.5798 29.4526C98.3912 34.6544 98.1588 39.863 97.9433 45.075C97.5964 45.1729 97.5526 44.8454 97.4449 44.6834C95.6499 42.1078 93.8718 39.5086 92.0769 36.9194C91.7738 36.484 91.6762 36.0317 91.6459 35.5152C91.5112 33.132 91.3495 30.7589 91.2451 28.3622C91.2148 27.7445 91.0026 27.5993 90.4436 27.5318C88.7396 27.309 87.0524 26.9985 85.3484 26.7892C84.5301 26.6879 84.1125 26.455 84.2573 25.5098C84.4122 24.5984 84.4257 23.6634 84.4425 22.7317C84.4425 22.2051 84.6311 21.9992 85.1497 22.0566C85.2777 22.0734 85.4124 22.0633 85.5438 22.0667C105.15 21.9587 124.76 21.8507 144.369 21.7393C144.689 21.7393 145.022 21.7426 145.521 21.7393" fill="#0A467B"/>
<path d="M10.1902 97.0867C10.106 97.5491 9.76589 97.6774 9.52679 97.8766C9.08226 98.2513 8.64447 98.5855 9.05869 99.264C9.4628 99.9222 9.941 100.479 10.7829 100.368C11.5103 100.27 11.9851 99.8108 12.0121 99.031C12.0323 98.3694 11.9818 97.7044 11.9952 97.0428C12.0323 95.2132 13.7733 94.1398 15.4369 94.9263C16.7469 95.5474 17.2824 96.7593 17.7404 98.0251C17.8616 98.3627 17.6865 98.5146 17.3868 98.5956C16.885 98.734 16.3866 98.8758 15.841 99.031C15.7333 98.5281 16.1105 98.3998 16.3192 98.204C16.6695 97.8732 17.0197 97.5795 16.7166 97.0293C16.3698 96.4014 15.9017 95.9694 15.144 96.0369C14.5647 96.0875 14.1572 96.4048 14.0057 96.9854C13.8542 97.5728 13.9653 98.1736 13.9821 98.7678C14.0225 100.27 13.5949 101.07 12.5071 101.522C11.3857 101.991 10.2576 101.684 9.30789 100.624C9.04522 100.331 8.81622 99.9965 8.6209 99.6555C7.57021 97.7989 7.92717 97.1981 10.1969 97.0867" fill="#0A467B"/>
<path d="M61.3374 135.532C61.3374 135.305 61.3172 135.073 61.3374 134.846C61.3947 134.262 61.4284 133.739 60.6639 133.54C59.9264 133.348 59.2731 133.354 58.7983 134.019C58.3739 134.61 58.5996 135.167 59.0239 135.646C59.4853 136.166 60.0241 136.619 60.4619 137.152C61.5967 138.529 61.0141 140.349 59.2866 140.825C57.6802 141.267 56.2961 140.625 54.9895 139.798C54.4305 139.444 54.9626 139.083 55.1309 138.803C55.3532 138.438 55.4408 137.695 55.9257 137.834C56.3938 137.965 55.9998 138.593 55.9695 138.982C55.9257 139.552 56.1311 139.846 56.6363 140.028C57.394 140.291 58.1348 140.413 58.741 139.734C59.135 139.292 59.1956 138.738 58.8454 138.266C58.4514 137.739 57.9597 137.287 57.5017 136.808C56.5554 135.819 56.3567 135.012 56.8248 134.04C57.2727 133.108 58.2763 132.615 59.4987 132.726C60.4046 132.807 61.2095 133.172 62.0211 133.56C62.6104 133.84 62.6373 134.144 62.2602 134.613C62.0042 134.934 61.7853 135.285 61.5496 135.623L61.3273 135.528L61.3374 135.532Z" fill="#0A467B"/>
<path d="M102.753 136.352C102.375 136.332 102.295 135.987 102.19 135.751C101.904 135.103 101.443 134.971 100.826 135.164C100.22 135.349 99.7352 135.663 99.6746 136.365C99.6106 137.081 100.025 137.496 100.644 137.685C101.305 137.884 101.995 137.989 102.668 138.144C103.719 138.381 104.48 138.941 104.672 140.072C104.851 141.112 104.379 141.962 103.291 142.583C102.443 143.069 101.507 143.225 100.547 143.333C99.8059 143.417 99.3816 143.211 99.5096 142.398C99.5769 141.972 99.0347 141.361 99.6039 141.176C99.981 141.051 100.133 141.76 100.328 142.114C100.594 142.6 100.917 142.772 101.453 142.644C102.194 142.465 102.884 142.215 103.052 141.371C103.17 140.801 102.901 140.332 102.382 140.052C101.759 139.711 101.052 139.677 100.378 139.539C98.8765 139.231 98.1524 138.57 98.0312 137.375C97.9234 136.308 98.6744 135.329 100.011 134.84C100.412 134.695 100.836 134.607 101.261 134.543C103.005 134.276 103.197 134.516 102.759 136.352" fill="#0A467B"/>
<path d="M161.632 64.0798C161.497 64.4747 161.127 64.3802 160.871 64.4511C160.379 64.5861 159.891 64.657 159.874 65.3254C159.857 65.9701 160.046 66.5271 160.635 66.8309C161.177 67.1144 161.733 67.0402 162.201 66.625C162.682 66.1963 162.901 65.5887 163.198 65.0384C163.672 64.1608 164.245 63.4249 165.343 63.3371C166.959 63.2055 167.986 64.0831 168.276 65.879C168.333 66.2334 168.353 66.6047 168.323 66.9659C168.168 68.8664 167.461 69.204 165.646 68.2588C165.878 67.82 166.343 67.9449 166.697 67.8571C167.249 67.7254 167.707 67.5837 167.734 66.8984C167.757 66.1929 167.613 65.5583 166.952 65.1971C166.377 64.8865 165.794 64.9608 165.299 65.4064C164.949 65.7203 164.757 66.149 164.538 66.5575C164.255 67.0807 164.013 67.6343 163.575 68.0529C162.228 69.339 160.019 68.674 159.47 66.8241C159.207 65.9364 159.332 65.0519 159.47 64.1675C159.544 63.6916 159.756 63.435 160.268 63.6511C160.706 63.8333 161.265 63.6544 161.632 64.0764" fill="#0A467B"/>
<path d="M25.4556 108.864C24.7518 109.182 24.1826 109.63 23.4384 109.657C23.3812 109.293 23.6169 109.161 23.7651 109.019C24.1995 108.608 24.2399 108.27 23.8358 107.76C22.8625 106.538 22.8895 106.515 21.6199 107.382C21.4583 107.494 21.2528 107.575 21.135 107.723C20.8689 108.064 20.0136 108.02 20.3301 108.695C20.6164 109.313 21.071 109.938 21.9533 109.428C22.0004 109.401 22.1149 109.489 22.3709 109.593C21.6569 110.096 21.0373 110.535 20.4143 110.974C20.2964 111.055 20.1718 111.099 20.0641 110.974C19.9125 110.795 20.0506 110.66 20.1617 110.555C20.8959 109.88 20.1247 109.519 19.8351 109.094C19.4411 108.506 19.1717 109.141 18.8753 109.269C18.579 109.401 18.323 109.627 18.0502 109.819C17.4003 110.282 16.4473 110.593 17.37 111.848C17.2454 111.831 17.1174 111.814 16.9928 111.798C16.2351 110.809 15.4774 109.816 14.7163 108.827C15.5178 109.313 16.0735 109.04 16.7066 108.574C17.9829 107.632 19.3097 106.751 20.6332 105.873C21.2932 105.438 22.024 105.08 21.6906 104.003C22.9366 105.61 24.1793 107.214 25.4556 108.861" fill="#0A467B"/>
<path d="M137.048 117.722C136.741 117.864 136.597 117.685 136.428 117.6C135.879 117.323 135.435 116.682 134.691 117.31C133.933 117.945 133.34 118.653 133.549 119.68C133.913 121.486 135.054 122.711 136.775 123.254C138.402 123.771 139.658 123.018 140.645 121.722C140.773 121.553 140.84 121.276 141.15 121.347C140.927 123.842 137.449 125.661 134.947 124.591C131.879 123.278 131.209 119.896 133.556 117.536C133.788 117.303 134.037 117.08 134.297 116.875C135.916 115.595 136.203 115.68 137.048 117.718" fill="#0A467B"/>
<path d="M69.2313 142.884C67.4633 144.031 64.3651 143.221 63.183 141.463C62.0077 139.721 62.5365 137.044 64.2977 135.781C65.7694 134.728 68.9854 134.691 70.4705 135.69C70.7164 135.856 70.7669 136.008 70.649 136.257C70.5749 136.406 70.5244 136.568 70.4335 136.703C70.1944 137.044 70.1843 137.763 69.7701 137.699C69.2851 137.625 69.5512 136.976 69.5343 136.592C69.5141 136.163 69.3794 135.927 68.9686 135.795C68.3523 135.599 67.736 135.508 67.113 135.67C65.6313 136.051 64.5537 137.955 64.6816 139.92C64.7827 141.486 65.8232 142.566 67.47 142.779C67.9853 142.843 68.514 142.843 69.238 142.887" fill="#0A467B"/>
<path d="M156.611 91.2941C156.095 91.4865 155.718 91.284 155.371 91.1962C154.934 91.0814 154.752 91.1996 154.506 91.5608C153.97 92.3473 154.068 92.7524 155.011 93.1203C156.422 93.6705 157.762 94.3929 159.14 95.0343C159.941 95.409 160.763 96.0909 161.524 94.771C161.571 94.8588 161.615 94.9432 161.662 95.0309C161.366 95.5913 161.066 96.155 160.766 96.7154C160.46 97.2926 160.15 97.8732 159.716 98.5348C160.066 96.8605 158.702 96.8571 157.84 96.4183C156.516 95.7466 155.163 95.1322 153.812 94.5145C153.526 94.3828 153.132 93.998 152.937 94.5887C152.778 95.0748 151.973 95.4968 152.728 96.1145C153.027 96.3609 153.317 96.6141 153.543 96.9584C152.734 97.1036 152.145 96.6715 151.502 96.4419C151.206 96.3339 151.384 96.1213 151.472 95.9559C152.489 94.025 153.509 92.0975 154.529 90.17C154.617 90.0012 154.725 89.7886 154.971 89.981C155.493 90.3928 156.139 90.6662 156.611 91.2907" fill="#0A467B"/>
<path d="M48.049 136.23C46.8838 136.585 45.1024 135.974 43.9742 134.816C42.9505 133.759 42.5598 132.504 42.9875 131.069C43.7318 128.581 46.1059 127.275 48.6114 127.947C49.2883 128.129 49.9147 128.419 50.5107 128.787C52.3023 129.894 52.2888 130.283 50.3996 131.42C50.1774 131.309 50.3255 131.15 50.3356 130.998C50.3693 130.499 50.9452 129.985 50.4535 129.513C49.8406 128.926 49.066 128.595 48.1871 128.699C46.5706 128.895 44.9205 130.802 44.7589 132.632C44.6275 134.131 45.4896 135.218 47.298 135.859C47.5506 135.947 47.8907 135.906 48.0423 136.23" fill="#0A467B"/>
<path d="M149.687 113.006C150.195 112.233 149.775 111.899 149.226 111.544C147.811 110.626 146.414 109.684 145.04 108.712C144.41 108.27 143.834 107.804 142.958 108.314C143.656 107.399 144.349 106.484 145.043 105.566C144.797 106.69 145.68 106.97 146.309 107.399C147.673 108.334 149.064 109.229 150.408 110.184C150.93 110.555 151.155 110.43 151.569 109.981C152.347 109.138 152.61 108.368 151.775 107.443C151.694 107.355 151.667 107.21 151.64 107.082C151.63 107.035 151.697 106.97 151.778 106.819C152.327 107.23 152.866 107.635 153.405 108.04C153.593 108.182 153.627 108.338 153.472 108.537C152.307 110.042 151.145 111.551 149.98 113.057C149.882 113.04 149.785 113.02 149.687 113.003" fill="#0A467B"/>
<path d="M154.843 89.4645C155.26 88.3472 155.678 87.2298 156.096 86.1091C156.129 87.3952 157.166 87.402 157.971 87.6754C159.345 88.1446 160.719 88.6037 162.093 89.0628C162.87 89.3216 163.615 89.1855 164.329 88.6544C163.838 89.954 163.417 91.0747 162.992 92.1954C162.932 90.8283 161.787 90.8721 160.945 90.5717C159.642 90.1092 158.322 89.6974 157.012 89.2417C156.277 88.9852 155.537 88.5396 154.843 89.4611" fill="#0A467B"/>
<path d="M8.49647 66.8984C8.21696 66.0545 7.56701 66.1051 6.89349 66.1186C5.20969 66.149 3.52588 66.1692 1.84545 66.1557C1.07763 66.149 0.32329 66.068 0.00673521 67.0773C0.00673521 65.8992 0.00336761 64.7211 0 63.543C0.313187 64.5591 1.12478 64.3936 1.87912 64.3835C3.52925 64.3633 5.17938 64.3363 6.82951 64.3599C7.57375 64.37 8.22706 64.3498 8.48974 63.4181C8.48974 64.5759 8.4931 65.7405 8.4931 66.8984" fill="#0A467B"/>
<path d="M109.289 132.223C110.434 131.764 111.579 131.305 112.727 130.85C111.842 131.663 112.417 132.382 112.764 133.125C113.371 134.411 113.936 135.714 114.526 137.007C114.851 137.725 115.374 138.123 116.095 138.202C115.499 138.654 113.529 139.461 112.424 139.657C113.532 138.978 113.078 138.293 112.748 137.584C112.145 136.298 111.596 134.985 110.976 133.705C110.646 133.017 110.589 131.92 109.121 132.608C109.178 132.48 109.235 132.352 109.289 132.223" fill="#0A467B"/>
<path d="M52.8377 129.989C54.1612 130.559 55.2893 131.045 56.4208 131.535C55.3028 131.417 55.0805 132.217 54.7505 132.919C54.0736 134.357 53.39 135.785 52.6693 137.203C52.3662 137.8 52.2012 138.313 52.9488 138.759C51.6489 138.583 50.5881 137.915 49.396 137.351C50.6925 137.763 50.8272 136.744 51.1741 136.055C51.8274 134.755 52.4369 133.435 53.0667 132.122C53.4079 131.413 53.3327 130.702 52.8411 129.989" fill="#0A467B"/>
<path d="M13.6352 87.942C15.1338 87.7496 15.612 88.1479 15.4571 89.5016C15.3695 90.2645 15.9959 90.3657 16.3731 90.7337C15.3291 91.0847 14.3323 90.5784 14.4636 89.7075C14.595 88.8636 14.4098 88.3268 13.6318 87.942" fill="#0A467B"/>
<path d="M31.4971 126.509C31.588 126.417 31.6789 126.326 31.7665 126.235C31.9382 126.38 32.1975 126.573 31.9854 126.772C31.7429 127.001 31.6217 126.677 31.4971 126.509Z" fill="#0A467B"/>
<path d="M121.207 132.308C121.372 132.521 121.463 132.78 121.284 132.983C121.197 133.084 121.008 132.932 120.941 132.774C121.153 132.689 121.136 132.473 121.207 132.308" fill="#0A467B"/>
<path d="M7.00439 78.2945C7.20982 78.146 7.44892 77.957 7.64761 78.2169C7.70822 78.2945 7.41188 78.4667 7.22329 78.5139C7.1492 78.4397 7.07848 78.3654 7.00439 78.2945Z" fill="#0A467B"/>
<path d="M8.45924 68.0664C8.45251 69.3154 7.6106 69.1095 6.93708 69.1669C5.29032 69.3086 3.63683 69.42 1.99344 69.6124C1.22226 69.7036 0.488117 69.8892 0.0200195 68.9238L0.333207 72.2421C0.407294 72.3129 0.484749 72.3805 0.558837 72.4513C0.646394 71.28 1.43441 71.4387 2.09447 71.3678C2.58614 71.3138 3.08454 71.2834 3.57958 71.253C3.79174 71.2395 4.06451 71.064 4.19922 71.3475C4.35076 71.6581 4.09819 71.8336 3.87593 71.9855C3.11485 72.5155 2.3403 73.0218 1.58932 73.5653C0.346677 74.4632 0.147989 75.4793 0.969685 76.9882C1.19195 75.9147 1.99007 75.4286 2.74105 74.8953C3.19904 74.5679 3.69745 74.2843 4.10493 73.9062C4.57639 73.4708 4.78518 73.5619 5.12868 74.0784C5.73485 74.9932 6.65084 75.2531 7.65102 74.9662C8.69161 74.6691 9.00143 73.8725 9.03847 72.9138C9.10245 71.3205 8.75222 69.761 8.45251 68.0698M7.16608 73.1197C5.84935 73.3594 5.06806 72.9509 4.85927 71.9112C4.76161 71.4387 4.76161 71.0842 5.42166 71.0842C5.97732 71.0842 6.53297 70.9728 7.1223 70.9087C7.51631 71.118 8.26729 70.4125 8.39526 71.4285C8.51312 72.3703 8.09891 72.9509 7.16608 73.1197" fill="#0A467B"/>
<path d="M29.1637 113.04C28.241 111.777 27.0152 110.798 25.9847 109.634C25.9308 109.573 25.8129 109.533 25.7085 109.728C26.217 110.42 25.749 110.825 25.1967 111.264C23.981 112.23 22.8057 113.249 21.6068 114.242C20.9771 114.761 20.4281 115.599 19.3774 114.9C20.1722 115.747 20.9703 116.594 21.7684 117.438C21.4923 116.618 21.9739 116.264 22.4554 115.889C22.9 115.545 23.3108 115.16 23.7587 114.819C23.9405 114.68 24.0887 114.316 24.4019 114.579C24.6511 114.788 24.5265 115.058 24.4356 115.312C24.1897 116.031 23.9439 116.75 23.7082 117.472C23.1559 119.17 23.4489 119.896 25.3246 121.013C24.7993 120.01 25.0182 119.254 25.2775 118.498C25.4694 117.938 25.6681 117.371 25.7995 116.793C25.9443 116.155 26.1396 115.963 26.8434 116.257C27.7998 116.655 28.8741 116.274 29.4163 115.507C30.0427 114.626 29.716 113.803 29.1603 113.04M28.2578 113.614C28.1029 114.282 27.0421 115.106 26.2238 115.129C25.685 115.109 25.2472 114.724 24.8599 114.258C24.6208 113.971 24.9071 113.85 25.062 113.715C25.557 113.286 26.0453 112.841 26.5774 112.456C26.8502 112.257 27.0691 111.693 27.5405 112.091C27.9951 112.476 28.4127 112.928 28.2545 113.61" fill="#0A467B"/>
<path d="M13.639 89.8729C13.4605 89.4881 13.1102 89.559 12.7836 89.5286C9.79315 89.2755 6.73873 90.0282 3.76514 89.0088C4.09853 89.7514 4.43866 90.5109 4.84614 91.4156C5.09871 90.3523 5.95745 89.9742 7.04855 90.2645C7.35837 90.3489 8.34171 92.3034 8.13966 92.5363C7.81973 92.9076 7.36174 93.1608 7.04519 93.5321C6.4828 94.1904 6.19318 93.252 5.64089 93.306C6.1595 94.4807 6.64107 95.5676 7.12264 96.6613L7.48971 96.6782C7.06876 95.6824 7.71534 95.274 8.27773 94.8014C9.91775 93.414 11.5578 92.0232 13.181 90.6156C13.3931 90.4299 13.8579 90.3455 13.639 89.8763M10.0592 90.997C9.08259 91.8049 8.43601 91.5619 8.11945 90.2679C8.38886 90.2544 8.64817 90.2308 8.91084 90.2274C9.50354 90.2206 10.0962 90.224 10.7799 90.224C10.6182 90.6561 10.3017 90.7979 10.0592 90.997Z" fill="#0A467B"/>
<path d="M77.4315 142.961C76.9769 140.997 76.4684 139.046 75.9565 137.098C75.8824 136.818 75.9734 136.386 75.4918 136.325C75.017 136.268 74.8789 136.642 74.7004 136.946C73.707 138.624 72.7101 140.301 71.7335 141.989C71.2587 142.81 70.8883 143.718 69.7837 144.021C70.6795 144.109 71.5753 144.194 72.6394 144.298C72.2959 143.815 71.5854 143.792 71.9457 143.255C72.3027 142.729 72.269 141.733 73.1681 141.804C73.9258 141.861 74.9597 141.54 75.3739 142.398C75.6905 143.049 76.2529 144.048 74.6027 144.521C76.1788 144.693 77.4181 144.828 78.654 144.963C78.6876 144.889 78.7213 144.815 78.755 144.737C77.8121 144.48 77.6167 143.751 77.4315 142.958M73.1749 141.112C73.4712 140.274 73.9494 139.555 74.5185 138.607C74.6229 139.083 74.6667 139.302 74.7206 139.518C75.0259 140.77 74.5118 141.301 73.1782 141.112" fill="#0A467B"/>
<path d="M159.028 100.304L158.863 100.034C158.203 100.878 157.435 100.628 156.651 100.462C154.516 100.01 152.374 99.5914 150.232 99.1661C149.932 99.1053 149.596 98.8521 149.357 99.2808C149.141 99.6657 149.437 99.9053 149.629 100.155C150.845 101.772 152.071 103.379 153.283 104.999C153.802 105.695 154.546 106.316 154.179 107.409C154.765 106.673 155.354 106.002 155.799 104.945C155.213 105.259 154.768 105.85 154.391 105.134C154.115 104.611 153.108 104.28 153.701 103.527C154.159 102.943 154.122 101.691 155.395 101.988C156.119 102.157 157.166 101.931 157.031 103.305C157.695 102.305 158.362 101.306 159.028 100.307M152.97 103.382C152.323 102.565 151.781 101.88 151.138 101.06C152.195 101.289 153.078 101.485 154.085 101.705C153.704 102.282 153.377 102.768 152.97 103.382" fill="#0A467B"/>
<path d="M135.64 126.944C134.664 127.041 133.785 126.852 133.003 126.377C131.222 125.297 129.444 124.21 127.649 123.143C127.4 122.995 127.184 122.623 126.79 122.917C126.369 123.227 126.625 123.575 126.716 123.903C127.228 125.752 127.77 127.596 128.265 129.452C128.501 130.323 129.047 131.214 128.349 132.183C129.067 131.677 129.781 131.17 130.495 130.664L130.653 130.259C129.397 131.005 129.38 130.181 129.08 129.537C128.525 128.345 129.602 128.203 130.114 127.66C130.949 126.772 131.495 127.643 132.158 127.923C132.939 128.25 132.374 128.753 132.249 129.402C133.438 128.544 134.441 127.818 135.64 126.951M129.848 127.093C129.437 127.349 129.114 127.747 128.592 127.869C128.326 127.055 128.067 126.259 127.706 125.162C128.572 125.705 129.222 126.124 129.882 126.525C130.252 126.752 130.107 126.934 129.848 127.096" fill="#0A467B"/>
<path d="M96.7175 142.151C95.7678 140.369 94.7878 138.603 93.7978 136.838C93.6361 136.551 93.6092 136.085 93.0939 136.139C92.5955 136.19 92.6124 136.612 92.5181 136.946C92.0433 138.6 91.6021 140.268 91.0869 141.908C90.7602 142.958 90.7939 144.21 89.5479 144.838C90.4908 144.69 91.4101 144.815 92.5787 144.362C91.299 144.285 91.4607 143.721 91.5617 142.988C91.72 141.78 92.6258 142.003 93.3633 141.787C94.4982 141.449 94.7037 142.317 95.1482 142.992C95.6466 143.748 94.8013 143.778 94.4477 144.281C95.8992 144.102 97.1553 143.95 98.408 143.795C98.4282 143.717 98.4518 143.636 98.472 143.555C97.4786 143.555 97.1048 142.87 96.7175 142.148M92.0534 141.361C92.2554 140.413 92.4036 139.572 92.7875 138.671C93.2488 139.522 93.7203 140.22 94.0032 141.098C93.3431 141.186 92.7403 141.267 92.05 141.361" fill="#0A467B"/>
<path d="M167.835 69.9871C167.505 71.0302 166.619 71.1045 165.797 71.2969C163.804 71.7627 161.807 72.2218 159.813 72.6978C159.46 72.7788 158.928 72.6708 158.891 73.2176C158.853 73.7375 159.386 73.7746 159.716 73.9467C161.473 74.8615 163.241 75.7628 165.009 76.6641C165.835 77.0827 166.788 77.346 166.963 78.6963C167.316 77.4338 167.387 76.5696 167.246 75.9181C166.703 76.5223 165.488 76.4245 164.844 75.7223C164.629 75.4894 164.828 73.4775 165.084 73.2615C165.737 72.7113 167.084 72.9037 167.65 73.7645C167.791 72.4615 167.916 71.2935 168.044 70.1255C167.976 70.0783 167.906 70.031 167.838 69.9838M164.174 74.5847C164.1 75.1721 163.945 75.4354 163.346 75.0506C162.783 74.6928 162.093 74.5476 161.477 74.0244C162.12 73.8826 162.649 73.7678 163.177 73.6531C164.309 73.3999 164.322 73.4269 164.178 74.5881" fill="#0A467B"/>
<path d="M34.7671 118.13C34.4472 117.769 34.1037 118.005 33.777 118.147C31.8676 118.971 29.9649 119.805 28.0521 120.625C27.2035 120.989 26.3818 121.594 25.3648 120.888C25.3446 120.976 25.321 121.06 25.3008 121.148C25.981 121.732 26.6546 122.313 27.3853 122.937C27.5705 122.424 26.7994 122.019 27.4392 121.779C28.0892 121.536 28.6953 120.615 29.4463 121.28C29.9885 121.759 31.1234 121.972 30.7832 123.055C30.5576 123.771 30.4431 124.848 29.1028 124.466C29.9009 125.145 30.6991 125.827 31.4972 126.505C31.7194 126.549 31.8104 126.455 31.7666 126.232C31.5746 125.753 31.7733 125.324 31.9653 124.898C32.8476 122.941 33.74 120.986 34.6088 119.018C34.7267 118.748 35.0736 118.468 34.7671 118.124M31.2648 121.962C30.7731 121.536 30.332 121.155 29.7528 120.659C30.6856 120.227 31.4467 119.872 32.3458 119.454C32.1303 120.436 31.6925 121.152 31.2682 121.962" fill="#0A467B"/>
<path d="M123.696 2.3092C124.598 2.3092 125.343 2.3092 126.087 2.30583C125.309 2.66027 125.289 3.28476 125.306 4.00039C125.349 5.89074 125.336 7.78447 125.316 9.67482C125.312 9.99212 125.555 10.4613 125.056 10.6132C124.649 10.7348 124.511 10.3094 124.316 10.0664C122.726 8.1254 121.147 6.17092 119.392 4.01389C119.392 6.08653 119.419 7.91949 119.385 9.75245C119.375 10.3331 120.015 10.1305 120.18 10.5727C119.392 10.5727 118.651 10.5727 117.907 10.5761C118.725 10.2824 118.661 9.63093 118.655 8.96931C118.634 7.27475 118.631 5.58693 118.648 3.89237C118.655 3.24762 118.709 2.61638 117.698 2.49148C119.119 2.06616 119.429 2.15392 120.177 3.07547C121.591 4.81729 123.006 6.55911 124.582 8.5001C124.582 6.55911 124.565 4.85442 124.582 3.14973C124.588 2.60288 123.989 2.73791 123.699 2.3092" fill="#0A467B"/>
<path d="M41.7921 4.4393C41.6776 4.36504 41.6473 4.35491 41.627 4.32791C41.2903 3.87557 41.59 3.03167 40.8424 2.85613C39.9264 2.64009 39.0003 2.66372 38.1517 3.17344C36.909 3.91946 36.35 5.75242 36.7508 7.74066C37.0538 9.26307 38.1247 10.2555 39.657 10.4445C40.8727 10.5931 41.1017 10.4108 41.0714 9.17868C41.0512 8.44617 41.4216 7.52125 40.2632 7.16681C41.1488 7.16681 42.0345 7.16681 43.0515 7.16343C41.7921 7.72716 42.2905 8.78036 42.3039 9.62089C42.3174 10.4715 42.0615 10.8159 41.2364 10.88C40.4753 10.9374 39.7176 11.0015 38.9599 10.9036C36.7204 10.6099 35.3633 9.09767 35.3263 6.90351C35.2825 4.43255 36.5958 2.74136 38.869 2.36667C39.3236 2.28903 39.7984 2.18101 40.2463 2.23502C42.3881 2.48819 42.4757 1.98185 41.7921 4.4393" fill="#0A467B"/>
<path d="M27.7525 2.42741C29.6215 2.42741 31.4906 2.42403 33.4303 2.42065C33.4404 3.04852 33.2754 3.6325 33.1238 4.22324C33.0329 4.20298 32.9588 4.20974 32.9285 4.17598C32.6254 3.82829 32.8511 3.09578 32.3594 3.00126C31.6253 2.86286 30.8473 2.954 30.0863 2.954C29.7495 2.954 29.7596 3.21055 29.7596 3.44347C29.7596 3.87555 29.7596 4.30425 29.7596 4.73633C29.7596 6.32963 29.8337 6.33638 31.4131 6.22161C32.0934 6.17097 31.834 5.46209 32.2449 5.31694C32.4638 5.44184 32.4065 5.61737 32.4099 5.76928C32.4166 6.38701 32.4133 7.00813 32.4133 7.71364C31.8442 7.47059 32.063 6.68069 31.2649 6.70095C29.7663 6.74146 29.763 6.64356 29.7663 8.14234C29.7663 10.2082 29.7663 10.188 31.834 10.2015C32.4402 10.2048 32.8309 10.0766 33.0363 9.46221C33.1205 9.20904 33.1845 8.88835 33.6324 8.70269C33.6054 9.31031 33.5751 9.85041 33.5583 10.3905C33.5515 10.7179 33.3394 10.7483 33.0868 10.7483C31.3154 10.7483 29.5407 10.7517 27.6919 10.6707C28.6954 10.4006 28.5843 9.66137 28.5776 8.94574C28.5574 7.28831 28.5405 5.63087 28.5776 3.97682C28.591 3.28819 28.5439 2.72446 27.7491 2.42065" fill="#0A467B"/>
<path d="M68.0999 4.28396C67.8237 4.12869 67.8136 3.83838 67.7732 3.60546C67.6856 3.08224 67.4735 2.75143 66.8943 2.72443C66.1534 2.68729 65.4024 2.63666 64.9175 3.33879C64.5908 3.81138 64.6178 4.34473 64.8872 4.84769C65.1162 5.27977 65.527 5.50932 65.9446 5.71523C66.5373 6.00891 67.1502 6.26208 67.7294 6.58277C68.4804 6.99459 68.9249 7.63596 68.8845 8.52038C68.8475 9.43179 68.3693 10.0833 67.5509 10.4614C66.3184 11.0285 65.0387 10.9441 63.7557 10.6504C63.5064 10.593 63.3347 10.4614 63.3886 10.1643C63.4829 9.62421 63.5738 9.08411 63.6681 8.53388C64.0722 8.58114 64.0217 8.88494 64.0756 9.06723C64.4527 10.3162 65.9244 10.7989 66.9886 10.0057C67.7867 9.40816 67.7631 8.24357 66.8707 7.65284C66.2679 7.25452 65.5775 6.99459 64.9309 6.66041C63.7119 6.02916 63.2202 5.22914 63.3684 4.15907C63.5031 3.21052 64.2877 2.5624 65.5573 2.30247C66.2847 2.15395 66.9987 2.23496 67.7294 2.28559C68.4602 2.33285 68.6825 2.6029 68.4063 3.27803C68.2716 3.60209 68.4333 4.01729 68.0965 4.28734" fill="#0A467B"/>
<path d="M141.958 8.42591C142.187 8.50017 142.204 8.70946 142.258 8.8985C142.615 10.1812 143.854 10.6707 145.033 9.9922C145.925 9.47911 146.003 8.21662 145.11 7.58876C144.524 7.17693 143.831 6.91701 143.184 6.5862C141.951 5.95833 141.409 5.1448 141.547 4.12536C141.692 3.07217 142.46 2.42405 143.871 2.18438C144.194 2.12699 144.524 2.08311 144.854 2.08649C146.858 2.11012 146.929 2.21814 146.346 4.16925C146.067 4.15912 146.08 3.93295 146.03 3.74729C145.693 2.58608 144.292 2.17763 143.352 2.96415C142.645 3.55488 142.696 4.53719 143.48 5.19206C144.046 5.66802 144.757 5.87731 145.407 6.198C146.707 6.84274 147.161 7.51112 147.047 8.62845C146.939 9.65464 146.212 10.3163 144.888 10.6336C144.366 10.7585 143.844 10.799 143.315 10.7618C141.477 10.6336 141.251 10.2386 141.965 8.42254" fill="#0A467B"/>
<path d="M155.106 4.30756C154.957 4.20966 154.883 4.18266 154.856 4.1354C154.574 3.57167 154.782 2.68726 153.755 2.61974C152.577 2.54548 151.509 2.68726 150.728 3.69657C149.825 4.86453 149.667 7.0857 150.448 8.40894C151.297 9.85371 152.641 10.2183 154.2 10.0259C154.651 9.96848 155.096 9.88071 155.597 9.79632C154.54 11.0419 151.964 11.1702 150.384 10.0833C148.801 8.99292 148.414 7.403 148.69 5.6173C148.963 3.86872 150.273 2.57924 152.021 2.23155C152.832 2.06952 153.651 2.10665 154.483 2.1404C155.459 2.18091 155.58 2.59611 155.338 3.38263C155.25 3.66281 155.19 3.95312 155.102 4.30756" fill="#0A467B"/>
<path d="M7.99156 10.009C6.78932 11.1027 5.39513 11.1905 3.94369 10.7955C2.48215 10.3972 1.53586 9.42164 1.17552 7.95324C0.377399 4.72277 2.52256 2.1843 5.94405 2.26531C6.0114 2.26869 6.07539 2.26869 6.14274 2.27207C8.08248 2.39359 8.18688 2.56574 7.39549 4.60125C7.33151 4.45272 7.30457 4.36833 7.25742 4.29407C6.95433 3.8046 7.21364 2.94719 6.31786 2.84592C5.27053 2.7244 4.26362 2.76828 3.43519 3.5548C2.32388 4.61137 1.99722 6.68738 2.70105 8.29081C3.31395 9.68156 4.55997 10.3837 6.26061 10.2554C6.83984 10.2115 7.41233 10.0968 7.98482 10.0124" fill="#0A467B"/>
<path d="M134.816 9.83016C133.509 10.9711 132.01 11.0758 130.488 10.5323C129.033 10.0158 128.161 8.91537 127.959 7.36933C127.518 4.04434 129.805 1.78267 133.226 2.12698C134.923 2.29577 135.072 2.5962 134.27 4.27726C134.223 4.24013 134.162 4.2165 134.132 4.16924C133.822 3.64939 134.081 2.75823 133.122 2.66371C131.953 2.54556 130.872 2.66371 130.054 3.63926C129.084 4.7971 128.909 6.90687 129.667 8.34489C130.354 9.64788 131.623 10.2454 133.371 10.0631C133.856 10.0124 134.337 9.91118 134.819 9.83016" fill="#0A467B"/>
<path d="M93.0605 10.6099C93.9361 10.3365 93.8115 9.64108 93.8081 8.99634C93.798 7.27477 93.7846 5.5532 93.8081 3.82826C93.8149 3.20039 93.7947 2.64004 93.0269 2.30922C93.8149 2.30922 94.5995 2.30922 95.3876 2.30585C95.9836 2.30585 96.5763 2.30247 97.1724 2.2991C98.4117 2.2946 98.7922 2.90446 98.314 4.12869C98.1726 4.1962 98.1759 4.0578 98.1288 3.99366C97.883 3.65947 98.1018 2.98435 97.59 2.91684C96.8121 2.81219 96.0106 2.87633 95.2192 2.91009C94.9599 2.92021 94.9969 3.19364 94.9935 3.38605C94.9902 3.88227 94.9935 4.37848 94.9935 4.8747C94.9935 6.28909 95.3876 6.56589 96.8188 6.27221C97.3845 6.15744 97.196 5.55658 97.5496 5.32028C97.792 6.04604 97.8021 6.7448 97.5799 7.68997C97.1926 7.45705 97.3206 6.83256 96.7043 6.75155C95.2023 6.55914 94.9969 6.68403 95.0003 8.19294C95.0003 8.3921 95.0104 8.59126 95.0003 8.78705C94.9565 9.54994 94.8925 10.3162 95.8893 10.6099C94.9498 10.6099 94.0068 10.6099 93.0673 10.6133" fill="#0A467B"/>
<path d="M20.1455 2.41719C21.0682 2.41719 21.9909 2.41719 23.2336 2.41382C21.8798 2.91004 22.1761 3.84171 22.1728 4.66199C22.166 6.28566 22.193 7.91271 22.1728 9.53639C22.166 10.0562 22.3344 10.2351 22.8564 10.2149C24.1293 10.1643 25.6448 10.6537 25.9209 8.50345C26.2375 9.26634 26.0051 9.86382 26.0186 10.4546C26.0253 10.7989 25.7424 10.7617 25.5168 10.7617C23.732 10.7651 21.9505 10.7685 20.0444 10.6909C21.2871 10.3432 20.9773 9.40812 20.984 8.60809C20.9941 7.11607 20.9503 5.62066 20.9941 4.13201C21.0143 3.39275 20.9739 2.76826 20.1488 2.41382" fill="#0A467B"/>
<path d="M139.584 10.5592C138.655 10.5592 137.722 10.5592 136.789 10.5626C137.746 10.2352 137.56 9.43515 137.557 8.71277C137.55 7.08909 137.533 5.46879 137.557 3.84512C137.567 3.19025 137.581 2.58263 136.766 2.32271C137.702 2.32271 138.631 2.32271 139.567 2.31934C138.588 2.60626 138.726 3.38603 138.732 4.13205C138.749 5.68821 138.746 7.24437 138.742 8.80054C138.742 9.51279 138.591 10.2892 139.581 10.5592" fill="#0A467B"/>
<path d="M47.5877 10.6808C46.6616 10.6808 45.7355 10.6808 44.8095 10.6842C45.712 10.3837 45.6547 9.67148 45.6413 8.93896C45.6143 7.28153 45.6244 5.61735 45.6311 3.95992C45.6311 3.30842 45.7423 2.60967 44.769 2.46114C45.7052 2.46114 46.6414 2.46114 47.581 2.45776C46.6381 2.72781 46.8199 3.50421 46.8199 4.19621C46.8199 5.78951 46.8199 7.3828 46.8267 8.9761C46.83 9.63772 46.5842 10.4276 47.5877 10.6842" fill="#0A467B"/>
<path d="M72.3633 1.49912C72.6327 0.263638 73.2389 -0.0705487 74.1986 0.418917C74.6937 0.672089 75.1449 0.915134 75.5894 0.358156C75.6804 0.24676 75.805 0.213004 75.9296 0.317648C76.071 0.439171 75.9599 0.54044 75.9127 0.655211C75.5827 1.39785 74.8317 1.75566 74.1481 1.36072C73.4948 0.982647 72.9459 0.925261 72.3666 1.49912" fill="#0A467B"/>
<path d="M29.6655 1.78938C29.9854 1.00624 30.5276 0.510022 31.1675 0.131952C31.5548 -0.0942153 31.9858 -0.0402052 32.1778 0.378372C32.3596 0.783447 31.9622 0.942102 31.6625 1.06025C31.0025 1.32017 30.3323 1.54971 29.6655 1.78938Z" fill="#0A467B"/>
<path d="M105.962 8.91532C105.588 8.32796 105.255 7.71697 104.861 7.14649C104.575 6.73804 104.561 6.55575 105.08 6.30258C106.215 5.7456 106.612 4.87469 106.353 3.80124C106.131 2.87632 105.407 2.33622 104.171 2.29571C102.918 2.25183 101.665 2.28896 100.409 2.28896C101.288 2.63665 101.197 3.32528 101.194 3.98353C101.187 5.6072 101.187 7.23425 101.2 8.85793C101.207 9.56681 101.325 10.3094 100.136 10.5727C101.335 10.5727 102.244 10.5727 103.312 10.5694C102.703 10.2386 102.395 9.78285 102.386 9.20224C102.379 8.73641 102.345 8.27057 102.396 7.81149C102.433 7.45705 102.13 6.92707 102.672 6.78192C103.207 6.63677 103.49 7.07222 103.736 7.4908C104.204 8.29083 104.659 9.10098 105.174 9.87062C105.794 10.7955 106.528 10.9744 107.777 10.485C106.791 10.2892 106.393 9.58707 105.966 8.91869M102.817 6.30258C102.477 6.2452 102.376 6.09329 102.382 5.78611C102.393 5.35741 102.382 4.9287 102.382 4.5C102.382 4.36835 102.352 4.22657 102.386 4.10505C102.524 3.64259 101.975 2.9067 102.915 2.76493C103.942 2.60965 104.821 3.08899 105.043 3.93289C105.433 5.41817 104.342 6.56251 102.817 6.30258" fill="#0A467B"/>
<path d="M161.463 2.00879C158.712 2.01217 156.991 3.72361 156.981 6.46462C156.974 9.15499 158.557 10.782 161.187 10.7888C163.969 10.7955 165.703 9.06385 165.713 6.26883C165.723 3.58859 164.144 2.00542 161.46 2.00879M164.279 7.85875C164.002 9.42842 163.134 10.2217 161.628 10.3196C160.143 10.4175 159.018 9.63433 158.567 8.17944C158.234 7.11274 158.247 6.01566 158.426 4.93546C158.692 3.32191 159.547 2.58603 161.083 2.52527C162.75 2.45438 163.706 3.143 164.181 4.70592C164.356 5.2899 164.343 5.88401 164.383 6.56251C164.356 6.93721 164.363 7.4098 164.282 7.86213" fill="#0A467B"/>
<path d="M54.0572 2.154C51.3159 2.17426 49.6389 3.8992 49.649 6.67059C49.6591 9.36096 51.2452 10.9441 53.9023 10.934C56.6536 10.9239 58.3845 9.15167 58.3778 6.35328C58.3744 3.71016 56.7513 2.13375 54.0572 2.154M56.9028 8.08835C56.5862 9.68502 55.7107 10.4175 54.1952 10.4682C52.7337 10.5188 51.6931 9.75591 51.2216 8.33477C51.0196 7.72378 51.0129 7.09929 50.9792 6.38366C50.9994 6.07648 51.0028 5.67815 51.0499 5.28321C51.2385 3.67641 52.0703 2.80887 53.5352 2.68397C55.2998 2.53545 56.3707 3.23083 56.8287 4.84438C57.1318 5.91782 57.1217 7.01153 56.9062 8.08835" fill="#0A467B"/>
<path d="M13.9522 2.20459C11.1402 2.18096 9.39242 3.8924 9.37895 6.67392C9.36885 9.35079 10.9651 10.9812 13.6053 10.9846C16.4038 10.988 18.0876 9.2934 18.0977 6.4545C18.1078 3.79451 16.5823 2.22822 13.9522 2.20459M16.6799 7.99041C16.4341 9.58033 15.6057 10.3871 14.097 10.512C12.6018 10.6369 11.4534 9.88076 10.9954 8.43262C10.5947 7.16676 10.598 5.88064 10.9516 4.61141C11.2547 3.52783 11.9619 2.85608 13.1338 2.75144C14.3866 2.64004 15.5215 2.8122 16.2287 4.02405C16.7102 4.85445 16.7776 5.77938 16.8315 6.79206C16.7877 7.13638 16.7473 7.56508 16.6833 7.99041" fill="#0A467B"/>
<path d="M83.7527 2.11339C80.9273 2.07288 79.1795 3.74719 79.1324 6.53208C79.0852 9.2022 80.6916 10.8765 83.3082 10.89C86.1235 10.9035 87.8241 9.22921 87.8511 6.41056C87.8747 3.73369 86.3626 2.15052 83.7527 2.11339M86.3559 8.32454C86.0427 9.61741 85.2446 10.279 83.911 10.4141C82.6111 10.5491 81.4931 9.97185 80.9509 8.85789C80.5703 8.06799 80.4525 7.21734 80.4222 6.34305C80.4861 5.88396 80.5198 5.4215 80.6141 4.97254C80.9475 3.34549 81.7423 2.66362 83.3183 2.62648C84.955 2.58598 85.9922 3.33874 86.3693 4.8814C86.6489 6.02574 86.6388 7.18358 86.3592 8.32792" fill="#0A467B"/>
<path d="M76.9197 9.1246C76.1822 7.07222 75.4312 5.02321 74.6634 2.97758C74.5624 2.70416 74.5893 2.27545 74.1145 2.2687C73.67 2.26532 73.6195 2.63664 73.4949 2.93032C72.6967 4.82067 71.8986 6.70765 71.1039 8.598C70.7705 9.39127 70.5617 10.2723 69.6255 10.6166C70.4303 10.6166 71.2386 10.6132 72.1175 10.6132C71.8414 10.2386 71.0567 10.3128 71.4575 9.65457C71.8717 8.97269 71.6359 7.70008 72.7169 7.67983C73.5757 7.66633 74.7948 6.95407 75.3235 8.21655C75.6266 8.94231 76.5897 9.85373 75.0642 10.6976C76.1418 10.6976 76.9938 10.6976 77.8458 10.6943C77.9603 10.6943 78.0714 10.6808 78.1859 10.6706C77.4215 10.3635 77.1521 9.77609 76.9197 9.12797M74.2829 7.09247C73.7272 7.05196 73.1648 7.08572 72.5789 7.08572C72.589 6.45785 72.919 5.98526 73.1009 5.46542C73.2726 4.97258 73.4881 4.49324 73.7777 3.78773C74.1381 4.79367 74.4041 5.61057 74.7207 6.40384C74.916 6.89331 74.9059 7.13298 74.2829 7.08909" fill="#0A467B"/>
<path d="M113.529 10.5964C114.66 10.5964 115.6 10.593 116.536 10.593C115.762 10.2554 115.509 9.59719 115.26 8.90181C114.566 6.97096 113.859 5.04347 113.135 3.12612C113.007 2.78856 113.051 2.25858 112.522 2.2282C111.983 2.19782 111.973 2.71767 111.825 3.06198C111.03 4.91858 110.245 6.77855 109.468 8.64189C109.148 9.41153 108.919 10.2453 108.013 10.5592C108.814 10.5592 109.619 10.5592 110.586 10.5592C110.134 10.2217 109.481 10.1542 109.878 9.55331C110.313 8.89169 110.023 7.58532 111.178 7.62245C112.04 7.64946 113.276 6.88657 113.758 8.21994C114.014 8.92882 114.997 9.80311 113.532 10.5998M112.828 7.03172C112.212 7.02159 111.599 7.03172 110.865 7.03172C111.303 5.91439 111.7 4.9152 112.162 3.73711C112.545 4.7903 112.872 5.67809 113.195 6.56251C113.327 6.91695 113.175 7.03847 112.828 7.03172" fill="#0A467B"/>
</svg>
