<?xml version="1.0" encoding="UTF-8"?><svg id="Camada_2" xmlns="http://www.w3.org/2000/svg" viewBox="0 0 1536.19 678.27"><defs><style>.cls-1{fill:#fff;}</style></defs><g id="Camada_1-2"><g><path class="cls-1" d="M627.63,308.87c.49,10.11-3.45,15.84-13.25,18.5-12.77,3.4-25.83,3.01-38.85,2.41-12.41-.65-24.76-1.75-37.04-3.82-4.67-.79-2.37,2.81-2.15,4.14,2.32,14.67,4.56,29.4,7.36,43.99,5.81,30.67,13.61,60.79,25.98,89.57,3.75,8.79,9.24,16.46,13.6,24.85,3.21,6.33,5.66,12.74,5.47,19.97-.42,9.78-6.27,15.51-16.09,15.37-4.23-.04-8.25-1.09-12.31-2.34-15.91-4.96-30.5-2.7-42.95,8.67-17.62,16.04-38.4,19.62-61.14,16.16-3.55-.57-7.1-.58-10.7-.68-2.8-.05-5.48-.42-6.81-3.07-1.39-2.79-.26-5.5,1.57-7.77,2.92-3.83,6.57-6.94,9.13-11.09,10.92-17.94,18.01-37.37,23.43-57.51,6.25-23.16,8.56-46.95,12.01-70.59,2.38-16.54,4.51-33.17,6.89-49.71,.68-4.82,.13-9.69,.49-13.73,.04-6.15,.12-11.6-.9-16.93-1.06-5.61-3.31-10.57-6.92-15.04-19.79-24.56-37.15-50.83-53.61-77.66-2.38-3.95-3.58-8.56-5.44-12.85-3.2-7.41-7.86-13.19-15.26-17.37-10.46-5.83-17.15-15.1-18.78-27.36-.86-6.54,.51-10.04,3.57-10.36,3.32-.29,8.03,5.09,8.4,9.78,.22,3.31,.86,6.54,3.63,8.71,2.04,1.58,4.02,2.95,4.18-1.53,.11-1.76,.9-3.56,1.76-5.21,1.25-2.56,2.71-5.23,6.18-4.67,3.15,.44,4.71,2.98,5.41,5.74,.81,2.98,1.2,6.04,1.66,9.11,2.03,14.77,9.56,26.89,19.05,37.65,20.3,22.86,44.62,39.38,75.16,45.15,35.87,6.81,66.44-4.14,92.46-29.05,2.91-2.74,5.66-5.77,8.51-8.58,1.33-1.18,2.65-3.32,4.64-2.36,1.9,1.02,1.03,3.36,1.05,5.13,.02,.82-.15,1.55-.13,2.37-.03,1.64-1.07,3.74,.64,4.67,1.47,.82,3.28-.43,4.76-1.25,7.08-3.79,10.87-10.3,14.1-17.29,.88-1.86,1.07-5.24,3.54-4.77,2.84,.68,1.78,3.87,1.6,6.1-1.63,17.46-10.64,30.14-25.93,38.31-3.39,1.78-4.04,3.53-3.41,7.24,2.24,12.33,3.14,24.9,4.13,37.39,.34,3.87,1.1,7.73,1.31,11.59"/><path class="cls-1" d="M352.38,132.7c1.2-5.54,2.37-10.46,3.29-15.42,.36-1.97,.9-3.01,3.17-2.96,5.59,.14,11.19,.14,16.77-.02,2.41-.06,2.8,1.01,2.8,3.07,.02,34.01,.06,68.02,.22,102.03,.01,2.81-1.08,3.32-3.55,3.29-9.48-.1-18.95-.14-28.42,.04-3.01,.05-3.88-.83-4.02-3.87-.66-15.19-.14-30.44-2.48-45.55-1.22-7.89-3.31-15.48-7.81-22.2-6.81-10.16-16.15-10.01-22.39,.49-6.42,10.8-6.24,22.51-3.8,34.32,3.53,17.02,10.93,32.57,18.7,47.94,12.81,25.31,27.29,49.76,39.33,75.47,9.99,21.31,17.87,43.29,20.45,66.83,3.16,28.8-.38,56.67-12.51,83.16-4.37,9.54-10.47,17.95-18.59,24.75-18.88,15.81-41.19,14.85-58.38-2.76-2.68-2.75-4.27-3.18-5.51,.68-2.49,7.77-7.7,10.28-15.53,9.01-4.24-.69-9.98,1.74-12.58-.83-2.83-2.8-.87-8.55-.88-12.99-.13-34.94-.06-69.88-.29-104.83-.03-4.2,1.14-5.25,5.18-5.12,8.54,.3,17.08,.18,25.62,.01,2.99-.05,4.03,.66,3.79,3.91-1.14,15.5-1.72,31.01-.15,46.52,1.1,11,2.71,21.89,7.65,31.94,3.32,6.78,7.84,12.31,15.95,13.59,7.32,1.17,11.38-.67,14.96-7.05,8.24-14.63,7.73-30.02,3.75-45.64-5.12-20.05-14.85-38.07-25.05-55.83-6.56-11.43-13.32-22.76-20.24-33.98-17.11-27.68-26.05-58.14-30.78-90-3.24-21.78-3.83-43.6,.84-65.3,3.32-15.43,9.27-29.61,20.93-40.76,19.82-18.95,43.4-18.66,62.72,.72,2.17,2.18,4.2,4.5,6.82,7.29"/><path class="cls-1" d="M207.62,132.58c1.04-5.09,2.12-10.04,3.03-15.03,.41-2.19,1.34-3.13,3.71-3.05,4.96,.17,9.95,.26,14.89-.04,3.47-.21,4.51,.8,4.44,4.36-.29,14.12-.28,28.26-.33,42.4-.08,24.23-.19,48.45-.11,72.68,.01,3.33-.59,4.61-4.27,4.49-9-.29-18.02-.22-27.02,0-3.27,.08-4.19-.89-4.21-4.15-.11-23.92-.9-47.81-2.85-71.66-.36-4.42-1.5-8.57-4-12.24-6.02-8.84-17.17-9.57-24.25-1.54-4.62,5.23-6.4,11.55-6.56,18.45-.4,17.23-.93,34.46-1.26,51.7-.96,48.9-2.6,97.81-1.7,146.74,.41,21.72,.73,43.48,3.48,65.08,1.1,8.57,4.37,16.53,8.58,23.95,4.94,8.69,18.66,8.79,25.61,.4,5.4-6.51,7.71-14.44,9.59-22.47,3.63-15.47,4.85-31.25,5.52-47.08,.36-8.22,.53-16.45,.61-24.68,.02-2.36,.66-3.29,3.15-3.21,5.13,.18,10.26,.14,15.38,.02,2.27-.06,3.32,.4,3.28,3.02-.46,32.57-3.24,64.78-14.91,95.58-3.54,9.34-8.3,18.03-14.97,25.56-15.62,17.64-40,19.32-57.82,3.93-11.07-9.55-18.29-21.79-24.08-34.97-10.96-24.99-16.41-51.38-18.65-78.39-4.1-49.36-1.81-98.67,2.33-147.93,1.54-18.38,2.44-36.87,7.6-54.75,4.75-16.48,11.92-31.66,24.52-43.71,22.16-21.19,47.17-20.07,67.46,2.87,1.1,1.24,1.79,2.91,3.78,3.68"/><path class="cls-1" d="M427.41,500.93c3.89-84.93,5.65-168.8,5.28-253.7,5.18,3.94,9.08,8.02,12.96,12.09,9.51,9.97,16.61,21.26,18.3,35.29,.99,8.19,.88,16.45,.3,24.64-3.08,44.04-1.58,88.13-1.47,132.19,.03,13.76-4.71,24.68-14.5,33.86-6.12,5.73-12.86,10.58-20.87,15.63"/><path class="cls-1" d="M481.82,216.43c.01-6.15,1.11-12.04,4.35-17.35,6.23-10.17,18.65-10.35,24.46,.03,6.42,11.49,6.44,23.57,.04,35.07-5.79,10.39-18.19,10.2-24.48,.07-2.84-4.56-4.37-10.85-4.37-17.83"/><path class="cls-1" d="M568.32,618.91c-.91-7.23-1.71-14.48-2.8-21.68-.39-2.55,.09-4.14,2.62-5.04,2.98-1.06,5.42-3.44,9.8-4.11-3.33,3.17-1.95,5.49-.37,8.01,3.95,6.31,7.8,12.67,11.49,19.14,1.84,3.22,3.5,6.24,8.3,5.32l-14.72,7.87c3.01-4.17-.05-7.1-1.86-10.17-3.36-5.69-6.79-11.33-10.96-16.75,1.16,8.99,2.33,17.98,3.43,26.98,.21,1.74,1.48,3.86-.51,5.14-2.13,1.37-3.35-.94-4.73-1.93-6.03-4.36-11.93-8.9-17.94-13.29-1.14-.84-2.06-2.43-4.28-1.77,3.96,6.58,8,12.93,11.64,19.5,1.49,2.69,3.87,.92,6.26,2.19-3.91,2.11-7.41,4-10.91,5.88,3.92-3.88,.99-6.84-.82-9.87-3.51-5.84-7.02-11.7-10.53-17.54q-3.06-5.09-9.4-5.32c4.41-2.4,7.98-4.37,11.57-6.28,1.8-.95,2.89,.52,4.09,1.4,6.47,4.81,12.92,9.65,19.38,14.48,2.1,.24,1.47-1.1,1.25-2.18"/><path class="cls-1" d="M32.85,366.24c-6.65,1.5-13.27,3.15-19.95,4.46-3.01,.59-5.37,1.4-5.27,6.08-2.5-4.43-2.62-8.27-3.57-12.34,3.07,5.36,7.11,2.86,10.88,2.01,6.8-1.54,13.57-3.18,20.4-4.61,3.52-.73,7.14-1.08,7.05-6.26,2.27,3.72,2.6,7.71,3.67,11.45,.59,2.06-1.32,2.56-2.52,3.38-6.92,4.69-13.86,9.33-21.92,14.73,6.17,.96,11.2,1.75,16.23,2.52,1.53,.24,3.08,.42,4.6,.67,10.68,1.79,11.36,2.58,12.46,15.58-3.04-6.39-7.24-3.85-11.03-3.06-6.97,1.46-13.89,3.19-20.86,4.67-3.38,.72-6.74,1.22-6.11,6.61-2.14-3.78-4.39-12.16-4.69-17.57,2.35,4.85,5.54,3.78,8.83,2.97,6.17-1.52,12.39-2.84,18.59-4.23,.88-.2,1.79-.29,2.63-1.6-9.03-1.34-17.69-2.63-26.36-3.91-1.22-.18-2.47-.3-3.67-.57-1.29-.28-3.01-.05-3.32-1.91-.27-1.64,1.31-1.94,2.25-2.58,7.54-5.19,15.12-10.31,22.69-15.46,.62-1.29,.13-1.49-1.02-1.03"/><path class="cls-1" d="M767.84,374.86c-7.68-1.76-14.34-3.16-20.93-4.87-3.03-.79-3.81,1.75-5.91,4.22,.11-5.24,1.71-8.79,3.11-12.89,.42,5.42,4.49,5.4,8.03,6.19,8.77,1.99,17.52,4.04,26.27,6.09,1.28,.3,3.15-.04,3.42,1.73,.33,2.13-1.48,2.79-3.09,3.49-10.06,4.45-20.11,8.93-30.16,13.4-.96,.42-1.91,.87-3.6,1.64,8.9,2.05,17.02,3.8,25.06,5.85,3.08,.78,3.74-1.87,6.02-4.34-.56,5.36-1.69,9.12-3.51,13,.14-4.7-3.02-5.18-6.28-5.87-7.12-1.5-14.19-3.28-21.31-4.8-3.78-.81-8.11-3.98-10.74,2.62,.9-6.75,1.42-12.41,9.11-14.77,8.07-2.47,15.6-6.71,24.52-10.7"/><path class="cls-1" d="M189.42,603.79c4.13-5.19,8.21-10.43,12.43-15.55,2.08-2.5-1.39-3.37-1.18-6.36,3.83,2.7,7.22,5.07,10.59,7.44-5.39-1.78-7.31,2.19-9.71,5.21-5.23,6.55-10.41,13.14-15.69,19.63-.96,1.18-1.52,3.39-3.88,2.41-2.09-.88-1.54-2.81-1.61-4.43-.39-9.62-.72-19.23-1.14-28.84-.06-1.48,.41-3.09-.98-4.86-5.19,6.51-10.26,12.9-15.37,19.26-1.91,2.38,1.63,3.28,1.34,5.64-4.16-1.68-7.08-4.79-10.76-7.56,5.74,2.62,7.5-1.83,9.96-4.86,4.31-5.3,8.51-10.67,12.78-16q3.3-4.13,1.25-8.48c6.87,2.18,9.65,5.23,9.86,11.92,.27,8.33,.09,16.67,.1,25.01,.67,.14,1.34,.28,2.01,.42"/><path class="cls-1" d="M407.76,665.25c0-7.27-.22-13.48,.05-19.65,.16-3.46-2.49-3.65-4.72-4.78,4.4-1.29,8.55-.86,13.17-.55-6.44,1.75-4.66,6.63-4.67,10.76-.02,7.76,.12,15.52,.09,23.29,0,1.24,.86,2.94-.93,3.68-1.96,.82-3.14-.47-4.32-1.82-5.92-6.78-11.87-13.53-17.83-20.29-1.7-1.93-3.41-3.85-5.81-6.56,.01,8.87,.13,16.69-.02,24.51-.06,3.24,3.54,1.89,4.48,4.28-4.35,0-8.48,.01-12.61,.02,4.94-1.11,4.41-4.77,4.35-8.32-.14-7.14-.27-14.28-.17-21.41,.05-3.51-.18-6.54-5.11-7,6.59-2.66,11.68-1.6,15.61,2.86,5.93,6.73,11.85,13.48,18.43,20.96"/><path class="cls-1" d="M639.16,540.09c3.66-3.91,7.32-7.82,10.98-11.74-.96,4.05,1.72,5.63,3.95,7.4,5.33,4.26,10.49,8.73,16.04,12.66,5.06,3.57,8.58,3.12,12.57-.61,4.72-4.42,5.23-9.26,.53-13.71-5.6-5.32-11.87-9.94-17.66-15.08-2.36-2.09-3.92,.47-7.11,.5,3.41-3.73,6.21-6.79,9-9.85,.44,.05,.89,.1,1.35,.14-3.91,4.74-.18,6.49,2.44,8.67,4.28,3.58,8.72,6.98,12.8,10.78,7.05,6.56,7.76,12.42,2.7,19.18-6.54,8.74-14.61,11.19-22.41,6.14-5.17-3.35-9.81-7.55-14.63-11.43-3.01-2.42-5.63-6.08-10.55-3.06"/><path class="cls-1" d="M580,10.8c4.24,0,7.72-.01,11.2-.02-3.65,1.65-3.75,4.57-3.67,7.93,.21,8.85,.14,17.7,.04,26.54-.02,1.48,1.12,3.68-1.21,4.39-1.91,.57-2.56-1.42-3.48-2.55-7.46-9.09-14.86-18.22-23.09-28.32,.01,9.7,.12,18.27-.03,26.84-.04,2.72,2.96,1.78,3.72,3.84-3.69,0-7.17,.01-10.66,.02,3.83-1.37,3.54-4.43,3.51-7.51-.1-7.92-.11-15.83-.03-23.74,.03-3.01,.29-5.97-4.45-6.56,6.66-1.98,8.12-1.57,11.63,2.73,6.63,8.15,13.26,16.29,20.66,25.38-.01-9.09-.08-17.06,0-25.02,.03-2.55-2.78-1.93-4.14-3.94"/><path class="cls-1" d="M682.33,101.71c-10.36,16.45-20.19,32.01-29.97,47.65-1.14,1.82-2.52,1.9-4.34,1.72-22.97-2.26-46.03-4.47-69-6.73-23.66-2.29-47.3-4.64-70.9-6.93-13.6-1.35-27.25-2.45-40.76-4-4.02-.5-4.97,.4-5.12,4.34-.88,24.33-1.97,48.7-2.99,73.08-1.63,.45-1.83-1.08-2.34-1.83-8.42-12.04-16.76-24.21-25.17-36.32-1.43-2.04-1.88-4.16-2.02-6.57-.63-11.15-1.39-22.25-1.87-33.45-.14-2.89-1.13-3.57-3.76-3.88-7.98-1.05-15.9-2.5-23.89-3.48-3.83-.48-5.79-1.57-5.11-5.98,.73-4.26,.8-8.63,.87-12.99,0-2.46,.89-3.43,3.31-3.16,.6,.09,1.22,.04,1.84,.05,91.94-.51,183.88-1.02,275.83-1.53,1.5,0,3.07,.02,5.4,0"/><path class="cls-1" d="M47.78,454.15c-.39,2.17-1.99,2.76-3.12,3.7-2.09,1.76-4.14,3.32-2.2,6.48,1.89,3.07,4.14,5.68,8.08,5.16,3.41-.45,5.64-2.6,5.77-6.25,.1-3.1-.15-6.21-.09-9.31,.18-8.56,8.34-13.58,16.13-9.9,6.14,2.9,8.66,8.57,10.79,14.49,.57,1.58-.25,2.29-1.65,2.67-2.35,.64-4.69,1.32-7.25,2.04-.5-2.35,1.26-2.96,2.25-3.87,1.64-1.55,3.28-2.92,1.87-5.49-1.62-2.93-3.82-4.96-7.38-4.65-2.72,.24-4.63,1.72-5.33,4.44-.71,2.75-.19,5.56-.11,8.34,.18,7.03-1.82,10.77-6.92,12.89-5.26,2.19-10.55,.76-15.01-4.19-1.23-1.37-2.31-2.93-3.22-4.54-4.93-8.69-3.25-11.49,7.39-12.02"/><path class="cls-1" d="M287.6,633.99c0-1.06-.1-2.14,.01-3.2,.27-2.74,.43-5.18-3.16-6.11-3.47-.89-6.51-.87-8.75,2.24-1.98,2.76-.93,5.37,1.05,7.61,2.16,2.43,4.69,4.55,6.75,7.05,5.32,6.44,2.58,14.96-5.51,17.18-7.53,2.08-14.02-.93-20.14-4.8-2.62-1.65-.13-3.34,.67-4.65,1.05-1.71,1.45-5.17,3.73-4.54,2.2,.61,.35,3.55,.21,5.37-.2,2.66,.75,4.05,3.13,4.89,3.56,1.24,7.03,1.8,9.86-1.37,1.84-2.06,2.13-4.66,.49-6.86-1.84-2.47-4.16-4.58-6.3-6.81-4.43-4.63-5.36-8.4-3.17-12.95,2.11-4.36,6.8-6.66,12.53-6.15,4.25,.39,8.03,2.09,11.83,3.9,2.76,1.32,2.89,2.73,1.13,4.92-1.2,1.5-2.22,3.14-3.33,4.72l-1.04-.44Z"/><path class="cls-1" d="M481.8,637.83c-1.77-.1-2.15-1.7-2.64-2.81-1.34-3.03-3.5-3.64-6.4-2.74-2.84,.87-5.11,2.34-5.4,5.62-.3,3.35,1.64,5.29,4.54,6.17,3.1,.93,6.33,1.43,9.49,2.14,4.93,1.11,8.49,3.73,9.39,9.01,.83,4.86-1.38,8.84-6.48,11.74-3.98,2.27-8.38,3.01-12.87,3.5-3.47,.39-5.47-.56-4.87-4.37,.31-2-2.22-4.85,.44-5.72,1.78-.58,2.48,2.73,3.4,4.4,1.24,2.27,2.76,3.08,5.27,2.48,3.47-.83,6.71-2.01,7.5-5.95,.55-2.67-.72-4.86-3.14-6.18-2.93-1.59-6.23-1.75-9.4-2.4-7.05-1.43-10.45-4.53-11.01-10.12-.5-5,3.02-9.57,9.28-11.85,1.88-.67,3.87-1.09,5.86-1.39,8.17-1.25,9.08-.13,7.02,8.47"/><path class="cls-1" d="M757.87,299.76c-.64,1.85-2.37,1.41-3.57,1.73-2.31,.64-4.59,.96-4.67,4.1-.08,3.02,.81,5.62,3.56,7.05,2.54,1.32,5.14,.98,7.34-.97,2.26-2.01,3.28-4.85,4.67-7.43,2.22-4.11,4.91-7.54,10.05-7.95,7.57-.61,12.4,3.49,13.76,11.89,.27,1.66,.36,3.4,.22,5.09-.72,8.88-4.04,10.47-12.55,6.04,1.09-2.06,3.27-1.48,4.92-1.87,2.58-.62,4.74-1.28,4.87-4.48,.12-3.31-.57-6.27-3.67-7.95-2.71-1.46-5.43-1.1-7.76,.98-1.65,1.47-2.54,3.48-3.57,5.39-1.32,2.44-2.46,5.03-4.52,7-6.31,6.02-16.67,2.91-19.24-5.75-1.24-4.16-.65-8.28,.01-12.43,.35-2.23,1.34-3.43,3.75-2.42,2.05,.86,4.67,.02,6.4,1.99"/><path class="cls-1" d="M119.37,509.24c-3.3,1.49-5.96,3.58-9.46,3.72-.27-1.7,.83-2.32,1.53-2.98,2.04-1.93,2.23-3.51,.33-5.88-4.57-5.71-4.43-5.82-10.39-1.77-.76,.52-1.72,.9-2.27,1.59-1.24,1.59-5.25,1.39-3.78,4.55,1.34,2.89,3.48,5.81,7.61,3.42,.22-.13,.76,.28,1.96,.78-3.35,2.36-6.26,4.41-9.18,6.46-.55,.38-1.14,.58-1.65,0-.72-.83-.06-1.48,.47-1.96,3.44-3.16-.18-4.85-1.52-6.84-1.85-2.75-3.11,.21-4.5,.82-1.39,.61-2.59,1.67-3.86,2.57-3.05,2.16-7.52,3.62-3.19,9.48-.59-.08-1.18-.16-1.77-.24-3.56-4.63-7.11-9.26-10.67-13.89,3.76,2.28,6.37,.99,9.33-1.18,5.99-4.41,12.2-8.53,18.41-12.63,3.09-2.04,6.52-3.72,4.95-8.74,5.83,7.51,11.66,15.02,17.65,22.72"/><path class="cls-1" d="M642.6,550.68c-1.44,.66-2.12-.17-2.9-.57-2.57-1.3-4.66-4.29-8.15-1.36-3.55,2.97-6.33,6.28-5.35,11.09,1.71,8.45,7.05,14.18,15.13,16.73,7.63,2.41,13.52-1.11,18.14-7.16,.6-.79,.91-2.09,2.37-1.75-1.04,11.68-17.35,20.18-29.08,15.17-14.39-6.14-17.53-21.97-6.52-33,1.1-1.09,2.26-2.13,3.47-3.09,7.6-5.99,8.94-5.58,12.89,3.94"/><path class="cls-1" d="M324.61,668.37c-8.28,5.37-22.81,1.58-28.36-6.64-5.5-8.15-3.03-20.68,5.23-26.58,6.9-4.93,21.98-5.1,28.94-.42,1.16,.78,1.4,1.49,.83,2.65-.35,.7-.58,1.46-1.02,2.09-1.12,1.6-1.17,4.96-3.11,4.65-2.27-.35-1.03-3.37-1.11-5.18-.09-2.01-.72-3.12-2.66-3.73-2.88-.91-5.78-1.34-8.7-.59-6.94,1.79-12,10.69-11.4,19.88,.47,7.33,5.35,12.39,13.08,13.37,2.42,.3,4.89,.3,8.28,.5"/><path class="cls-1" d="M734.33,427.05c-2.42,.9-4.18-.05-5.81-.47-2.05-.53-2.9,.02-4.05,1.71-2.5,3.69-2.05,5.57,2.36,7.3,6.61,2.58,12.91,5.95,19.36,8.95,3.77,1.75,7.61,4.94,11.18-1.23,.21,.41,.43,.81,.64,1.22-1.4,2.63-2.8,5.25-4.2,7.88-1.44,2.71-2.88,5.42-4.92,8.5,1.64-7.82-4.75-7.85-8.79-9.89-6.2-3.15-12.55-6.01-18.88-8.9-1.34-.62-3.19-2.41-4.11,.35-.74,2.27-4.51,4.25-.97,7.14,1.4,1.15,2.77,2.34,3.82,3.95-3.79,.67-6.56-1.34-9.57-2.41-1.4-.5-.55-1.5-.14-2.27,4.77-9.03,9.55-18.05,14.34-27.07,.42-.8,.91-1.79,2.06-.89,2.45,1.93,5.48,3.2,7.69,6.12"/><path class="cls-1" d="M225.3,637.26c-5.46,1.66-13.82-1.2-19.1-6.62-4.81-4.94-6.64-10.81-4.62-17.52,3.49-11.64,14.62-17.75,26.37-14.61,3.17,.85,6.11,2.21,8.91,3.93,8.4,5.18,8.34,7-.52,12.32-1.04-.52-.35-1.27-.3-1.97,.16-2.34,2.86-4.74,.56-6.94-2.88-2.75-6.51-4.3-10.63-3.81-7.58,.91-15.31,9.83-16.07,18.39-.62,7.02,3.43,12.1,11.91,15.1,1.18,.41,2.78,.21,3.49,1.74"/><path class="cls-1" d="M701.87,528.61c2.39-3.61,.41-5.18-2.16-6.84-6.63-4.29-13.18-8.7-19.63-13.25-2.95-2.08-5.65-4.25-9.77-1.87,3.26-4.28,6.52-8.56,9.78-12.85-1.15,5.26,2.99,6.56,5.93,8.58,6.39,4.37,12.91,8.55,19.22,13.03,2.45,1.74,3.51,1.15,5.45-.95,3.64-3.94,4.87-7.54,.96-11.87-.37-.42-.51-1.1-.63-1.68-.04-.22,.26-.52,.65-1.23,2.57,1.93,5.1,3.82,7.63,5.71,.89,.67,1.05,1.39,.32,2.33-5.47,7.04-10.92,14.1-16.38,21.14-.46-.08-.92-.17-1.38-.25"/><path class="cls-1" d="M195.96,20.76c-.53-.35-.68-.4-.78-.52-1.58-2.12-.18-6.06-3.68-6.88-4.29-1.02-8.64-.9-12.61,1.48-5.82,3.49-8.44,12.07-6.57,21.37,1.43,7.12,6.44,11.77,13.63,12.65,5.71,.7,6.77-.16,6.63-5.93-.09-3.43,1.65-7.76-3.79-9.41,4.15,0,8.3-.01,13.08-.02-5.91,2.63-3.57,7.56-3.5,11.49,.06,3.97-1.13,5.59-5,5.88-3.57,.27-7.13,.57-10.68,.11-10.49-1.37-16.87-8.44-17.04-18.71-.2-11.55,5.96-19.46,16.62-21.22,2.13-.36,4.36-.86,6.46-.61,10.05,1.19,10.46-1.18,7.24,10.32"/><path class="cls-1" d="M130.13,11.35c8.77-.01,17.53-.02,26.62-.03,.05,2.94-.73,5.66-1.43,8.44-.43-.09-.78-.06-.92-.21-1.42-1.63-.36-5.05-2.67-5.49-3.44-.65-7.09-.22-10.65-.21-1.58,0-1.53,1.19-1.53,2.29-.01,2.02,0,4.03,0,6.05,0,7.46,.35,7.48,7.75,6.94,3.19-.24,1.98-3.56,3.9-4.22,1.03,.58,.76,1.41,.77,2.12,.03,2.89,.02,5.79,.02,9.1-2.67-1.14-1.64-4.83-5.39-4.74-7.03,.18-7.04-.26-7.03,6.75,.01,9.66,.01,9.56,9.7,9.64,2.84,.02,4.68-.59,5.63-3.46,.4-1.18,.69-2.68,2.8-3.56-.13,2.85-.27,5.37-.34,7.9-.04,1.53-1.03,1.67-2.2,1.67-8.31,0-16.62,.02-25.3-.36,4.7-1.27,4.19-4.72,4.16-8.07-.09-7.75-.17-15.5,0-23.25,.07-3.21-.16-5.86-3.88-7.28"/><path class="cls-1" d="M319.31,20.03c-1.3-.72-1.35-2.09-1.53-3.18-.41-2.45-1.4-4-4.13-4.13-3.48-.17-6.99-.42-9.27,2.88-1.53,2.21-1.4,4.71-.14,7.06,1.08,2.02,3.01,3.09,4.96,4.06,2.78,1.38,5.65,2.56,8.37,4.05,3.51,1.93,5.6,4.93,5.42,9.07-.18,4.26-2.42,7.31-6.25,9.08-5.79,2.66-11.78,2.26-17.79,.88-1.16-.26-1.97-.88-1.72-2.28,.44-2.53,.87-5.06,1.31-7.62,1.89,.22,1.65,1.64,1.9,2.49,1.77,5.84,8.67,8.1,13.66,4.39,3.75-2.8,3.63-8.25-.56-11.01-2.82-1.87-6.06-3.08-9.09-4.64-5.71-2.95-8.03-6.69-7.32-11.7,.63-4.43,4.32-7.48,10.26-8.68,3.42-.7,6.77-.31,10.18-.09,3.43,.22,4.47,1.49,3.17,4.64-.63,1.51,.13,3.46-1.45,4.73"/><path class="cls-1" d="M665.62,39.41c1.07,.35,1.15,1.32,1.41,2.21,1.67,6.01,7.49,8.29,13.01,5.12,4.19-2.4,4.55-8.31,.37-11.24-2.75-1.93-6.01-3.15-9.04-4.69-5.79-2.94-8.32-6.74-7.67-11.51,.67-4.92,4.28-7.96,10.89-9.09,1.52-.26,3.07-.48,4.6-.45,9.39,.12,9.73,.61,7,9.74-1.31-.04-1.24-1.11-1.49-1.97-1.58-5.43-8.15-7.34-12.55-3.66-3.32,2.77-3.08,7.36,.6,10.43,2.66,2.22,5.99,3.2,9.03,4.7,6.1,3.02,8.23,6.14,7.69,11.37-.5,4.8-3.92,7.9-10.12,9.38-2.45,.58-4.9,.78-7.38,.6-8.63-.6-9.68-2.45-6.34-10.94"/><path class="cls-1" d="M726.05,418.49c1.95-5.23,3.91-10.46,5.87-15.69,.16,6.02,5.03,6.04,8.8,7.33,6.44,2.19,12.88,4.34,19.33,6.49q5.47,1.82,10.48-1.91c-2.31,6.08-4.28,11.33-6.26,16.56-.29-6.4-5.66-6.19-9.61-7.59-6.11-2.16-12.31-4.1-18.44-6.21-3.44-1.19-6.92-3.28-10.17,1.03"/><path class="cls-1" d="M39.84,312.93c-1.31-3.95-4.36-3.71-7.52-3.65-7.89,.15-15.79,.24-23.68,.17-3.59-.03-7.14-.41-8.62,4.31-.01-5.51-.02-11.02-.03-16.53,1.47,4.76,5.27,3.98,8.81,3.94,7.73-.1,15.48-.22,23.22-.11,3.49,.05,6.56-.04,7.79-4.41,.01,5.42,.02,10.86,.02,16.29"/><path class="cls-1" d="M512.45,618.5c5.37-2.14,10.74-4.29,16.12-6.43-4.15,3.8-1.46,7.16,.18,10.64,2.83,6.01,5.5,12.11,8.25,18.16q2.29,5.03,7.36,5.59c-2.8,2.11-12.03,5.89-17.21,6.8,5.2-3.17,3.07-6.38,1.51-9.69-2.83-6.02-5.4-12.16-8.3-18.14-1.55-3.21-1.81-8.36-8.71-5.13,.26-.6,.53-1.2,.8-1.8"/><path class="cls-1" d="M247.74,608.05c6.2,2.67,11.5,4.95,16.8,7.23-5.24-.56-6.28,3.18-7.83,6.48-3.17,6.72-6.39,13.41-9.77,20.04-1.42,2.79-2.19,5.19,1.3,7.28-6.1-.82-11.07-3.94-16.66-6.59,6.08,1.92,6.71-2.84,8.33-6.06,3.06-6.08,5.93-12.26,8.88-18.39q2.4-4.98-1.06-9.99"/><path class="cls-1" d="M727.28,20.14c-.69-.47-1.05-.58-1.17-.81-1.32-2.64-.35-6.78-5.17-7.09-5.52-.35-10.53,.31-14.19,5.04-4.24,5.46-4.97,15.86-1.31,22.05,3.98,6.76,10.27,8.46,17.6,7.57,2.11-.26,4.2-.68,6.56-1.08-4.96,5.83-17.03,6.43-24.45,1.34-7.42-5.1-9.24-12.54-7.94-20.89,1.28-8.18,7.42-14.22,15.62-15.84,3.81-.75,7.65-.58,11.55-.42,4.57,.18,5.15,2.13,4.01,5.81-.41,1.32-.69,2.67-1.11,4.33"/><path class="cls-1" d="M37.47,46.83c-5.64,5.12-12.18,5.53-18.99,3.69-6.85-1.86-11.28-6.43-12.98-13.3C1.77,22.1,11.83,10.21,27.88,10.59c.32,.02,.62,.02,.93,.04,9.1,.57,9.58,1.37,5.88,10.9-.3-.69-.43-1.1-.64-1.44-1.42-2.29-.21-6.3-4.41-6.78-4.92-.56-9.63-.36-13.51,3.32-5.2,4.95-6.74,14.66-3.44,22.15,2.87,6.5,8.71,9.79,16.7,9.19,2.72-.2,5.4-.75,8.09-1.14"/><path class="cls-1" d="M632.13,45.98c-6.13,5.34-13.15,5.83-20.3,3.29-6.82-2.42-10.91-7.57-11.86-14.8-2.06-15.56,8.65-26.13,24.7-24.53,7.96,.79,8.65,2.19,4.89,10.06-.22-.17-.51-.29-.64-.51-1.45-2.43-.24-6.59-4.74-7.04-5.48-.55-10.55,0-14.39,4.57-4.55,5.42-5.37,15.29-1.82,22.01,3.22,6.1,9.17,8.89,17.37,8.03,2.27-.24,4.52-.72,6.79-1.09"/><path class="cls-1" d="M436.35,49.63c4.11-1.28,3.51-4.53,3.5-7.55-.04-8.05-.11-16.11,0-24.17,.03-2.94-.06-5.56-3.66-7.11,3.69,0,7.38-.01,11.07-.02,2.79,0,5.57-.02,8.36-.04q8.72-.04,5.35,8.55c-.67,.32-.65-.34-.87-.64-1.16-1.57-.13-4.73-2.53-5.04-3.64-.49-7.41-.19-11.11-.03-1.22,.05-1.05,1.33-1.06,2.22-.02,2.32-.01,4.65,0,6.97,.01,6.62,1.85,7.9,8.55,6.54,2.65-.53,1.76-3.34,3.42-4.46,1.14,3.4,1.19,6.67,.15,11.09-1.82-1.09-1.21-4.02-4.11-4.39-7.04-.89-8.01-.32-8,6.74,0,.93,.05,1.86,0,2.78-.21,3.57-.51,7.16,4.16,8.53-4.41,0-8.82,.01-13.23,.02"/><path class="cls-1" d="M94.46,11.31c4.33,0,8.66-.01,14.48-.02-6.34,2.32-4.96,6.68-4.98,10.51-.04,7.6,.1,15.21-.01,22.8-.03,2.43,.76,3.27,3.21,3.18,5.97-.23,13.07,2.06,14.37-8.01,1.49,3.57,.4,6.37,.45,9.13,.03,1.62-1.29,1.44-2.35,1.44-8.36,.02-16.72,.03-25.66-.33,5.82-1.62,4.38-6,4.4-9.74,.04-6.98-.16-13.97,.05-20.94,.1-3.45-.09-6.38-3.96-8.04"/><path class="cls-1" d="M654.5,49.39c-4.36,0-8.74,.01-13.11,.02,4.48-1.54,3.62-5.27,3.6-8.65-.03-7.59-.11-15.17,0-22.76,.04-3.06,.12-5.9-3.71-7.13,4.39,0,8.76-.01,13.14-.02-4.6,1.34-3.95,5-3.91,8.48,.09,7.28,.06,14.56,.05,21.84,0,3.33-.71,6.96,3.93,8.23"/><path class="cls-1" d="M223.14,49.95c-4.34,0-8.69,.01-13.02,.02,4.23-1.41,3.96-4.74,3.89-8.16-.12-7.76-.07-15.53-.05-23.3,0-3.04,.51-6.32-4.04-7.01,4.4,0,8.79-.01,13.18-.02-4.42,1.27-3.56,4.89-3.57,8.13,0,7.46,0,14.91,.04,22.36,.02,3.1-1.14,6.79,3.57,7.98"/><path class="cls-1" d="M63.93,411.37c7.02-.89,9.27,.96,8.55,7.29-.41,3.57,2.52,4.05,4.29,5.77-4.89,1.64-9.57-.72-8.95-4.81,.61-3.95-.25-6.47-3.89-8.25"/><path class="cls-1" d="M339.31,7.02c1.27-5.78,4.11-7.35,8.6-5.06,2.33,1.18,4.43,2.32,6.52-.28,.42-.52,1.01-.68,1.6-.18,.67,.56,.15,1.05-.09,1.58-1.55,3.48-5.08,5.14-8.28,3.29-3.07-1.78-5.63-2.04-8.36,.64"/><path class="cls-1" d="M139.1,8.37c1.5-3.66,4.04-5.98,7.04-7.75,1.81-1.06,3.83-.81,4.73,1.16,.86,1.89-1.02,2.64-2.42,3.19-3.09,1.21-6.24,2.28-9.36,3.41"/><path class="cls-1" d="M147.69,591.78c.42-.42,.84-.84,1.26-1.27,.81,.67,2.02,1.58,1.03,2.51-1.14,1.07-1.7-.44-2.29-1.24"/><path class="cls-1" d="M568.32,618.91c.78,.99,1.19,2.2,.36,3.16-.42,.48-1.29-.24-1.62-.97,1-.4,.92-1.4,1.25-2.18"/><path class="cls-1" d="M32.85,366.24c.96-.7,2.09-1.58,3.01-.36,.28,.36-1.1,1.17-1.99,1.39-.34-.35-.68-.7-1.02-1.03"/><path class="cls-1" d="M39.67,318.4c-.04,5.85-3.98,4.88-7.14,5.15-7.73,.66-15.48,1.19-23.18,2.08-3.62,.42-7.05,1.3-9.25-3.22l1.47,15.52c.35,.33,.71,.65,1.06,.98,.41-5.48,4.11-4.73,7.19-5.08,2.31-.26,4.64-.4,6.96-.53,1-.06,2.27-.88,2.91,.44,.71,1.45-.48,2.28-1.51,2.99-3.56,2.48-7.2,4.85-10.72,7.39-5.83,4.2-6.76,8.95-2.9,16.01,1.04-5.03,4.79-7.3,8.3-9.79,2.16-1.52,4.48-2.86,6.4-4.63,2.2-2.03,3.19-1.62,4.8,.81,2.85,4.27,7.13,5.49,11.83,4.16,4.88-1.39,6.33-5.12,6.51-9.61,.29-7.46-1.34-14.74-2.74-22.67m-6.03,23.63c-6.18,1.12-9.83-.79-10.82-5.65-.45-2.2-.45-3.87,2.64-3.86,2.6,.01,5.2-.52,7.97-.83,1.84,.98,5.37-2.32,5.96,2.43,.55,4.4-1.39,7.12-5.76,7.92"/><path class="cls-1" d="M136.74,528.77c-4.33-5.9-10.08-10.49-14.9-15.93-.25-.28-.81-.48-1.3,.44,2.39,3.24,.19,5.13-2.41,7.19-5.71,4.52-11.22,9.29-16.83,13.93-2.95,2.43-5.52,6.34-10.45,3.08,3.73,3.96,7.47,7.92,11.21,11.88-1.29-3.83,.96-5.5,3.22-7.25,2.09-1.6,4.02-3.42,6.11-5.01,.85-.64,1.55-2.35,3.02-1.13,1.17,.97,.58,2.24,.17,3.43-1.15,3.36-2.31,6.72-3.41,10.1-2.59,7.94-1.21,11.33,7.57,16.56-2.47-4.7-1.44-8.22-.22-11.77,.9-2.63,1.83-5.27,2.45-7.97,.67-2.98,1.59-3.89,4.89-2.51,4.48,1.87,9.53,.08,12.07-3.5,2.94-4.13,1.41-7.98-1.2-11.54m-4.23,2.68c-.72,3.12-5.71,6.97-9.53,7.1-2.52-.1-4.57-1.89-6.39-4.07-1.12-1.35,.21-1.9,.95-2.54,2.33-2.01,4.62-4.09,7.11-5.89,1.28-.93,2.3-3.57,4.52-1.71,2.13,1.8,4.09,3.91,3.34,7.11"/><path class="cls-1" d="M63.95,420.4c-.83-1.8-2.49-1.48-4.01-1.6-14.02-1.19-28.35,2.34-42.29-2.44,1.56,3.48,3.16,7.02,5.07,11.26,1.19-4.98,5.21-6.75,10.32-5.39,1.45,.4,6.07,9.53,5.12,10.63-1.49,1.74-3.65,2.92-5.13,4.66-2.64,3.09-3.99-1.31-6.59-1.06,2.43,5.49,4.69,10.58,6.95,15.7l1.72,.07c-1.98-4.66,1.06-6.57,3.7-8.79,7.7-6.49,15.38-13,22.99-19.57,.99-.87,3.17-1.26,2.15-3.47m-16.78,5.25q-6.87,5.67-9.1-3.41c1.26-.06,2.49-.17,3.72-.18,2.78-.04,5.56-.02,8.76-.02-.76,2.03-2.24,2.68-3.37,3.62"/><path class="cls-1" d="M496.85,41.7c-1.75-2.74-3.31-5.61-5.17-8.28-1.34-1.91-1.41-2.77,1.02-3.95,5.33-2.6,7.18-6.68,5.97-11.7-1.04-4.33-4.44-6.86-10.23-7.05-5.88-.2-11.76-.04-17.63-.03,4.12,1.63,3.69,4.84,3.68,7.92-.04,7.6-.03,15.2,.03,22.79,.03,3.32,.58,6.79-4.99,8.02,5.62,0,9.88-.01,14.89-.02q-4.28-2.33-4.34-6.39c-.03-2.17-.18-4.36,.04-6.51,.17-1.66-1.24-4.14,1.29-4.81,2.5-.67,3.84,1.36,4.98,3.32,2.19,3.74,4.32,7.53,6.74,11.12,2.91,4.33,6.35,5.16,12.2,2.88-4.62-.92-6.49-4.2-8.5-7.32m-14.77-12.24c-1.6-.27-2.06-.97-2.04-2.42,.04-2.01,0-4.02,0-6.02,0-.62-.15-1.28,.02-1.85,.65-2.16-1.93-5.6,2.48-6.27,4.81-.73,8.94,1.51,9.99,5.47,1.83,6.94-3.28,12.3-10.44,11.09"/><path class="cls-1" d="M363.07,668.73c-2.14-9.18-4.51-18.31-6.92-27.43-.35-1.31,.07-3.34-2.18-3.61-2.22-.27-2.87,1.48-3.72,2.91-4.66,7.85-9.33,15.7-13.92,23.59-2.23,3.83-3.97,8.09-9.13,9.51,4.2,.41,8.4,.81,13.39,1.29-1.6-2.26-4.95-2.37-3.25-4.87,1.67-2.46,1.51-7.12,5.74-6.79,3.55,.27,8.4-1.23,10.34,2.78,1.48,3.04,4.12,7.73-3.62,9.94,7.4,.81,13.2,1.44,19,2.08,.16-.35,.32-.7,.47-1.05-4.43-1.19-5.33-4.6-6.2-8.32m-19.95-8.63c1.39-3.91,3.63-7.28,6.29-11.71,.49,2.22,.7,3.25,.94,4.26q2.14,8.79-7.24,7.46"/><path class="cls-1" d="M745.66,469.19l-.78-1.27c-3.1,3.95-6.7,2.78-10.38,2.01-10.01-2.11-20.06-4.08-30.09-6.07-1.4-.28-2.99-1.47-4.11,.53-1.02,1.8,.39,2.92,1.27,4.09,5.7,7.57,11.45,15.09,17.12,22.67,2.43,3.25,5.92,6.16,4.2,11.27,2.75-3.45,5.51-6.59,7.59-11.53-2.75,1.48-4.82,4.22-6.59,.89-1.29-2.45-6.02-4-3.24-7.52,2.15-2.73,1.98-8.58,7.95-7.2,3.4,.79,8.3-.26,7.67,6.16,3.12-4.67,6.24-9.35,9.36-14.03m-28.41,14.39c-3.03-3.83-5.57-7.03-8.59-10.86,4.95,1.08,9.1,1.99,13.82,3.02-1.79,2.7-3.32,4.97-5.23,7.84"/><path class="cls-1" d="M636,593.81q-6.87,.68-12.37-2.65c-8.36-5.06-16.7-10.14-25.1-15.13-1.17-.7-2.18-2.43-4.03-1.06-1.98,1.45-.78,3.08-.35,4.61,2.41,8.66,4.94,17.27,7.26,25.96,1.1,4.08,3.66,8.24,.4,12.78,3.36-2.36,6.71-4.74,10.07-7.11l.74-1.9c-5.89,3.49-5.97-.37-7.38-3.38-2.6-5.57,2.45-6.24,4.85-8.78,3.92-4.15,6.47-.08,9.59,1.22,3.67,1.53,1.01,3.88,.43,6.92,5.57-4.01,10.27-7.41,15.91-11.47m-27.16,.67c-1.93,1.2-3.44,3.06-5.88,3.63-1.24-3.8-2.47-7.54-4.15-12.67,4.06,2.54,7.1,4.5,10.19,6.37,1.74,1.06,1.05,1.9-.16,2.66"/><path class="cls-1" d="M757.08,9.4c-12.9,.02-20.98,8.02-21.01,20.84-.04,12.58,7.39,20.2,19.72,20.22,13.04,.03,21.17-8.07,21.23-21.14,.05-12.53-7.36-19.95-19.94-19.93m13.21,27.36c-1.29,7.34-5.37,11.05-12.43,11.51-6.96,.45-12.24-3.21-14.35-10.01-1.56-4.99-1.5-10.13-.67-15.18,1.24-7.55,5.26-10.99,12.46-11.28,7.81-.33,12.3,2.89,14.52,10.2,.83,2.73,.75,5.5,.95,8.68-.13,1.76-.1,3.96-.48,6.08"/><path class="cls-1" d="M253.46,10.07c-12.85,.1-20.72,8.16-20.67,21.12,.05,12.58,7.48,19.99,19.95,19.94,12.9-.05,21.02-8.34,20.99-21.42-.02-12.37-7.63-19.75-20.26-19.64m13.35,27.76c-1.48,7.47-5.58,10.89-12.7,11.13-6.86,.23-11.73-3.33-13.94-9.97-.95-2.86-.97-5.78-1.14-9.13,.09-1.44,.11-3.3,.33-5.15,.88-7.51,4.79-11.57,11.65-12.16,8.28-.7,13.3,2.56,15.44,10.11,1.42,5.02,1.37,10.14,.37,15.17"/><path class="cls-1" d="M453.5,664.95c-4.45-8.34-9.05-16.6-13.69-24.85-.75-1.35-.88-3.52-3.31-3.27-2.33,.24-2.25,2.2-2.7,3.78-2.22,7.74-4.29,15.53-6.71,23.21-1.53,4.9-1.37,10.77-7.22,13.7,4.42-.7,8.73-.12,14.22-2.23-6.01-.36-5.24-3-4.78-6.43,.75-5.65,4.98-4.61,8.44-5.63,5.32-1.57,6.28,2.48,8.38,5.64,2.34,3.54-1.63,3.67-3.29,6.04,6.81-.83,12.69-1.55,18.57-2.27,.1-.37,.2-.74,.3-1.12-4.65-.01-6.41-3.2-8.22-6.59m-21.87-3.69c.94-4.43,1.65-8.38,3.44-12.58,2.16,3.98,4.37,7.25,5.71,11.35-3.1,.42-5.92,.8-9.15,1.23"/><path class="cls-1" d="M786.95,327.38c-1.55,4.87-5.7,5.23-9.55,6.13-9.35,2.18-18.71,4.33-28.06,6.55-1.66,.39-4.15-.13-4.33,2.44-.18,2.43,2.32,2.61,3.86,3.41,8.25,4.28,16.54,8.5,24.82,12.71,3.86,1.96,8.34,3.19,9.15,9.51,1.65-5.91,1.98-9.94,1.33-12.99-2.54,2.83-8.24,2.36-11.26-.91-1.01-1.09-.09-10.49,1.12-11.51,3.07-2.58,9.38-1.67,12.03,2.36,.66-6.09,1.25-11.56,1.84-17.03-.32-.22-.65-.45-.97-.67m-17.18,21.53c-.34,2.75-1.07,3.97-3.89,2.18-2.64-1.68-5.88-2.35-8.77-4.8,3.01-.66,5.49-1.19,7.97-1.74,5.31-1.19,5.37-1.06,4.69,4.37"/><path class="cls-1" d="M163.02,552.58c-1.5-1.7-3.11-.58-4.64,.08-8.95,3.86-17.88,7.75-26.84,11.59-3.98,1.71-7.83,4.52-12.61,1.23-.1,.41-.2,.81-.3,1.21,3.18,2.73,6.35,5.44,9.77,8.37,.87-2.4-2.75-4.29,.25-5.41,3.05-1.13,5.89-5.46,9.41-2.33,2.54,2.25,7.87,3.23,6.27,8.31-1.06,3.35-1.59,8.39-7.87,6.6,3.74,3.18,7.49,6.36,11.23,9.54,1.05,.2,1.47-.23,1.26-1.27-.89-2.25,.03-4.24,.93-6.23,4.14-9.16,8.33-18.3,12.4-27.5,.56-1.27,2.17-2.58,.74-4.19m-16.43,17.96c-2.31-1.99-4.38-3.77-7.1-6.1,4.37-2.03,7.95-3.69,12.16-5.64-1.01,4.59-3.06,7.94-5.06,11.73"/><path class="cls-1" d="M65.42,10.31c-13.18-.12-21.39,7.89-21.44,20.9-.05,12.51,7.44,20.15,19.81,20.16,13.12,.02,21.01-7.92,21.07-21.18,.05-12.45-7.11-19.77-19.44-19.88m12.78,27.06c-1.15,7.43-5.04,11.22-12.11,11.8-7.01,.58-12.4-2.95-14.55-9.73-1.88-5.92-1.86-11.94-.2-17.87,1.42-5.08,4.74-8.21,10.23-8.71,5.87-.52,11.19,.28,14.5,5.95,2.26,3.88,2.58,8.21,2.82,12.95-.2,1.61-.4,3.62-.7,5.6"/><path class="cls-1" d="M392.71,9.88c-13.25-.18-21.45,7.64-21.67,20.68-.21,12.49,7.32,20.32,19.59,20.39,13.2,.06,21.17-7.77,21.3-20.96,.12-12.51-6.97-19.93-19.22-20.1m12.2,29.06c-1.48,6.05-5.21,9.13-11.47,9.78-6.1,.63-11.34-2.07-13.87-7.28-1.79-3.69-2.34-7.67-2.49-11.77,.29-2.14,.47-4.31,.89-6.42,1.56-7.62,5.28-10.8,12.68-10.98,7.67-.19,12.54,3.33,14.31,10.55,1.32,5.36,1.26,10.78-.05,16.12"/><path class="cls-1" d="M360.66,42.67c-3.45-9.61-6.98-19.19-10.57-28.75-.48-1.28-.35-3.29-2.58-3.32-2.08-.02-2.33,1.72-2.91,3.09-3.75,8.84-7.49,17.67-11.2,26.51-1.56,3.72-2.54,7.84-6.93,9.45,3.78,0,7.56-.02,11.68-.02-1.29-1.75-4.97-1.41-3.1-4.49,1.94-3.19,.84-9.15,5.9-9.24,4.02-.07,9.75-3.39,12.22,2.5,1.43,3.4,5.94,7.66-1.21,11.6,5.05,0,9.04,0,13.04-.02,.53,0,1.06-.07,1.6-.11-3.58-1.44-4.84-4.18-5.94-7.21m-12.36-9.53c-2.61-.18-5.24-.03-8-.03,.05-2.93,1.59-5.15,2.45-7.57,.81-2.31,1.82-4.54,3.17-7.85,1.7,4.71,2.94,8.53,4.43,12.24,.92,2.29,.86,3.41-2.05,3.21"/><path class="cls-1" d="M532.33,49.57c5.31-.01,9.71-.02,14.1-.02-3.63-1.58-4.82-4.66-5.99-7.9-3.25-9.04-6.57-18.04-9.97-27.02-.6-1.58-.4-4.06-2.87-4.2-2.52-.14-2.58,2.29-3.26,3.89-3.73,8.69-7.41,17.38-11.06,26.1-1.5,3.6-2.57,7.5-6.82,8.97,3.77,0,7.54-.01,12.06-.01-2.12-1.58-5.18-1.89-3.32-4.7,2.04-3.1,.68-9.2,6.09-9.03,4.04,.13,9.84-3.44,12.09,2.8,1.2,3.31,5.81,7.41-1.05,11.13m-3.29-16.69c-2.88-.05-5.77,0-9.2,0,2.06-5.22,3.91-9.9,6.09-15.41,1.81,4.93,3.33,9.08,4.85,13.22,.61,1.66-.1,2.22-1.73,2.19"/></g><path class="cls-1" d="M1144.65,47.34c0,12.43-.1,24.86,.06,37.29,.05,3.22-.71,4.29-4.17,4.45-54.85,2.49-98.92,41.58-107.75,95.38-10.2,62.05,33.95,121.31,96.62,129.68,66.13,8.83,125.21-40.29,128.17-106.73,.18-4.08,1.02-5.52,5.47-5.48,24.31,.25,48.62,.2,72.93,.04,3.89-.04,5.22,.63,5.15,4.97-1.65,91.9-70.13,172.29-160.56,188.24-107.21,18.92-206.41-48.41-228.71-155.24-21.4-102.58,47.04-207.58,149.74-229.65,12.69-2.73,25.53-4.42,38.54-4.67,3.49-.06,4.67,.74,4.61,4.43-.24,12.43-.1,24.85-.1,37.29"/><path class="cls-1" d="M1536.19,208.68v5.5c-5.77,91.51-74.28,167.36-164.29,181.77-9.2,1.47-18.46,2.43-27.81,2.52-3,.03-4.16-.69-4.15-3.93,.12-25.04,.12-50.08,0-75.13-.02-3.44,1.28-4.19,4.47-4.35,56.09-2.99,98.9-41.61,107.92-97.21,9.24-57.01-31.49-115.29-88.45-126.55-64.79-12.81-124.08,27.84-135.62,93.07-.79,4.48-1.29,9.08-1.27,13.62,.02,3.56-1.33,4.14-4.5,4.13-24.86-.12-49.72-.16-74.58,.03-3.93,.03-4.36-1.51-4.31-4.82,1.57-92.03,70.3-172.4,161.26-188.47,105.4-18.61,204.4,47.66,227.46,152.33,2.08,9.45,3.35,19.05,3.88,28.74v18.76Z"/><path class="cls-1" d="M1459.43,471.95c28.44,.11,53.04,8.22,72.84,28.63,2.72,2.8,3.05,4.39,.13,7.37-9.05,9.28-17.86,18.82-26.51,28.48-2.72,3.05-4.3,3.6-7.44,.3-8.5-8.91-18.61-15.05-31.12-16.94-19.93-3-37.38,4.65-47.37,22.13-10.96,19.13-11.42,39.06-1.31,58.61,12.22,23.6,41.46,31.72,66.29,19.02,6.23-3.18,11.79-7.33,16.84-12.11,2.14-2.04,3.37-2.36,5.6-.02,8.7,9.11,17.59,18.06,26.54,26.93,2.08,2.06,2.47,3.3,.23,5.66-30.02,31.73-66.81,39.7-107.28,27.38-39.67-12.08-62.36-40.95-68.14-81.75-7.75-54.72,27.78-102.51,82.24-112.26,6.28-1.13,12.67-1.75,18.46-1.44"/><path class="cls-1" d="M1049.64,471.94c28.74,.17,53.36,8.19,73.11,28.69,2.68,2.78,3.07,4.32,.16,7.3-9.31,9.55-18.39,19.33-27.26,29.29-2.65,2.98-3.94,2.19-6.24-.15-8.63-8.74-18.52-15.24-31.03-17.16-22.23-3.42-40.63,5.97-50.27,26.3-8.04,16.96-8.18,34.31-.54,51.38,11.58,25.81,42.14,35.36,68.27,21.73,6.2-3.24,11.7-7.46,16.79-12.19,1.85-1.71,3.02-1.87,4.9,.05,9.03,9.31,18.09,18.61,27.4,27.63,2.81,2.71,.89,3.91-.71,5.59-15.37,16.28-33.64,27.27-56.06,30.59-29.83,4.41-57.45-.76-81.76-19.42-31.41-24.1-45.23-66.54-34.76-106.12,10.09-38.19,41.93-66.68,80.93-72.27,5.95-.85,11.95-1.6,17.07-1.24"/><path class="cls-1" d="M1321.98,514.9c-25.18-35.84-72.15-51.7-117-38.49-37.23,10.96-61.85,35.57-70.8,73.53-8.67,36.78,.98,69.37,28.83,95.26,24.03,22.33,53.28,29.6,85.64,26.4,51.1-5.04,90.87-48.37,91.05-108.37-.05-12.09-5.7-31.22-17.71-48.33m-70.97,108.24c-37.49,10.65-68.84-18.65-65.47-56.12,2-22.15,12.46-39,34.74-45.74,33.72-10.19,65.52,14.78,65.55,50.91,.03,24.37-13.84,44.99-34.81,50.95"/></g></svg>