<?xml version="1.0" encoding="UTF-8"?>
<!DOCTYPE svg PUBLIC "-//W3C//DTD SVG 1.1//EN" "http://www.w3.org/Graphics/SVG/1.1/DTD/svg11.dtd">
<!-- Creator: CorelDRAW X7 -->
<svg xmlns="http://www.w3.org/2000/svg" xml:space="preserve" width="107.407mm" height="106.675mm" version="1.1" style="shape-rendering:geometricPrecision; text-rendering:geometricPrecision; image-rendering:optimizeQuality; fill-rule:evenodd; clip-rule:evenodd"
viewBox="0 0 2361 2345"
 xmlns:xlink="http://www.w3.org/1999/xlink">
 <defs>
  <style type="text/css">
   <![CDATA[
    .fil0 {fill:white}
   ]]>
  </style>
 </defs>
 <g id="Camada_x0020_1">
  <metadata id="CorelCorpID_0Corel-Layer"/>
  <g id="_2424509786160">
   <path class="fil0" d="M378 1541l0 -738c0,-65 16,-127 37,-173 12,-27 22,-44 37,-67 73,-109 212,-185 345,-185l768 0c62,0 124,19 170,39 141,60 248,217 248,386l0 744c0,231 -198,419 -442,419l-715 0c-248,0 -448,-181 -448,-425zm-378 -715l0 680c0,173 82,373 182,493 72,89 141,156 239,215 171,102 330,130 550,130 170,0 469,7 629,-11 72,-8 121,-25 182,-45 121,-40 253,-129 342,-222 131,-135 237,-362 237,-560l0 -668c0,-274 -167,-540 -392,-690 -150,-101 -320,-148 -503,-148l-582 0c-221,0 -464,93 -612,243 -149,151 -272,358 -272,583z"/>
   <path class="fil0" d="M739 1186c0,-489 640,-605 841,-201 59,119 56,254 0,374 -120,258 -504,327 -706,123 -78,-79 -135,-173 -135,-296zm901 -343c-99,0 -137,-168 12,-168 95,0 98,168 -12,168zm-1140 41l0 570c0,165 71,284 202,351 37,19 94,39 147,39l663 0c72,0 146,-32 198,-70 43,-31 60,-49 88,-92 44,-64 63,-128 63,-216l0 -576c0,-259 -171,-396 -413,-396l-547 0c-127,0 -225,42 -289,106 -68,69 -112,150 -112,284z"/>
   <path class="fil0" d="M861 1175c0,167 149,308 320,308 282,0 423,-337 231,-528 -125,-125 -332,-126 -460,-3 -48,47 -91,130 -91,223z"/>
  </g>
 </g>
</svg>
