<?xml version="1.0" encoding="UTF-8"?>
<!DOCTYPE svg PUBLIC "-//W3C//DTD SVG 1.1//EN" "http://www.w3.org/Graphics/SVG/1.1/DTD/svg11.dtd">
<!-- Creator: CorelDRAW X7 -->
<svg xmlns="http://www.w3.org/2000/svg" xml:space="preserve" width="22.3471mm" height="9.3989mm" version="1.1" style="shape-rendering:geometricPrecision; text-rendering:geometricPrecision; image-rendering:optimizeQuality; fill-rule:evenodd; clip-rule:evenodd"
viewBox="0 0 349 147"
 xmlns:xlink="http://www.w3.org/1999/xlink">
 <defs>
  <style type="text/css">
   <![CDATA[
    .fil2 {fill:#000066}
    .fil3 {fill:#000066;fill-rule:nonzero}
    .fil0 {fill:#006633;fill-rule:nonzero}
    .fil1 {fill:#33CC33;fill-rule:nonzero}
   ]]>
  </style>
 </defs>
 <g id="Camada_x0020_1">
  <metadata id="CorelCorpID_0Corel-Layer"/>
  <path class="fil0" d="M289 45c0,13 -11,24 -24,24 -14,0 -24,-11 -24,-24 0,-13 10,-24 24,-24l0 -18c-23,0 -42,19 -42,42 0,23 19,42 42,42 23,0 42,-19 42,-42l-18 0z"/>
  <path class="fil1" d="M307 21c13,0 24,11 24,24 0,13 -11,24 -24,24l0 18c23,0 42,-19 42,-42 0,-23 -19,-42 -42,-42 -23,0 -42,19 -42,42l18 0c0,-13 10,-24 24,-24z"/>
  <path class="fil0" d="M284 103c-12,0 -22,10 -22,22 0,11 9,21 22,21 13,0 23,-10 23,-22 0,-12 -10,-21 -23,-21zm0 33c-6,0 -10,-6 -10,-12 0,-6 4,-11 10,-11 7,0 11,5 11,11 0,6 -4,12 -11,12z"/>
  <path class="fil0" d="M342 131c-3,3 -5,5 -9,5 -7,0 -11,-5 -11,-12 0,-6 4,-11 10,-11 4,0 7,2 10,5l7 -8c-4,-4 -9,-7 -17,-7 -12,0 -21,10 -21,21 0,12 9,22 21,22 8,0 13,-3 17,-8l-7 -7z"/>
  <path class="fil0" d="M254 131c-3,3 -5,5 -9,5 -7,0 -11,-5 -11,-12 0,-6 4,-11 10,-11 4,0 7,2 10,5l7 -8c-4,-4 -9,-7 -17,-7 -12,0 -21,10 -21,21 0,12 9,22 21,22 8,0 13,-3 17,-8l-7 -7z"/>
  <g id="_2412800463360">
   <path class="fil2" d="M82 25l0 23 -8 0c0,-5 0,-10 -1,-13 -2,-7 -6,-4 -7,1 -1,8 8,20 13,31 4,10 6,18 3,28 -3,12 -13,16 -19,8l-1 3 -6 0 0 -27 8 0c-1,14 1,23 7,21 6,-8 -1,-20 -8,-32 -7,-11 -12,-37 2,-43 1,-1 4,-1 6,-1 2,1 4,3 5,5l1 -4 5 0z"/>
   <path class="fil2" d="M51 25l0 27 -8 0c0,-6 0,-12 -1,-17 0,-4 -3,-5 -5,-3 -1,1 -2,2 -2,4 0,15 -2,42 0,57 0,2 1,4 1,5 1,1 2,2 4,2 2,-1 5,-3 6,-22l0 -1 4 0 0 1c0,9 -2,30 -14,29 -8,-1 -14,-14 -14,-31 -1,-11 0,-23 1,-34 1,-8 4,-14 10,-17 2,-1 4,-1 6,-1 2,1 4,3 6,5l1 -4 5 0z"/>
   <polygon class="fil2" points="93,37 93,28 86,27 86,22 148,22 141,33 100,29 99,46 "/>
   <path class="fil2" d="M89 38c-1,0 -2,-1 -2,-3 -1,-2 -3,-2 -2,1 0,2 2,4 4,6 2,1 3,3 4,5 1,2 7,12 11,17 3,3 2,6 3,10l-3 21c-2,8 -4,15 -8,20 -2,1 -1,3 0,3 6,0 9,2 16,-3 3,-3 6,-3 10,-2 5,2 7,-3 4,-7 0,-1 -1,-2 -2,-4 -3,-6 -6,-15 -8,-32 3,1 10,2 15,1 4,0 6,-2 5,-6 -1,-3 -1,-6 -1,-10 3,-1 6,-3 6,-9 0,-1 -1,-1 -1,0 -1,2 -2,4 -4,4 -1,-1 1,-4 -2,-2 -7,8 -16,10 -26,7 -7,-3 -13,-8 -15,-15l-1 -4c-2,-3 -3,0 -3,2z"/>
   <path class="fil2" d="M108 41c5,0 5,11 0,11 -5,0 -5,-11 0,-11z"/>
   <path class="fil3" d="M2 67c0,0 0,0 -1,0 0,0 0,0 0,0 0,0 0,0 0,0l-1 1 0 0c0,-1 0,-1 0,-2 0,-1 0,-1 0,-2l0 0 1 1c0,0 0,0 0,0 0,0 0,0 0,0 1,0 1,0 1,0l5 0c0,0 0,0 1,0 0,0 0,0 0,0 0,0 0,0 0,0l1 -1 0 0c0,1 0,1 0,2 0,1 0,1 0,2l0 0 -1 -1c0,0 0,0 0,0 0,0 0,0 0,0 -1,0 -1,0 -1,0l-5 0zm0 5c0,0 0,0 0,0 -1,0 -1,0 -1,0 0,0 0,0 0,0l0 1 -1 0c0,0 0,-1 0,-2 0,0 0,-1 0,-1l0 0 1 0c0,0 0,0 0,0 0,0 0,0 0,0 1,0 1,0 1,0l5 0c0,0 1,0 1,0 0,0 0,0 0,0 0,0 0,0 0,0l1 -1 0 0c0,0 0,1 0,2 0,0 0,0 0,0 0,0 0,0 0,1 0,0 0,0 0,0 0,0 0,1 0,1 0,1 0,1 0,2 0,0 -1,1 -2,1 0,0 -1,0 -1,0 -1,-1 -1,-1 -1,-2 -1,1 -1,1 -1,1 -1,0 -1,1 -1,1 0,0 -1,0 -1,0 0,0 0,1 0,1 -1,0 -1,0 -1,0 0,0 0,0 0,0 0,0 0,0 0,0 0,1 0,1 0,1l0 0c0,-1 0,-1 0,-2 0,0 0,0 0,0 0,-1 0,-1 0,-1 0,0 0,0 0,0 1,-1 1,-1 1,-1 0,0 1,0 1,-1 0,0 1,0 1,0 0,0 0,0 0,0 0,0 0,0 0,-1 0,0 0,0 0,0 0,0 0,0 0,0l0 0 -2 0zm3 0c0,0 0,0 0,0 0,1 0,1 1,2 0,0 0,0 1,0 1,0 1,0 1,-1 1,0 1,0 1,-1 0,0 0,0 0,0 0,0 0,0 0,0l-4 0zm6 12c0,1 1,1 1,2 0,0 0,1 0,1l0 0 -1 -1c0,0 0,0 0,0 0,0 -1,0 -1,1l-5 1c0,0 -1,0 -1,0 0,0 0,0 0,0l0 1 -1 0c0,-1 0,-1 0,-2 0,-1 0,-1 0,-1l0 -1 0 1c0,0 0,0 1,0 0,0 0,0 1,0l4 -1c0,0 0,0 1,0 -1,0 -1,0 -1,0l-7 -1 0 -1 5 -3c0,-1 1,-1 1,-1 0,0 -1,0 -1,0l-4 1c0,0 -1,0 -1,0 0,0 0,0 0,0l0 1 0 0c-1,0 -1,-1 -1,-1 0,0 0,-1 0,-1l0 0 1 0c0,0 0,1 0,1 0,-1 1,-1 1,-1l5 -1c0,0 1,0 1,0 0,0 0,0 0,0l0 -1 0 0c1,0 1,1 1,1 0,1 0,1 0,2l-5 3c0,0 0,0 0,0 0,0 0,0 0,0l6 1zm-4 7l-1 0c0,0 0,0 0,0 -1,0 -1,0 -1,0 0,0 0,0 0,0 0,0 0,1 0,1l0 0 0 0c0,0 0,-1 -1,-1 0,0 0,-1 0,-1l0 0 1 0c0,0 0,0 0,0 0,0 0,0 0,0l9 1 0 0 -6 5c0,0 0,1 0,1 0,0 -1,0 0,0l0 1 -1 0c0,-1 0,-1 0,-2 -1,0 -1,-1 -1,-2l0 0 0 1c1,0 1,0 1,0 0,0 0,0 0,0 0,0 0,0 0,0 0,0 0,-1 1,-1l0 -1 -1 -2zm4 0c0,0 0,0 0,0l-3 0 1 2 2 -1c0,-1 0,-1 0,-1zm6 1c-1,0 -2,0 -2,-1 0,0 0,0 0,0 0,0 0,-1 0,-1 0,0 0,0 0,0 0,0 0,0 0,0 0,0 0,0 0,0 0,0 0,0 0,0 0,-1 0,-1 0,-1 -1,0 -1,0 -1,0l0 0c1,0 1,0 1,0 0,0 1,0 1,0 0,1 0,1 0,1 0,0 0,0 0,0 0,0 0,0 0,1 0,0 0,0 0,0 0,0 0,0 0,0 0,0 0,0 0,0 0,0 0,0 0,0 0,0 0,0 1,1l0 0zm0 7c0,-1 0,-1 0,-1 0,0 -1,-1 -1,-1 0,0 -1,0 -1,0 0,0 0,0 -1,1 0,0 0,0 0,0 0,0 0,1 0,1 0,0 0,0 0,1 0,0 0,0 0,0 0,1 0,1 0,1 0,0 0,1 0,1 0,0 -1,0 -1,1 -1,0 -2,0 -2,0 -1,-1 -2,-1 -2,-2 -1,-1 -1,-1 -1,-2l0 0 2 -1 0 0 -1 2c0,0 0,0 0,1 1,0 1,0 1,0 1,1 1,1 1,0 1,0 1,0 1,0 0,0 0,0 0,-1 0,0 0,0 0,0 0,-1 0,-1 0,-1 0,0 0,-1 0,-1 0,0 0,0 0,-1 0,0 1,0 1,0 0,-1 0,-1 0,-1 1,0 2,0 3,0 0,0 1,1 1,2 1,0 1,1 1,1l0 1 -2 0 0 0 1 -1zm3 11l-2 1c0,0 0,1 -1,1 0,0 0,0 0,0l1 1 -1 0c0,0 0,-1 -1,-1 0,-1 -1,-2 -1,-2l0 0 1 0c0,0 0,0 0,0 0,0 1,0 1,0l4 -3c0,0 1,0 1,0 0,-1 0,-1 0,-1 0,0 0,0 0,0l0 -1 0 0c0,1 1,1 1,1l1 2c1,0 1,1 2,2l0 0 -2 1 0 0 1 -1 -2 -2 -3 2 1 0c0,0 0,1 0,1 0,0 0,0 1,0l0 0 1 0c-1,0 -1,0 -1,1 -1,0 -1,0 -2,0l0 0 1 -1c0,0 0,0 0,0 0,0 -1,0 -1,-1l0 0zm3 7c0,0 0,0 0,0 -1,1 -1,1 -1,1 0,0 0,0 0,0l0 1 0 0c0,-1 -1,-1 -1,-1 -1,-1 -1,-1 -1,-2l0 0 1 0c0,0 0,0 0,0 0,0 0,0 0,0 0,0 1,0 1,0l4 -3c0,-1 0,-1 0,-1 0,0 0,0 0,0 0,0 0,0 0,0l0 -1 0 0c1,0 1,1 1,1 1,0 1,0 1,0 0,0 0,1 0,1 0,0 1,0 1,0 0,0 0,0 0,1 1,0 1,1 1,2 0,0 0,1 0,1 -1,1 -1,1 -2,1 0,0 -1,0 -2,-1 0,1 0,1 0,2 0,0 0,0 0,1 0,0 0,0 -1,1 0,0 0,0 0,0 0,0 0,0 0,0 0,1 0,1 0,1 0,0 0,0 1,0 0,0 0,0 0,0l-1 0c0,0 0,0 -1,-1 0,0 0,0 0,0 0,0 0,-1 0,-1 0,0 0,0 0,0 0,-1 0,-1 0,-1 0,-1 0,-1 0,-1 1,-1 1,-1 1,-1 0,-1 0,-1 0,-1 0,0 0,0 0,0 0,0 0,0 0,0 0,0 0,0 0,0l0 0 -2 1zm2 -2c0,0 0,1 0,1 1,0 1,0 2,0 0,0 1,0 1,0 0,-1 1,-1 1,-1 0,-1 0,-1 -1,-1 0,0 0,-1 0,-1 0,0 0,0 0,0l-3 2zm5 7l-2 1c0,0 0,0 0,0 0,0 0,0 0,0 0,0 0,0 0,0 0,0 0,1 0,1l0 0 0 0c-1,0 -1,0 -1,-1 -1,0 -1,0 -1,-1l0 0 0 1c1,0 1,0 1,0 0,0 0,0 0,-1l8 -3 0 1 -3 7c0,0 0,0 0,0 0,0 0,0 0,1l1 0 -1 0c0,0 0,0 -1,-1 0,0 -1,-1 -2,-1l1 0 0 0c0,0 0,0 0,0 0,0 1,0 1,0 0,0 0,0 0,0 0,-1 0,-1 0,-1l0 -1 -1 -2zm3 -1c0,0 0,0 -1,0l-2 1 2 1 1 -2c0,0 0,0 0,0zm2 8c0,0 0,1 0,1l1 0 -1 1c0,-1 0,-1 -1,-1 0,0 0,-1 -1,-1l0 0 1 0c0,0 0,0 0,0 1,0 1,-1 1,-1l3 -4c0,0 1,0 1,-1 0,0 0,0 0,0l-1 0 0 -1c1,1 1,1 2,1 0,0 0,1 0,1l1 6c0,0 0,1 0,1 0,0 0,-1 0,-1l2 -2c0,-1 1,-1 1,-1 0,0 0,0 0,0l-1 -1 0 0c1,0 1,0 2,1 0,0 0,0 1,0l0 1 -1 -1c0,0 0,0 0,0 -1,1 -1,1 -1,1l-4 5 -1 0 0 -7c0,-1 0,-1 0,-1 0,0 -1,0 -1,0l-2 3c0,1 -1,1 -1,1zm16 4l0 0 0 -2c0,0 0,0 0,0 -1,-1 -2,-1 -3,-1 -1,1 -1,1 -2,2 -1,1 -1,2 -1,3 1,1 1,2 2,2 1,0 1,1 2,1l0 0c-1,0 -2,0 -3,-1 -1,0 -2,-1 -2,-2 -1,-1 -1,-3 0,-4 1,-1 2,-1 3,-2 1,0 3,0 4,1 1,0 1,1 2,1l0 0 -2 2zm3 6c-1,0 -1,0 -1,0 0,0 0,0 0,1 0,0 0,0 0,0l1 0 0 1c-1,-1 -1,-1 -2,-1 -1,0 -1,-1 -2,-1l0 0 1 0c0,0 0,0 0,0 0,0 0,0 1,-1 0,0 0,0 0,0l2 -5c0,0 0,0 0,0 0,0 0,0 0,0 0,-1 0,-1 0,-1l0 0 0 0c0,0 1,0 1,0 1,1 2,1 2,1l0 0 -1 0c0,0 0,0 0,0 0,0 0,1 0,1 0,0 0,0 0,0l-2 5zm8 -3c0,-1 0,-1 -1,-1 0,0 0,0 -1,0 0,0 0,0 -1,1 0,0 0,0 0,0 0,1 1,1 1,1 0,0 0,0 0,0 0,1 0,1 1,1 0,0 0,0 0,1 0,0 1,0 1,0 0,1 0,1 0,1 0,0 0,1 0,1 -1,1 -1,1 -2,1 -1,1 -2,1 -3,0 0,0 -1,0 -2,-1l0 0 2 -2 0 0 0 2c0,0 0,1 1,1 0,0 1,0 1,0 0,0 1,-1 1,-1 0,0 0,0 0,-1 0,0 0,0 0,0 0,0 -1,-1 -1,-1 0,0 0,0 0,0 -1,0 -1,-1 -1,-1 0,0 0,0 0,0 -1,-1 -1,-1 -1,-1 0,-1 0,-1 1,-1 0,-1 0,-1 1,-2 1,0 2,0 3,1 0,0 1,0 2,0l0 1 -2 1 0 0 0 -1zm9 3l0 0 -1 -1c0,-1 0,-1 -1,-1 0,0 -1,0 -2,1 -1,0 -1,1 -1,2 -1,1 0,2 0,3 0,1 1,1 2,1 1,1 1,1 2,0l0 1c-1,0 -2,0 -3,0 -1,0 -2,-1 -3,-2 -1,-1 -1,-2 0,-3 0,-1 1,-2 2,-3 1,-1 2,-1 4,0 0,0 1,0 2,0l0 0 -1 2zm3 4l-1 1c0,1 0,1 0,1 0,0 0,0 0,0 0,0 0,0 0,0 0,0 0,0 0,0l1 1 0 0c-1,0 -2,0 -2,0 0,0 -1,0 -1,0l0 -1 0 0c1,0 1,0 1,0 0,0 0,0 0,0l4 -7 1 0 2 7c0,1 0,1 0,1 0,0 0,0 0,0l1 0 0 1c-1,0 -1,0 -2,-1 -1,0 -1,0 -2,0l0 0 1 0c0,0 0,0 0,0 0,0 0,0 0,0 0,0 0,-1 0,-1 0,0 0,0 0,0l-1 -1 -2 -1zm2 -3c-1,0 -1,1 -1,1l-1 2 2 0 0 -2c0,0 0,-1 0,-1zm7 6c0,0 0,0 0,0l1 0 0 1c-1,0 -1,0 -2,0 0,0 0,0 -1,0l0 -1 1 0c0,0 0,0 0,0 0,0 0,-1 0,-1l0 -5c0,0 0,-1 0,-1 0,0 0,0 0,0l-1 0 0 -1c0,0 1,1 1,0 1,0 1,0 1,0l5 5c0,1 0,1 0,1 0,0 0,-1 0,-1l0 -3c0,0 0,-1 0,-1 0,0 0,0 0,0l-1 0 0 -1c1,0 1,0 2,0 0,0 0,0 1,0l0 1 -1 0c0,0 0,0 0,0 0,0 0,1 0,1l0 7 -1 0 -5 -6c0,0 0,0 0,-1 0,1 0,1 0,1l0 4c0,0 0,1 0,1zm10 -2l0 1c0,0 0,0 0,0 0,1 0,1 0,1 0,0 0,0 0,0 0,0 0,0 0,0l1 0 0 0c-1,0 -1,0 -2,0 0,1 -1,1 -1,1l0 -1 0 0c1,0 1,0 1,0 0,0 0,0 0,-1l2 -7 1 0 3 6c1,1 1,1 1,1 0,0 0,0 0,0l1 0 0 1c-1,0 -1,0 -2,0 -1,0 -1,0 -2,0l0 0 0 -1c1,0 1,0 1,0 0,0 0,0 0,0 0,0 0,0 0,0 -1,0 -1,0 -1,-1l0 -1 -3 1zm1 -4c0,0 0,1 0,1l-1 2 2 0 -1 -2c0,0 0,-1 0,-1zm9 -3c0,0 0,0 -1,0 0,0 0,0 -1,0 0,1 0,1 0,1 0,1 0,1 0,1 1,0 1,0 1,0 0,0 0,0 1,0 0,1 0,1 0,1 1,0 1,0 1,0 0,0 1,0 1,0 0,0 0,0 1,1 0,0 0,0 0,1 0,0 0,1 0,2 -1,0 -2,1 -3,1 0,0 -1,0 -2,0l0 0 0 -2 0 0 1 1c0,0 1,0 1,0 1,0 1,0 1,0 1,-1 1,-1 0,-1 0,-1 0,-1 0,-1 0,0 0,0 0,0 -1,0 -1,-1 -1,-1 0,0 -1,0 -1,0 0,0 0,0 -1,0 0,0 0,0 0,0 -1,0 -1,0 -1,-1 0,0 0,0 -1,-1 0,0 0,-1 1,-2 0,0 1,-1 2,-1 1,0 1,0 2,0l0 0 0 2 0 0 -1 -1zm13 2c0,0 0,0 0,0 0,0 1,1 1,1 0,0 0,0 0,0l1 0 0 0c-1,0 -1,0 -2,1 -1,0 -1,0 -2,0l0 0 1 0c0,0 0,0 0,-1 0,0 0,0 0,0 0,0 -1,0 -1,-1l-2 -4c0,0 0,0 0,0 0,-1 0,-1 0,-1 0,0 0,0 0,0l-1 0 0 0c0,0 1,-1 2,-1 0,0 1,0 1,-1l1 1 -1 0c0,0 0,0 0,0 0,1 0,1 0,1 0,0 0,0 0,0l2 5zm6 -11c1,0 1,0 2,0 0,0 0,-1 1,-1l0 0 -1 1c0,0 0,0 0,0 1,0 1,1 1,1l2 4c1,1 1,1 1,1 0,0 0,0 0,0l1 0 0 0c0,1 -1,1 -1,1 -1,1 -2,1 -2,1l0 0 0 -1c0,0 0,0 0,0 0,0 0,-1 0,-1l-2 -3c0,0 -1,-1 -1,-1 0,0 0,0 0,1l1 6 0 0 -5 -3c-1,-1 -1,-1 -1,-1 0,0 0,1 0,1l2 3c0,0 1,1 1,1 0,0 0,0 0,0l1 0 0 0c-1,0 -1,1 -1,1 -1,0 -1,0 -1,0l-1 0 1 0c0,0 0,-1 0,-1 0,0 0,0 -1,-1l-2 -4c0,0 0,0 -1,-1 0,0 0,0 0,0l-1 0 0 0c1,0 1,0 2,0 0,-1 0,-1 1,-1l5 3c0,0 0,1 0,1 0,0 0,-1 0,-1l-1 -6zm9 2l0 1c0,1 0,1 0,1 0,0 0,0 0,0 0,0 0,0 0,0 0,0 1,0 1,0l0 0 0 0c0,1 0,1 -1,1 0,0 0,1 -1,1l0 0 0 -1c0,0 0,0 0,0 0,0 0,-1 0,-1l-2 -7 1 -1 7 4c0,1 0,1 0,1 0,0 0,0 1,0l0 -1 0 1c0,0 0,0 -1,1 -1,0 -1,0 -2,1l0 0 0 -1c1,0 1,0 1,0 0,0 0,0 -1,0 0,0 0,0 0,0 0,0 0,-1 0,-1l-1 0 -2 1zm-1 -3c0,0 0,0 0,0l0 3 2 -2 -2 -1c0,0 0,0 0,0zm9 -8l0 0 -2 -1c0,1 0,1 -1,1 0,1 -1,1 -1,2 0,1 1,2 2,2 0,1 1,2 2,2 1,0 2,0 3,-1 0,0 1,-1 1,-1l0 0c0,1 -1,2 -1,2 -1,1 -2,2 -4,1 -1,0 -2,0 -3,-1 -1,-1 -1,-2 -1,-3 0,-1 1,-3 2,-3 1,-1 1,-1 2,-2l0 0 1 2zm-1 -2c1,0 1,-1 2,-1 0,-1 0,-1 1,-2l0 0 0 1c0,0 0,0 0,0 0,0 0,1 0,1 0,0 0,0 0,0l3 2c1,1 2,1 2,1 1,0 1,0 2,-1 0,0 1,-1 0,-1 0,-1 0,-1 -1,-2l-3 -2c0,0 0,0 0,-1 0,0 0,0 0,0 0,0 0,0 -1,0l0 1 -1 -1c1,0 1,0 1,-1 1,0 1,0 1,-1l1 0 -1 1c0,0 0,0 0,0 0,1 1,1 1,1 0,0 0,0 0,0l2 2c2,1 2,2 2,3 0,1 0,1 -1,2 -1,1 -2,2 -2,2 -1,0 -2,-1 -3,-2l-3 -2c0,0 0,0 0,0 0,0 0,0 -1,0 0,0 0,0 0,0l-1 0 0 0zm10 -8l4 2c0,1 1,1 1,1l2 -2 -1 -2 0 0 2 2 0 0c-1,0 -1,1 -2,2l-1 1c0,1 -1,1 -1,2l0 -1 0 0c0,0 0,0 0,-1 0,0 0,0 0,0 -1,0 -1,0 -1,0l-4 -3c0,0 0,0 -1,0 0,0 0,0 0,-1 0,0 0,0 0,0l-1 1 0 0c0,-1 1,-1 1,-2 0,0 1,-1 1,-1l0 0 0 1c0,0 0,0 0,0 0,0 1,0 1,0 0,0 0,1 0,1zm8 -4l0 1c0,0 1,1 1,1 0,0 0,0 0,0 0,0 0,0 0,0 0,0 0,0 0,0l1 -1 0 1c0,0 -1,0 -1,1 0,0 0,0 0,1l-1 0 0 -1c0,0 0,0 0,0 0,0 0,-1 0,-1l-5 -6 1 -1 8 2c0,0 0,0 0,0 0,0 0,0 1,0l0 -1 0 1c0,0 0,0 -1,1 0,1 0,1 -1,2l0 0 0 -1c0,0 0,0 0,0 0,0 0,0 0,0 0,0 0,0 0,0 0,-1 -1,-1 -1,-1l-1 0 -1 2zm-3 -3c0,1 1,1 1,1l1 2 1 -2 -2 -1c0,0 -1,0 -1,0zm10 -4c0,1 -1,1 -1,2l0 0 0 -1c0,0 0,0 0,0 0,-1 -1,-1 -1,-1l-6 -3 0 2 1 1 0 0 -3 0 0 0c1,-1 1,-2 2,-3l1 -1c0,-1 0,-2 1,-3l0 0 2 1 0 1 -2 -1 -1 2 6 2c0,1 1,1 1,1 0,0 0,0 0,0l1 -1 0 0c0,1 -1,1 -1,2zm1 -8c1,0 1,0 1,0 0,1 0,1 1,1 0,0 0,0 0,0l0 -1 1 0c-1,0 -1,1 -1,2 0,0 0,1 -1,1l0 0 0 0c0,-1 0,-1 0,-1 0,0 0,0 -1,0 0,0 0,0 0,0l-5 -2c0,0 0,0 0,0 -1,0 -1,0 -1,0 0,0 0,0 0,0l-1 1 0 0c0,-1 0,-1 1,-2 0,-1 0,-1 0,-2l1 0 0 1c0,0 0,0 0,0 0,0 0,0 0,0 0,1 1,1 1,1l4 1zm3 -3c0,0 0,0 0,0l1 -1 0 0c0,0 0,1 0,1 0,1 -1,1 -1,2l0 -1 0 0c0,0 0,-1 0,-1 -1,0 -1,0 -1,0l-5 -1c-1,0 -1,0 -1,0 0,0 0,0 -1,0l0 1 0 0c0,-1 0,-1 0,-2 0,0 0,0 0,-1l6 -2c1,-1 1,-1 1,-1 0,0 0,0 -1,0l-3 -1c0,0 -1,0 -1,0 0,0 0,0 0,0l0 1 -1 0c0,-1 0,-1 1,-1 0,-1 0,-1 0,-2l0 0 0 1c0,0 0,0 0,0 1,0 1,0 1,1l7 1 0 1 -7 3c0,0 -1,0 -1,0 0,0 1,0 1,0l4 1c0,0 1,1 1,1zm0 -10l1 0c0,0 1,0 1,0 0,1 0,1 0,1 0,0 0,0 0,0 0,0 0,-1 0,-1l1 0 0 0c0,0 0,1 0,1 0,1 0,1 0,2l-1 0 0 -1c0,0 0,0 0,0 0,-1 0,-1 -1,-1l-7 -3 0 -1 8 -2c0,0 1,0 1,0 0,0 0,0 0,0l0 -1 1 0c-1,0 -1,1 -1,2 0,0 0,1 0,2l0 0 0 -1c0,0 0,0 0,0 0,0 0,0 -1,0 0,0 0,0 0,0 0,0 0,0 0,0l-2 0 0 3zm-3 -2c0,0 0,0 0,0l2 1 1 -2 -3 1c0,0 0,0 0,0zm-2 -9c0,0 0,0 0,0 0,1 0,1 1,1 0,1 0,1 1,1 0,0 0,0 0,0 0,0 1,0 1,-1 0,0 0,0 0,0 0,0 0,-1 0,-1 1,0 1,0 1,-1 0,0 0,0 0,0 1,0 1,-1 1,-1 0,0 1,0 1,0 1,0 2,1 2,1 1,1 1,2 1,3 0,0 0,1 -1,2l0 0 -2 -1 0 0 2 0c0,-1 0,-1 0,-1 0,-1 0,-1 0,-2 0,0 -1,0 -1,0 -1,0 -1,0 -1,0 0,0 0,0 0,0 -1,1 -1,1 -1,1 0,0 0,0 0,1 0,0 0,0 -1,0 0,1 0,1 0,1 0,0 -1,0 -1,0 0,1 0,1 -1,1 -1,0 -1,-1 -2,-1 0,-1 0,-2 0,-3 0,0 0,-1 0,-2l0 0 2 1 0 0 -2 1z"/>
   <path class="fil3" d="M8 4l0 1 -1 -2c0,0 -1,0 -1,0 -1,0 -2,0 -3,1 0,0 0,1 0,2 0,2 0,3 1,3 0,1 1,1 2,1 1,0 2,0 2,0l0 0c0,1 -1,1 -2,1 -2,0 -3,0 -4,-1 0,-1 -1,-2 -1,-3 0,-2 1,-3 2,-4 0,0 2,-1 3,-1 1,0 1,0 2,0l0 1 0 1zm3 3c0,1 0,2 1,3 0,0 1,1 2,1 1,0 2,-1 2,-1 1,-1 1,-2 1,-3 0,-2 0,-3 -1,-3 0,-1 -1,-1 -2,-1 -1,0 -2,0 -2,1 -1,0 -1,1 -1,3zm8 -1c0,2 -1,3 -2,4 0,1 -2,1 -3,1 -1,0 -2,0 -3,-1 -1,-1 -1,-2 -1,-3 0,-2 0,-3 1,-4 1,0 2,-1 3,-1 2,0 3,1 3,1 1,1 2,2 2,3zm4 -2l0 5c0,0 0,1 0,1l3 0 0 -1 1 0 0 2 0 0c-2,0 -3,0 -3,0l-2 0c0,0 -1,0 -1,0l0 0 0 -1c0,0 0,0 0,0 0,0 0,0 0,0 0,-1 0,-1 0,-1l0 -5c0,0 0,0 0,0 0,-1 0,-1 0,-1 0,0 0,0 0,0l0 0 0 -1c0,0 1,0 1,0 1,0 1,0 2,0l0 1 -1 0c0,0 0,0 0,0 0,0 0,0 0,1 0,0 0,0 0,0zm7 -2l1 0c1,0 2,0 3,0l0 0 0 2 0 0 -1 -1 -3 0 0 3 1 0c0,0 1,0 1,0 0,0 0,0 1,0l0 -1 0 0c0,1 0,1 0,2 0,0 0,0 0,1l0 0 0 -1c-1,0 -1,0 -1,0 0,0 -1,0 -1,0l-1 0 0 2c0,0 0,1 0,1l3 0 1 -1 0 0 0 2 0 0c-1,0 -2,0 -3,0l-1 0c-1,0 -1,0 -2,0l0 0 1 -1c0,0 0,0 0,0 0,0 0,0 0,0 0,-1 0,-1 0,-1l0 -5c0,0 0,0 0,0 0,-1 0,-1 0,-1 0,0 0,0 0,0l-1 0 0 -1c1,0 1,0 2,0zm2 -1l-2 1 0 0c1,-1 2,-2 2,-2 1,0 1,1 0,1zm11 3l-1 1 0 -2c-1,0 -1,0 -1,0 -1,0 -2,0 -3,1 0,0 -1,1 -1,3 0,1 1,2 1,2 1,1 2,2 3,2 0,0 0,0 1,-1l0 -1c0,0 0,-1 0,-1 0,0 0,0 0,0 0,0 0,0 0,0l-1 -1 0 0c0,0 1,0 1,0 1,0 1,0 2,0l0 0 -1 1c0,0 0,0 0,0 0,0 0,0 0,0 0,0 0,1 0,1l0 2 0 0c-1,0 -2,0 -2,0 -2,0 -3,0 -4,-1 -1,-1 -1,-2 -1,-3 0,-2 0,-3 1,-4 1,0 2,-1 4,-1 1,0 1,0 2,0l0 1 0 1zm5 5c0,0 0,0 0,1 0,0 0,0 0,0 0,0 0,0 0,0l1 1 0 0c-1,0 -1,0 -2,0 0,0 -1,0 -1,0l0 0 0 -1c0,0 0,0 0,0 0,0 0,0 0,0 0,-1 0,-1 0,-1l0 -5c0,0 0,0 0,0 0,-1 0,-1 0,-1 0,0 0,0 0,0l0 0 0 -1c0,0 1,0 1,0 1,0 1,0 2,0l0 1 -1 0c0,0 0,0 0,0 0,0 0,0 0,1 0,0 0,0 0,0l0 5zm4 -2c0,1 0,2 1,3 0,0 1,1 2,1 1,0 2,-1 2,-1 1,-1 1,-2 1,-3 0,-2 0,-3 -1,-3 0,-1 -1,-1 -2,-1 -1,0 -2,0 -2,1 -1,0 -1,1 -1,3zm7 -1c0,2 0,3 -1,4 -1,1 -2,1 -3,1 -2,0 -3,0 -3,-1 -1,-1 -1,-2 -1,-3 0,-2 0,-3 1,-4 1,0 2,-1 3,-1 1,0 2,1 3,1 1,1 1,2 1,3zm10 -3c-1,0 -1,0 -1,0 -1,0 -1,0 -2,0 0,0 0,1 0,1 0,0 0,1 0,1 0,0 0,0 0,0 1,1 1,1 1,1 0,0 1,0 1,0 0,0 0,0 1,1 0,0 0,0 0,0 1,0 1,0 1,1 0,0 0,0 0,1 0,0 0,1 -1,1 -1,1 -1,1 -2,1 -1,0 -2,0 -3,0l0 0 1 -2 0 0 0 1c1,0 1,1 2,1 0,0 1,-1 1,-1 1,0 1,-1 1,-1 0,0 0,-1 0,-1 -1,0 -1,0 -1,0 0,0 0,0 -1,-1 0,0 0,0 0,0 -1,0 -1,0 -1,0 0,0 -1,-1 -1,-1 0,0 0,0 0,-1 -1,0 -1,0 -1,0 0,-1 1,-2 1,-2 1,-1 2,-1 3,-1 0,0 1,0 2,0l0 1 -1 1 0 0 0 -1zm7 -1l2 8c0,0 1,0 1,0 0,0 0,0 0,0l1 1 0 0c-1,0 -1,0 -2,0 0,0 -1,0 -2,0l0 0 1 -1c0,0 0,0 0,0 0,0 0,0 0,0 0,0 0,0 0,0 0,0 0,0 0,-1l-1 -1 -3 0 0 1c0,1 0,1 0,1 0,0 0,0 0,0 0,0 0,0 0,0 0,0 0,0 0,0l0 1 0 0c0,0 -1,0 -1,0 0,0 -1,0 -1,0l0 0 0 -1c0,0 1,0 1,0 0,0 0,0 0,0l3 -8 1 0zm-2 5l2 0 -1 -3 -1 3zm3 -7c0,1 -1,2 -1,2 0,0 0,0 0,0 -1,-1 -1,-1 -1,-1 0,0 0,0 0,0 0,0 0,0 -1,0 0,0 0,0 0,0 0,0 0,0 0,1l-1 -1c1,0 1,0 1,-1 0,0 0,0 1,0 0,0 0,0 0,0 0,0 0,0 0,0 1,1 1,1 1,1 0,0 0,0 0,0 0,0 0,0 1,0 0,0 0,-1 0,-1l0 0zm5 7c0,1 0,2 1,3 0,0 1,1 2,1 1,0 2,-1 2,-1 1,-1 1,-2 1,-3 0,-2 0,-3 -1,-3 0,-1 -1,-1 -2,-1 -1,0 -2,0 -3,1 0,0 0,1 0,3zm7 -1c0,2 0,3 -1,4 -1,1 -2,1 -3,1 -2,0 -3,0 -3,-1 -1,-1 -2,-2 -2,-3 0,-2 1,-3 2,-4 0,0 2,-1 3,-1 1,0 2,1 3,1 1,1 1,2 1,3zm8 3c0,0 0,1 0,1 0,0 0,0 0,0l1 1 0 0c-1,0 -2,0 -2,0 -1,0 -1,0 -2,0l0 0 1 -1c0,0 0,0 0,0 0,0 0,-1 0,-1l0 -5c0,0 0,0 0,0 0,-1 0,-1 0,-1 0,0 0,0 0,0l-1 0 0 -1c1,0 1,0 2,0l1 0c1,0 2,0 3,0l0 0 0 2 0 0 -1 -1 -2 0 0 3 0 0c1,0 1,0 2,0 0,0 0,0 0,0l0 -1 0 0c0,1 0,1 0,2 0,0 0,0 0,1l0 0 0 -1c0,0 0,0 0,0 -1,0 -1,0 -2,0l0 0 0 2zm7 0c0,0 0,0 0,1 0,0 0,0 0,0 0,0 0,0 0,0l1 1 0 0c-1,0 -1,0 -2,0 0,0 -1,0 -1,0l0 0 1 -1c0,0 0,0 0,0 0,0 0,0 0,0 0,-1 0,-1 0,-1l0 -5c0,0 0,0 0,0 0,-1 0,-1 0,-1 0,0 0,0 0,0l-1 0 0 -1c0,0 1,0 1,0 1,0 1,0 1,0 0,0 0,0 0,0 1,0 1,0 1,0 0,0 0,0 0,0 1,0 2,1 2,1 1,0 1,1 1,1 0,1 0,1 0,2 -1,0 -1,1 -2,1 0,0 1,0 1,1 0,0 0,1 0,1 1,0 1,0 1,1 0,0 0,0 0,0 0,0 1,0 1,0 0,0 0,0 0,0 0,0 0,1 0,1 0,0 0,0 0,0l0 0c0,0 0,0 0,0 -1,0 -1,0 -1,0 0,0 0,0 0,0 0,0 0,0 0,0 -1,0 -1,0 -1,0 0,0 0,-1 0,-1 0,0 0,0 -1,-1 0,0 0,0 0,-1 0,0 -1,0 -1,-1 0,0 0,0 0,0 0,0 0,0 0,0 0,0 0,0 0,0 0,0 0,0 -1,0l0 0 0 2zm0 -3c0,0 0,0 1,0 0,0 1,0 1,0 1,0 1,-1 1,-1 0,-1 0,-1 -1,-2 0,0 -1,0 -1,0 0,0 0,0 -1,0 0,0 0,0 0,0l0 3zm11 -4l2 8c0,0 0,0 1,0 0,0 0,0 0,0l0 1 0 0c0,0 -1,0 -1,0 0,0 -1,0 -2,0l0 0 1 -1c0,0 0,0 0,0 0,0 0,0 0,0 0,0 0,0 0,0 0,0 0,0 0,-1l-1 -1 -3 0 0 1c0,1 0,1 0,1 -1,0 -1,0 -1,0 0,0 0,0 1,0 0,0 0,0 0,0l0 1 0 0c0,0 -1,0 -1,0 -1,0 -1,0 -1,0l0 0 0 -1c0,0 0,0 1,0 0,0 0,0 0,0l3 -8 1 0zm-2 5l2 0 -1 -3 -1 3zm8 -3l0 5c0,0 0,1 0,1 0,0 0,0 0,0l1 1 0 0c0,0 -1,0 -1,0 0,0 -1,0 -1,0l0 0 0 -1c0,0 0,0 0,0 0,0 0,-1 0,-1l0 -5c0,0 0,-1 0,-1 0,0 0,0 0,0l0 0 0 -1c0,0 1,0 1,0 0,0 0,0 0,0l6 7 0 -5c0,0 0,-1 0,-1 0,0 -1,0 -1,0l0 0 0 -1c0,0 1,0 1,0 0,0 1,0 1,0l0 1 -1 0c0,0 0,0 0,0 0,0 0,1 0,1l0 7 0 0 -6 -7zm15 0l0 1 0 -2c-1,0 -1,0 -2,0 -1,0 -1,0 -2,1 -1,0 -1,1 -1,2 0,2 1,3 1,3 1,1 2,1 3,1 1,0 1,0 2,0l0 0c-1,1 -2,1 -3,1 -1,0 -2,0 -3,-1 -1,-1 -1,-2 -1,-3 0,-2 0,-3 1,-4 1,0 2,-1 4,-1 0,0 1,0 2,0l0 1 -1 1zm5 5c0,0 0,0 0,1 0,0 0,0 0,0 0,0 0,0 0,0l1 1 0 0c-1,0 -1,0 -2,0 0,0 -1,0 -1,0l0 0 1 -1c0,0 0,0 0,0 0,0 0,0 0,0 0,-1 0,-1 0,-1l0 -5c0,0 0,0 0,0 0,-1 0,-1 0,-1 0,0 0,0 0,0l-1 0 0 -1c0,0 1,0 1,0 1,0 1,0 2,0l0 1 -1 0c0,0 0,0 0,0 0,0 0,0 0,1 0,0 0,0 0,0l0 5zm7 -6c0,0 -1,0 -1,0 -1,0 -1,0 -1,0 -1,0 -1,1 -1,1 0,0 0,1 0,1 0,0 0,0 1,0 0,1 0,1 0,1 1,0 1,0 1,0 0,0 1,0 1,1 0,0 0,0 1,0 0,0 0,0 0,1 0,0 0,0 0,1 0,0 0,1 -1,1 0,1 -1,1 -2,1 -1,0 -1,0 -2,0l0 0 0 -2 0 0 1 1c0,0 1,1 1,1 1,0 1,-1 1,-1 1,0 1,-1 1,-1 0,0 0,-1 0,-1 0,0 0,0 -1,0 0,0 0,0 0,-1 -1,0 -1,0 -1,0 0,0 -1,0 -1,0 0,0 0,-1 -1,-1 0,0 0,0 0,-1 0,0 0,0 0,0 0,-1 0,-2 1,-2 0,-1 1,-1 2,-1 1,0 1,0 2,0l0 1 0 1 -1 0 0 -1zm10 1l-1 1 0 -2c-1,0 -1,0 -2,0 -1,0 -1,0 -2,1 0,0 -1,1 -1,2 0,2 1,3 1,3 1,1 2,1 3,1 1,0 1,0 2,0l0 0c-1,1 -2,1 -3,1 -1,0 -2,0 -3,-1 -1,-1 -1,-2 -1,-3 0,-2 0,-3 1,-4 1,0 2,-1 4,-1 0,0 1,0 2,0l0 1 0 1zm3 3c0,1 0,2 1,3 0,0 1,1 2,1 1,0 2,-1 2,-1 1,-1 1,-2 1,-3 0,-2 0,-3 -1,-3 0,-1 -1,-1 -2,-1 -1,0 -2,0 -3,1 0,0 0,1 0,3zm7 -1c0,2 0,3 -1,4 -1,1 -2,1 -3,1 -2,0 -3,0 -4,-1 0,-1 -1,-2 -1,-3 0,-2 1,-3 2,-4 0,0 1,-1 3,-1 1,0 2,1 3,1 1,1 1,2 1,3z"/>
   <path class="fil2" d="M93 108c5,-3 7,-6 7,-9l0 -18c0,-10 1,-15 0,-20 -1,-2 -3,-4 -6,-7 0,-1 0,-1 0,0 0,18 -1,35 -1,53 -1,2 -1,2 0,1z"/>
  </g>
 </g>
</svg>
