<svg width="40" height="40" viewBox="0 0 40 40" fill="none" xmlns="http://www.w3.org/2000/svg">
<circle cx="20" cy="20" r="20" fill="#1370A5"/>
<path d="M20 10.6125C21.595 10.6125 22.8875 11.905 22.8875 13.5C22.8875 15.095 21.595 16.3875 20 16.3875C18.405 16.3875 17.1125 15.095 17.1125 13.5C17.1125 11.905 18.405 10.6125 20 10.6125ZM20 22.9875C24.0838 22.9875 28.3875 24.995 28.3875 25.875V27.3875H11.6125V25.875C11.6125 24.995 15.9162 22.9875 20 22.9875ZM20 8C16.9612 8 14.5 10.4612 14.5 13.5C14.5 16.5388 16.9612 19 20 19C23.0388 19 25.5 16.5388 25.5 13.5C25.5 10.4612 23.0388 8 20 8ZM20 20.375C16.3287 20.375 9 22.2175 9 25.875V30H31V25.875C31 22.2175 23.6713 20.375 20 20.375Z" fill="white"/>
</svg>
