<?xml version="1.0" encoding="UTF-8"?>
<!DOCTYPE svg PUBLIC "-//W3C//DTD SVG 1.1//EN" "http://www.w3.org/Graphics/SVG/1.1/DTD/svg11.dtd">
<!-- Creator: CorelDRAW X7 -->
<svg xmlns="http://www.w3.org/2000/svg" xml:space="preserve" width="114.371mm" height="114.371mm" version="1.1" style="shape-rendering:geometricPrecision; text-rendering:geometricPrecision; image-rendering:optimizeQuality; fill-rule:evenodd; clip-rule:evenodd"
viewBox="0 0 13004 13004"
 xmlns:xlink="http://www.w3.org/1999/xlink">
 <defs>
  <style type="text/css">
   <![CDATA[
    .str0 {stroke:#FEFEFE;stroke-width:770.119}
    .fil1 {fill:none}
    .fil0 {fill:white}
   ]]>
  </style>
 </defs>
 <g id="Camada_x0020_1">
  <metadata id="CorelCorpID_0Corel-Layer"/>
  <path class="fil0" d="M3799 3960l-253 41c-23,11 -156,54 -176,55l-37 26c-379,217 -327,313 -419,387 -2,40 -17,50 -34,90 -11,24 -21,56 -32,77 -18,70 -40,137 -55,213 -7,37 -26,193 -44,218 6,39 -1,78 -8,117l-25 230 -13 195 -22 252c13,37 6,90 3,132l2 960 -6 52c23,33 20,305 23,370l-3 90c12,19 3,-5 9,28l15 229 19 195 28 200c18,64 28,131 49,194 19,58 49,129 62,183 130,234 188,343 449,468 12,6 10,4 21,10 13,8 11,7 19,14 56,2 119,35 180,50 67,16 126,21 191,34 40,4 76,9 116,12l114 18c44,-13 121,-2 171,6l195 9 90 4c47,1 324,3 356,20 42,-14 97,-5 145,-5l244 7c11,0 30,-1 39,0 25,2 -4,-2 17,2 23,5 7,-1 20,7l72 -6 579 12 1387 0 188 -2 591 -20 192 -7 199 -9 193 -10 199 -12 263 -15c37,-4 61,-9 95,1 31,-18 158,-17 230,-31 75,-14 128,-42 194,-61 63,-35 131,-65 184,-107l29 -14c12,-27 63,-57 88,-82 23,-24 57,-63 80,-95l8 -8c18,-35 35,-58 53,-95 14,-28 32,-68 47,-92 25,-67 50,-127 69,-197 15,-51 28,-165 53,-199 -6,-59 10,-129 21,-187l28 -208c-10,-52 1,-114 7,-166 2,-40 5,-74 8,-115 2,-30 -2,-79 15,-104l-3 -127c11,-266 3,-540 4,-808 1,-266 -3,-525 -17,-788l-16 -241 -13 -135 -27 -196c-13,-63 -24,-127 -40,-187 -13,-48 -45,-132 -45,-174 -19,-21 -90,-197 -99,-221 -20,-14 -59,-98 -81,-125 -37,-44 -67,-68 -103,-101 -35,-33 -72,-59 -116,-88 -34,-22 -103,-48 -129,-68 -43,-16 -183,-54 -209,-74l-160 -16 -222 -19c-306,-13 -612,-31 -923,-40 -304,-9 -615,-8 -921,-19 -286,-9 -585,-4 -872,-3 -144,0 -287,1 -431,3 -123,1 -307,-6 -423,8 -99,-13 -317,3 -429,6l-1247 52zm3700 2629c-43,33 -369,187 -447,228l-1336 672 1 -2090c25,2 59,17 73,35 55,15 205,98 262,128l1712 880 -265 147z"/>
  <circle class="fil1 str0" cx="6502" cy="6502" r="6117"/>
 </g>
</svg>
