<svg width="24" height="24" viewBox="0 0 24 24" fill="none" xmlns="http://www.w3.org/2000/svg">
<rect width="24" height="24" rx="2" fill="url(#paint0_linear_3282_120)"/>
<path d="M19.0192 12.1813C19.0335 12.4776 18.9185 12.6457 18.6316 12.724C18.2583 12.8235 17.8758 12.8124 17.4947 12.7948C17.1316 12.7759 16.7704 12.7434 16.411 12.6828C16.2742 12.6596 16.3417 12.7652 16.3481 12.8041C16.416 13.2343 16.4816 13.6663 16.5634 14.0942C16.7334 14.9934 16.9616 15.877 17.3233 16.7211C17.4333 16.979 17.5936 17.2036 17.7211 17.45C17.8148 17.6357 17.8865 17.8237 17.8809 18.0353C17.8689 18.3219 17.6975 18.49 17.4102 18.4858C17.2864 18.4844 17.1686 18.4539 17.0498 18.4173C16.5847 18.2719 16.1578 18.3381 15.7933 18.6715C15.2778 19.142 14.6698 19.2471 14.0046 19.1457C13.9007 19.129 13.7972 19.1286 13.6919 19.1258C13.6101 19.1244 13.5316 19.1133 13.4928 19.0359C13.4521 18.954 13.4849 18.8748 13.5385 18.8081C13.624 18.6956 13.7307 18.6048 13.8055 18.483C14.1247 17.957 14.3326 17.387 14.4911 16.7966C14.674 16.1173 14.7414 15.4199 14.8421 14.7267C14.9119 14.2419 14.9743 13.7538 15.044 13.269C15.0639 13.1273 15.0477 12.9852 15.0583 12.8666C15.0593 12.6865 15.0616 12.5263 15.032 12.3702C15.0011 12.2058 14.9355 12.0604 14.8297 11.9294C14.2508 11.2093 13.7427 10.4388 13.2613 9.65206C13.1916 9.5363 13.1565 9.40108 13.1024 9.27513C13.0086 9.05796 12.8724 8.88848 12.6562 8.76577C12.3503 8.59444 12.1545 8.32262 12.1069 7.96375C12.0819 7.77205 12.1221 7.66925 12.2113 7.65999C12.3083 7.65165 12.446 7.80909 12.4571 7.94662C12.4635 8.0434 12.4825 8.13832 12.5633 8.20176C12.6229 8.24807 12.6811 8.28836 12.6857 8.15685C12.689 8.10545 12.7121 8.05266 12.737 8.00404C12.7735 7.92902 12.8165 7.85077 12.9181 7.86697C13.0105 7.87994 13.0558 7.95449 13.0765 8.03553C13.1001 8.12304 13.1117 8.21288 13.125 8.30271C13.1846 8.73567 13.4045 9.0913 13.6822 9.40664C14.2758 10.0772 14.9877 10.5615 15.8811 10.731C16.9307 10.9306 17.8245 10.6092 18.5859 9.87896C18.6713 9.79885 18.7517 9.70994 18.8349 9.62752C18.8737 9.59279 18.9125 9.53028 18.9707 9.55852C19.0266 9.58862 19.0007 9.65716 19.0016 9.70902C19.0021 9.7331 18.9975 9.7544 18.9979 9.77848C18.997 9.82664 18.9665 9.88822 19.0169 9.91554C19.0598 9.93962 19.113 9.90304 19.1559 9.87896C19.3629 9.76783 19.4737 9.57705 19.5684 9.37191C19.5943 9.31727 19.5999 9.21818 19.6719 9.23207C19.7551 9.25198 19.7237 9.34552 19.719 9.41081C19.6715 9.92295 19.4077 10.2948 18.9605 10.5342C18.8616 10.5861 18.8422 10.6379 18.8607 10.7467C18.9263 11.1084 18.9527 11.477 18.9813 11.8433C18.991 11.9567 19.0132 12.0702 19.0196 12.1831" fill="white"/>
<path d="M10.9652 7.01492C11.0003 6.85239 11.0345 6.70838 11.0618 6.56252C11.0724 6.50463 11.0881 6.47407 11.1546 6.47592C11.3182 6.48009 11.4822 6.48009 11.6452 6.47546C11.7159 6.47361 11.727 6.5051 11.727 6.56529C11.7275 7.56272 11.7288 8.56015 11.7335 9.55758C11.7335 9.64 11.7021 9.65482 11.6295 9.65389C11.3524 9.65111 11.0752 9.64973 10.798 9.65528C10.7102 9.65667 10.6844 9.63074 10.6807 9.54183C10.6613 9.09637 10.6765 8.64906 10.6081 8.20637C10.5726 7.97484 10.5111 7.75211 10.3795 7.55531C10.1799 7.2571 9.90688 7.26173 9.72441 7.56967C9.53639 7.8864 9.54194 8.22999 9.61308 8.57636C9.71656 9.07553 9.93275 9.53165 10.16 9.9822C10.5351 10.7245 10.9583 11.4413 11.3108 12.1956C11.6032 12.8203 11.8337 13.4649 11.909 14.1553C12.0014 14.9999 11.8979 15.8172 11.5427 16.5937C11.4147 16.8734 11.2364 17.1202 10.999 17.3198C10.4465 17.7833 9.79417 17.7556 9.29109 17.2388C9.21256 17.1582 9.1659 17.1457 9.12987 17.2587C9.05734 17.4865 8.9049 17.5602 8.6753 17.5231C8.55104 17.5027 8.38334 17.574 8.30712 17.4986C8.22443 17.4166 8.28171 17.248 8.28125 17.1175C8.27756 16.0927 8.2794 15.068 8.27294 14.0432C8.27201 13.92 8.3062 13.889 8.42446 13.8932C8.67438 13.902 8.9243 13.8983 9.17422 13.8932C9.26153 13.8918 9.29202 13.9126 9.28509 14.008C9.25183 14.4628 9.23473 14.9175 9.28093 15.3722C9.31327 15.6945 9.36039 16.014 9.50452 16.309C9.60153 16.5076 9.73365 16.6697 9.9711 16.7077C10.1854 16.7419 10.3037 16.6882 10.409 16.5011C10.6502 16.0723 10.6354 15.6209 10.519 15.1629C10.3693 14.5753 10.0847 14.0465 9.78631 13.5255C9.59414 13.1903 9.39642 12.8578 9.19408 12.529C8.69332 11.7173 8.43231 10.824 8.29326 9.88959C8.19856 9.25103 8.18101 8.61109 8.31821 7.97484C8.41522 7.52244 8.58938 7.10661 8.93076 6.77969C9.51052 6.22402 10.2002 6.23235 10.7657 6.80099C10.829 6.86489 10.8885 6.93296 10.9652 7.01492" fill="white"/>
<path d="M6.73126 7.01112C6.76175 6.86202 6.79316 6.71662 6.81995 6.57029C6.83196 6.50593 6.85922 6.47861 6.92851 6.48092C7.07357 6.48555 7.21955 6.48879 7.36414 6.47953C7.46577 6.47305 7.49626 6.50269 7.49395 6.60734C7.48563 7.02131 7.48563 7.43621 7.48425 7.85065C7.48194 8.56098 7.47871 9.27177 7.48101 9.98211C7.48101 10.0798 7.46392 10.1173 7.35629 10.1141C7.09297 10.1053 6.82919 10.1076 6.56588 10.1141C6.47025 10.1164 6.44299 10.0877 6.44253 9.99229C6.4393 9.29076 6.4162 8.59015 6.35892 7.89093C6.34829 7.76128 6.31503 7.63949 6.24204 7.53206C6.06604 7.27275 5.73989 7.25145 5.53247 7.48669C5.39758 7.63996 5.34538 7.82564 5.34076 8.028C5.32921 8.5332 5.31351 9.03839 5.30381 9.54405C5.27563 10.9781 5.22758 12.4127 5.25438 13.8473C5.26639 14.4844 5.27563 15.1225 5.35601 15.7555C5.38788 16.007 5.48397 16.2403 5.60731 16.458C5.75191 16.7127 6.15335 16.7159 6.35661 16.4696C6.5146 16.2783 6.58204 16.0463 6.63748 15.8106C6.74373 15.3568 6.7793 14.8942 6.79916 14.4298C6.80979 14.1885 6.81487 13.9473 6.81718 13.706C6.81764 13.6366 6.83658 13.6092 6.90911 13.612C7.05925 13.6171 7.20938 13.6162 7.35906 13.6125C7.42558 13.6106 7.45607 13.6241 7.45514 13.7009C7.44175 14.6562 7.36044 15.6004 7.01906 16.5038C6.91558 16.7775 6.77607 17.0326 6.58112 17.2535C6.12424 17.7707 5.41098 17.8203 4.88943 17.3688C4.5656 17.0887 4.35448 16.7298 4.18494 16.3431C3.86434 15.6106 3.70497 14.8363 3.63937 14.0445C3.51926 12.597 3.58624 11.1509 3.70774 9.70659C3.75301 9.16759 3.77934 8.62535 3.92994 8.1007C4.06899 7.61727 4.27872 7.17227 4.64736 6.81895C5.29595 6.19753 6.02723 6.23041 6.62085 6.90323C6.65319 6.93935 6.67305 6.9889 6.73126 7.01112" fill="white"/>
<path d="M13.1602 17.8135C13.2659 15.4961 13.318 13.206 13.3162 10.8931C13.3161 10.6807 13.5475 10.5742 13.6942 10.7278C13.9727 11.0204 14.1802 11.3515 14.2296 11.7627C14.2587 12.003 14.2555 12.2452 14.2384 12.4855C14.1483 13.777 14.1922 15.0699 14.1954 16.3623C14.1963 16.7656 14.0577 17.086 13.7709 17.3555C13.5921 17.5236 13.3948 17.6658 13.1602 17.814" fill="white"/>
<path d="M14.7539 9.46988C14.7539 9.28975 14.7862 9.11657 14.8814 8.96098C15.0639 8.66277 15.427 8.65721 15.597 8.96191C15.7845 9.29901 15.7855 9.65325 15.5984 9.99036C15.4288 10.2951 15.0662 10.2895 14.8819 9.99267C14.7987 9.85885 14.7539 9.67455 14.7539 9.46988" fill="white"/>
<path d="M20.6207 6.10593C20.3177 6.58844 20.0299 7.04455 19.7439 7.50344C19.7107 7.55669 19.67 7.55901 19.6169 7.55392C18.9447 7.4877 18.2703 7.42287 17.5981 7.35665C16.9061 7.28951 16.2141 7.22051 15.5239 7.15337C15.1262 7.11355 14.7266 7.0816 14.3312 7.03622C14.2134 7.02186 14.1856 7.04779 14.1815 7.16356C14.1568 7.84458 14.1266 8.52645 14.0982 9.20876C14.0958 9.26712 14.0581 9.30151 14.0258 9.25288C13.7796 8.89956 13.5357 8.54301 13.2894 8.18784C13.2479 8.12811 13.2345 8.06606 13.2303 7.99521C13.2118 7.66829 13.1897 7.34276 13.1753 7.01399C13.1712 6.92925 13.1421 6.90934 13.0654 6.90008C12.8316 6.86951 12.6002 6.82691 12.3665 6.7982C12.2542 6.78431 12.1969 6.75236 12.2168 6.6227C12.238 6.49768 12.2399 6.36941 12.2422 6.24161C12.2422 6.16937 12.2681 6.14112 12.3392 6.149C12.3567 6.15131 12.3752 6.14992 12.3932 6.15039C15.0828 6.13557 17.7727 6.12075 20.4627 6.10547C20.5066 6.10547 20.5524 6.10593 20.6207 6.10547" fill="white"/>
<defs>
<linearGradient id="paint0_linear_3282_120" x1="12" y1="0" x2="12" y2="24" gradientUnits="userSpaceOnUse">
<stop stop-color="#11A4FF"/>
<stop offset="1" stop-color="#005CB2"/>
</linearGradient>
</defs>
</svg>
