<?xml version="1.0" encoding="UTF-8"?><svg id="Camada_2" xmlns="http://www.w3.org/2000/svg" viewBox="0 0 1715.43 1715.43"><defs><style>.cls-1{fill:#fff;}.cls-2{fill:#2fac66;}</style></defs><g id="Camada_1-2"><rect class="cls-2" x="0" y="0" width="1715.43" height="1715.43" rx="857.72" ry="857.72"/><g><path class="cls-1" d="M336.15,1108.25c4.88-10.54,7.57-22.05,14.69-31.61,11.3-15.2,26.24-25.08,43.87-31.45,19.03-6.88,37.96-14.01,56.86-21.23,12.41-4.74,16.96-13.32,15.11-26.3-.48-3.35-2.51-4.4-4.72-5.88-42.07-28.08-61.9-67.63-60.59-117.97,.69-26.65-2.76-53.54,5.99-79.69,7.37-22.02,19.09-41.09,36.34-56.51,4.97-4.45,7.07-8.58,6.85-15.46-1.42-45.82,33.66-83.59,79.39-84.02,47.83-.45,83.63,38.83,81.46,83.83-.25,5.22-.21,9.44,4.42,13.48,28.17,24.61,43.61,55.62,44.53,93.23,.64,26.4,2.65,52.94-2.42,79.13-6.63,34.19-24.8,61.15-53.42,80.79-6.47,4.44-10.4,8.72-9.1,17.01,1.32,8.36,4.68,14.46,13.1,17.56,21.2,7.8,42.31,15.87,63.4,23.95,27.99,10.72,45.76,30.65,52.35,59.9,1.77,7.84,1.98,16.16,2.01,24.26,.16,55.67,.1,111.35,.08,167.03,0,16.49-4.84,23.81-15.62,23.81-10.85,0-15.84-7.44-15.84-23.68,0-56.01,0-112.03,0-168.04v-13.15c-20.99,16.93-36.48,33.72-34.62,63.13,2.46,38.88,.62,78.04,.58,117.08,0,3.72-.2,7.45-.6,11.15-.91,8.32-6.02,12.81-14.01,13.39-8.19,.59-13.51-3.93-15.69-11.66-.9-3.19-.87-6.7-.87-10.06-.05-43.79,.06-87.59-.08-131.38-.07-21.07,6.74-39.08,22.14-53.74,7.37-7.02,14.04-14.84,21.76-21.43,6.78-5.79,4.59-9-1.8-12.2-3.91-1.96-7.72-4.2-11.79-5.76-14.8-5.68-29.87-10.69-44.46-16.87-6.24-2.64-9.74-1.13-14.02,3.25-16.11,16.52-32.39,32.9-48.96,48.96-4.55,4.4-6.17,8.86-6.15,15.1,.22,57.03,.14,114.07,.12,171.1,0,3.39-.04,6.79-.26,10.17-.57,8.79-5.65,13.59-14.08,14.54-8.04,.91-15-4.99-16.34-13.47-.47-2.99-.26-6.09-.26-9.15-.01-57.37-.16-114.75,.18-172.12,.04-7.46-2.18-12.48-7.46-17.56-16.16-15.51-31.91-31.46-47.55-47.49-4.26-4.36-7.73-5.94-14-3.29-14.58,6.17-29.66,11.15-44.47,16.79-6.91,2.63-13.53,5.91-21.76,14.34,12.23,10.87,24.99,21.09,36.37,32.67,10.55,10.73,15.13,24.57,15.13,39.78,0,47.19,.11,94.37,.06,141.56-.01,11.15-5.75,17.83-14.89,18.05-9.6,.22-15.72-6.7-15.74-18.32-.08-43.45-.51-86.92,.21-130.36,.27-16.55-4.6-29.62-17.03-40.41-5.45-4.73-9.93-10.59-15.4-16.53-3.38,5.87-2.37,9.99-2.38,13.89-.08,56.35-.1,112.71,0,169.06,.01,8.32,.4,16.44-8.6,21.07-9.53,4.91-15.54-1.42-22.02-6.5v-205.76Zm194.43-127.63c49.93,.36,93.71-38.7,98.89-88.1,.83-7.91,.72-13.83-10.28-12.91-6.23,.52-12.71-1.51-19.04-2.61-37.17-6.48-72.08-19.7-105.8-36.19-5.47-2.67-8.49-2.56-12.63,2.1-12.08,13.61-27.33,23.09-43.67,30.69-4.79,2.23-6.21,4.74-6.06,9.86,1.58,53.65,45.22,96.78,98.59,97.17Zm-97.99-139.44c12.83-6.36,23.82-14.44,31.94-25.99,11.34-16.13,15.26-17.04,32.49-8.01,39.75,20.84,81.25,36.4,126.15,41.84,4.67,.57,6.84,.33,6.58-5.17-.48-10.14,.12-20.26-2.01-30.36-10.82-51.25-59.34-86.01-111.83-77.7-51.53,8.16-86.26,53.12-83.3,105.4Zm69.86,167.31c-3.87-1-5.26,.25-5.59,4.43-.68,8.59-3.99,16.48-9.73,22.87-3.71,4.13-2.75,6.46,.8,9.91,13.11,12.74,26.05,25.67,38.77,38.8,3.36,3.47,5.29,3.78,8.79,.16,12.96-13.38,26.21-26.47,39.45-39.56,2.65-2.63,4.42-4.48,.92-8.15-6.22-6.52-9.19-14.86-10.72-23.61-.6-3.4-1.21-5.97-5.5-4.91-19.07,4.68-38.15,4.66-57.19,.06Zm78.08-295.44c-6.84-28.02-23.25-42.53-47.8-43.57-22.13-.93-43.18,13.86-49.17,34.73-.62,2.16-.99,4.81-.29,6.82,.74,2.12,3,.3,4.25-.15,30.83-10.98,61.45-9.88,93,2.17Z"/><path class="cls-1" d="M1348.62,1098.86c-15.17,15.28-28.41,28.42-41.4,41.8-7.23,7.44-9.61,16.74-9.58,27,.12,44.14,.05,88.28,.05,132.42,0,2.72,.17,5.46-.15,8.14-1,8.4-7.87,14.53-15.98,13.8-8.47-.76-13.76-5.46-14.4-14.23-.39-5.41-.2-10.86-.2-16.29-.01-40.4,.51-80.82-.21-121.21-.41-22.9,7.31-41.47,23.65-57.13,13.23-12.69,25.82-26.04,39.04-38.74,4.08-3.92,4.07-6.58-.52-9.34-4.62-2.78-9.23-5.67-14.12-7.89-25.2-11.42-50.58-22.48-75.7-34.07-5.47-2.53-8.77-1.95-12.99,2.4-17.5,18.02-35.25,35.81-53.27,53.31-4.3,4.18-5.72,8.35-5.7,14.17,.18,68.92,.12,137.85,.1,206.77,0,4.38,.47,8.79-1.58,13-3.39,6.96-8.91,10.4-16.43,9.09-6.83-1.19-11.7-5.31-12.48-12.75-.42-4.04-.5-8.13-.5-12.19-.03-67.57-.09-135.13,.09-202.7,.02-6.49-1.43-11.35-6.33-16.07-18.08-17.43-35.72-35.34-53.39-53.19-3.09-3.12-5.34-4.88-10.3-2.6-26.97,12.4-54.33,23.98-81.27,36.45-18.19,8.42-17.98,8.86-3.79,23.03,11.53,11.52,22.98,23.11,34.61,34.54,14.05,13.81,20.82,30.67,20.87,50.17,.13,45.16,.02,90.32,.08,135.47,0,3.79-.29,7.47-1.89,10.92-3.06,6.58-8.32,9.82-15.5,9.05-6.62-.71-11.43-4.41-12.91-11.08-.94-4.25-1.15-8.73-1.16-13.12-.08-42.1-.37-84.21,.13-126.3,.18-14.92-4.16-26.83-15.21-37.06-11.38-10.54-21.75-22.16-32.82-33.58-3.55,4.39-2.15,8.23-2.16,11.71-.11,61.79-.08,123.59-.08,185.38,0,2.72,.18,5.46-.11,8.14-1.04,9.59-7.04,15.79-15.29,16.04-8.44,.25-14.5-5.39-15.91-15.16-.43-3-.31-6.09-.31-9.14-.02-61.79,.21-123.59-.09-185.38-.2-41.12,17.95-69.57,56-85.67,25.79-10.91,51.08-23.01,76.86-33.94,10.19-4.32,14.18-11.13,14.6-21.83,.48-12.28-1.67-21.79-11.6-31.22-23.42-22.25-35.62-50.58-36.85-83.18-.3-7.89-.9-15.16-8.5-20.26-4.22-2.83-6.75-8.11-7.23-13.08-3.86-39.77-2.52-78.72,21.94-112.95,24.07-33.68,56.95-52.9,98.2-55.54,28.66-1.84,57.57-2.78,85.46,7.41,51.89,18.95,86.72,69.71,85.38,124.86-.24,9.71-3.4,18.22-11.03,24.03-4.84,3.68-5.4,7.74-5.38,13.02,.11,21.65,1.17,43.33-5.92,64.43-7.39,22-19.18,41-36.28,56.61-12.87,11.75-9.06,39.89,6.77,47.07,27.05,12.27,54.21,24.29,81.34,36.37,34.88,15.54,52.24,42.11,52.06,80.56-.3,64.51-.14,129.02,0,193.53,.02,7.25-1.08,13.52-7.87,17.45-10.63,6.16-22.68-1.54-22.73-14.93-.16-40.4-.06-80.81-.06-121.21,0-27.41,0-54.82,0-85.1Zm-311.29-284.29c9.37-1.74,15.62-8.15,22.79-13.02,7.77-5.28,16.61-4.14,21.81,2.36,5.69,7.11,4.54,15.73-3.3,22.38-4.13,3.5-8.21,8.11-13.08,9.47-14.61,4.08-13.22,14.73-12.09,25.63,.28,2.68,.98,5.33,1.63,7.96,10.24,41.34,36.04,68.07,77.56,76.6,37.36,7.68,69.49-4.53,94.55-33.67,20.02-23.29,24.45-51.18,23.65-80.75-.19-6.95-1.43-9.49-8.86-8.7-21.33,2.27-42.67,1.69-63.85-1.91-31.33-5.32-59.57-17.34-83.22-39.02-8.4-7.7-9.79-17.39-3.89-24.12,6.58-7.52,15.35-7.25,24.98,1.22,6.39,5.62,13.09,10.76,20.53,14.87,40.12,22.16,82.83,21.95,126.4,14.78,4.71-.78,3.9-3.61,3.87-6.61-.42-40.42-29.91-79.3-68.51-91.56-20.94-6.65-42.27-5.09-63.52-4.79-29.58,.42-54.24,12.02-74.01,34.34-24.31,27.46-25.97,60.25-23.45,94.53Zm65.16,155.79c-1.18,8.66-1.42,17.53-5.78,25.44-1.59,2.88-.53,4.99,1.64,7.16,16.57,16.49,33.12,33.01,49.53,49.66,2.76,2.8,4.45,2.92,7.29,.03,16.4-16.66,33.02-33.11,49.5-49.7,1.49-1.5,4.23-2.69,2.39-5.79-4.92-8.26-5.15-17.71-5.79-27.1-36.92,11.43-56.04,13.49-98.78,.29Z"/><path class="cls-1" d="M733.74,755.37c37.56-16.01,67.67-37.28,88.67-69.42,7.59-11.62,16.21-16.63,30.04-15.8,11.7,.7,23.68,1.82,35.34-1.74,20.64-6.29,34.94-22.93,35.22-44.51,.67-50.22,.89-100.47,.19-150.68-.41-29.13-21.14-49.04-51.09-49.18-96.73-.45-193.47-.47-290.2,.02-31.54,.16-51.52,21.85-51.79,54.25-.28,33.6-.06,67.21-.07,100.81,0,3.39,.06,6.8-.27,10.17-.85,8.65-5.74,13.44-14.41,13.92-8.41,.47-15.81-5.08-15.86-13.66-.22-41.73-3.16-83.66,1.01-125.15,4.37-43.4,38.41-71.14,82.24-71.2,92.66-.12,185.32-.03,277.98-.05,11.53,0,23.08-.37,34.33,2.92,36.73,10.73,59.68,41.13,60.02,80.94,.4,46.84,.38,93.68,0,140.52-.32,41.03-23.63,71.13-62.85,81.75-11.17,3.03-22.82,2.91-34.32,2.52-5.57-.19-9.33,1.32-12.73,6.11-24.6,34.75-58.12,58.21-96.59,75.2-13.26,5.86-26.3,3.84-35.67-5.56-10.05-10.07-12.81-22-7.48-35.33,4.51-11.27,9.2-22.48,14.3-33.49,2.69-5.82,.85-6.97-4.75-6.9-14.93,.21-29.87,.09-44.8,.05-3.05,0-6.1-.12-9.13-.42-9.16-.91-14.58-6.48-14.68-15.21-.1-8.85,5.71-15.23,14.5-15.43,27.48-.62,54.99-.82,82.46-.04,12.48,.36,17.71,10.47,13.81,23.86-4.91,16.86-10.78,33.38-18.3,49.29-1.4,2.96-2.67,5.98-5.1,11.43Z"/><path class="cls-1" d="M678.65,932.9c-.33-76.78,56.86-138.98,130.84-146.96,70.77-7.64,139.6,38.06,157.51,111.59,1.3,5.35,3.27,8.03,8.35,9.8,9.54,3.32,18.84,7.37,28.21,11.18,15.65,6.37,22.11,15.22,21.6,29.44-.46,12.92-8.36,22.29-23.35,27.28-10.88,3.62-21.72,7.44-32.81,10.28-7.15,1.83-11.18,5.57-14.58,12.13-22.34,43.14-58.18,68.98-105.54,77.56-75.66,13.7-149.45-36.58-166.36-112.13-2.38-10.62-3.49-21.4-3.88-30.16Zm310.49,13.48c-11.71-4.74-21.53-9.25-31.7-12.69-12.3-4.16-17.99-12.29-20.25-25.02-10.22-57.7-65.16-100.43-128.88-91.24-68.17,9.83-110.57,73.31-95.27,139.99,12.22,53.23,63.4,97.55,130.26,87.05,40.28-6.33,69.86-29.57,86.57-67.45,4.29-9.73,10.41-15.85,20.92-18.55,12.38-3.18,24.43-7.64,38.34-12.09Z"/><path class="cls-1" d="M676.99,521.89c-20.34,0-40.67,.11-61.01-.04-11.63-.09-18.88-6.19-18.87-15.34,.02-9.27,7.32-15.44,18.89-15.47,41.35-.08,82.7-.08,124.05,0,11.55,.02,18.63,6.13,18.59,15.52-.04,9.59-6.61,15.2-18.62,15.28-21.01,.15-42.03,.04-63.04,.04Z"/><path class="cls-1" d="M775.75,603.57c-20.34,0-40.68,.11-61.02-.04-12.32-.09-19.93-6.31-19.71-15.61,.22-9.37,7.93-15.35,20.22-15.37,40.68-.05,81.36-.07,122.04,0,12.12,.02,19.69,6.33,19.52,15.86-.17,9.36-6.95,14.98-19,15.09-20.68,.18-41.36,.05-62.03,.05Z"/><path class="cls-1" d="M824.63,521.64c-5.74,0-11.48,.24-17.21-.05-8.99-.45-13.1-6.43-14.19-14.43-1-7.33,5.84-15.41,13.91-15.84,11.78-.63,23.64-.61,35.43-.02,8.33,.42,14.44,7.85,14.22,15.61-.23,8.17-6.03,14.13-14.95,14.73-5.71,.38-11.47,.07-17.21,.07,0-.02,0-.04,0-.07Z"/><path class="cls-1" d="M628.94,603.4c-5.43,0-10.86,.13-16.28-.03-9.36-.27-14.26-5.81-15.39-14.51-.96-7.4,5.78-15.48,14.01-15.96,11.83-.7,23.77-.72,35.6,.02,8.59,.54,14.1,7.8,13.48,16.09-.64,8.61-5.34,13.71-14.13,14.21-5.75,.32-11.53,.06-17.29,.06v.12Z"/><path class="cls-1" d="M809.16,906.03c0-11.85-.13-23.71,.03-35.56,.17-12.36,6.06-19.87,15.46-20.15,9.28-.28,16.03,7.4,16.14,19.43,.23,24.72,.24,49.45,0,74.17-.11,11.36-6.6,18.92-15.42,19.18-9.3,.28-15.94-7.47-16.16-19.48-.23-12.53-.05-25.06-.05-37.59Z"/><path class="cls-1" d="M840.62,996.71c-.09,7.94-7.83,15.51-15.72,15.38-7.91-.14-15.52-7.89-15.44-15.72,.09-8.19,7.4-15.22,15.75-15.14,8.35,.08,15.51,7.27,15.41,15.48Z"/></g></g></svg>