<svg width="14" height="17" viewBox="0 0 14 17" fill="none" xmlns="http://www.w3.org/2000/svg">
<path d="M7.02806 15.2442C8.47089 15.2161 9.90948 15.0691 11.2812 14.5285C11.7121 14.3588 12.1244 14.1535 12.4608 13.8224C12.645 13.641 12.7315 13.4309 12.7182 13.1656C12.6439 11.6669 12.0995 10.3756 11.0456 9.30186C10.6667 8.91564 10.7957 8.3448 11.2929 8.19997C11.5285 8.13153 11.7407 8.19095 11.9127 8.36072C12.9342 9.37242 13.5869 10.5852 13.8676 11.9948C13.9387 12.3508 13.9663 12.7126 13.9933 13.0754C14.0565 13.9222 13.6659 14.5323 13.0191 15.015C12.2608 15.5811 11.3873 15.8872 10.4815 16.1116C8.90231 16.5026 7.29763 16.5981 5.68181 16.4607C4.35041 16.3477 3.04661 16.0962 1.82559 15.5185C1.55708 15.3912 1.30131 15.2416 1.05774 15.0707C0.284591 14.5312 -0.0778417 13.815 0.0139603 12.851C0.1774 11.1396 0.820014 9.65837 2.02458 8.42703C2.39816 8.04506 2.99089 8.17397 3.12992 8.66842C3.20474 8.93527 3.10817 9.15438 2.9166 9.34855C2.27664 9.99896 1.82188 10.7619 1.54806 11.6335C1.38887 12.1407 1.31829 12.6606 1.28539 13.1884C1.26947 13.4394 1.36021 13.6389 1.53214 13.8097C1.92588 14.2007 2.41779 14.4219 2.92828 14.6065C4.248 15.0829 5.62131 15.2225 7.02806 15.2442Z" fill="#F6F6F6"/>
<path d="M7.00353 0C9.48909 0 11.4482 1.98202 11.4488 4.49722C11.4493 6.91109 9.44292 8.88568 6.99982 8.89364C4.55513 8.90107 2.5254 6.87077 2.54981 4.39324C2.57369 1.97566 4.55778 0 7.00353 0ZM7.00088 1.2706C5.28795 1.26052 3.84034 2.69292 3.82602 4.41234C3.81169 6.15562 5.23966 7.6119 6.97223 7.61933C8.73238 7.62729 10.1678 6.20709 10.1763 4.44947C10.1842 2.71361 8.75308 1.28121 7.00088 1.2706Z" fill="#F6F6F6"/>
</svg>
