<svg width="26" height="25" viewBox="0 0 26 25" fill="none" xmlns="http://www.w3.org/2000/svg">
<path d="M0 18.1964V7.49043C0.126606 7.22873 0.111973 6.9396 0.177503 6.66598C0.508968 5.2758 1.18526 4.05671 2.23183 3.02183C3.24785 2.01675 4.46938 1.32703 5.88685 0.940735C5.94029 1.0695 6.037 1.16786 6.13943 1.26384C6.64331 1.73359 7.14528 2.20453 7.64725 2.67607C7.72423 2.7482 7.81393 2.81378 7.82857 2.92645C7.72868 2.94016 7.62943 2.96043 7.52891 2.96639C6.59368 3.02123 5.73607 3.32109 4.98216 3.8129C3.30893 4.90441 2.44432 6.42455 2.43923 8.34647C2.4316 11.3271 2.43287 14.3072 2.43668 17.2878C2.43796 18.1803 2.61164 19.0357 3.06971 19.8339C3.72628 20.9779 4.68887 21.8041 5.95365 22.3216C6.68848 22.622 7.46847 22.7174 8.26373 22.7174C11.4193 22.718 14.5749 22.7174 17.7299 22.7144C18.0976 22.7144 18.4628 22.6995 18.8293 22.6345C20.6972 22.3025 22.0619 21.3409 22.9506 19.7761C23.3247 19.1168 23.4908 18.4026 23.557 17.6646C23.6772 17.6783 23.7465 17.7624 23.8242 17.8345C24.3268 18.3048 24.83 18.7752 25.3313 19.2467C25.4338 19.3427 25.5381 19.4339 25.6768 19.4822C25.2906 20.7442 24.6022 21.8447 23.6123 22.7687C22.5594 23.7523 21.3067 24.4176 19.8606 24.7669C19.4553 24.8647 19.0322 24.8706 18.6352 25H7.26107C7.20572 24.9064 7.09756 24.9267 7.01549 24.9165C5.85122 24.7711 4.77094 24.4074 3.78927 23.8071C1.72858 22.5469 0.486701 20.7818 0.099885 18.4968C0.0827073 18.3943 0.108156 18.2744 0 18.1958V18.1964Z" fill="white"/>
<path d="M23.5576 17.6646C23.5589 14.5647 23.5601 11.4654 23.5608 8.36555C23.5608 7.06062 23.1625 5.87968 22.2585 4.87759C21.0847 3.57623 19.5775 2.92228 17.7522 2.92347C14.4439 2.92526 11.1362 2.92585 7.82794 2.92705C7.81331 2.81438 7.72361 2.7494 7.64662 2.67667C7.14465 2.20573 6.64268 1.73419 6.13881 1.26444C6.03574 1.16846 5.93967 1.0701 5.88623 0.941334C6.69676 0.715997 7.52574 0.637903 8.36681 0.6385C11.4537 0.639096 14.5412 0.634923 17.6281 0.640288C18.7135 0.642076 19.7792 0.776802 20.7952 1.15594C22.7859 1.89872 24.267 3.16013 25.1908 4.97953C25.5095 5.60725 25.7595 6.25882 25.8709 6.94914C25.9485 7.43261 26 7.91786 26 8.40847C25.9975 11.3247 25.9981 14.2416 25.9987 17.1579C25.9987 17.946 25.9167 18.7233 25.6768 19.4816C25.5381 19.4333 25.4332 19.3421 25.3314 19.2461C24.83 18.7746 24.3274 18.3043 23.8242 17.8339C23.7472 17.7618 23.6772 17.6777 23.557 17.664L23.5576 17.6646Z" fill="white"/>
<path d="M18.6047 15.8774C17.2763 18.0527 14.6449 19.1835 12.0969 18.8455C9.23204 18.4652 7.10455 16.377 6.61976 13.9608C6.08916 11.317 7.44174 8.79 9.73592 7.56793C9.83008 7.58939 9.90069 7.64483 9.9675 7.70743C10.4459 8.15631 10.9244 8.6046 11.4034 9.0529C11.4632 9.10893 11.5243 9.16556 11.5332 9.25081C11.4136 9.30744 11.2946 9.36467 11.175 9.4213C10.1565 9.90179 9.46235 10.6732 9.11752 11.6663C8.82105 12.5188 8.83822 13.4082 9.24094 14.2518C9.92869 15.6932 11.1101 16.5171 12.7986 16.6124C14.5635 16.712 16.0967 15.7534 16.7959 14.1826C16.8933 14.1987 16.9601 14.2589 17.0262 14.3209C17.5028 14.7674 17.9793 15.2145 18.4564 15.661C18.5226 15.723 18.5818 15.7892 18.6047 15.8768V15.8774Z" fill="white"/>
<path d="M11.5332 9.25081C11.5237 9.16497 11.4632 9.10893 11.4034 9.0529C10.925 8.6046 10.4459 8.15631 9.96751 7.70743C9.90071 7.64483 9.83073 7.58939 9.73593 7.56793C10.9944 6.86748 12.359 6.59922 13.8007 6.78521C15.8486 7.0493 17.4754 7.98761 18.5392 9.66274C19.7861 11.6264 19.816 13.655 18.7262 15.698C18.6925 15.7612 18.6454 15.8178 18.6047 15.8774C18.5818 15.7892 18.5226 15.7236 18.4565 15.6616C17.9793 15.2151 17.5028 14.7686 17.0263 14.3215C16.9601 14.2595 16.8933 14.1993 16.796 14.1832C16.808 14.1456 16.8189 14.1075 16.8322 14.0699C17.7401 11.4452 15.6578 8.87525 12.7427 9.0207C12.3266 9.04157 11.9321 9.15483 11.5332 9.25081Z" fill="white"/>
<path d="M20.7627 6.6147C20.542 6.98073 20.2264 7.13035 19.8211 7.0618C19.4916 7.00576 19.204 6.73631 19.1448 6.42811C19.0717 6.04838 19.2314 5.75269 19.622 5.54584C19.9605 5.94167 20.3409 6.29756 20.7627 6.6147Z" fill="white"/>
<path d="M20.7627 6.61471C20.3403 6.29756 19.9605 5.94108 19.622 5.54584C19.984 5.39323 20.3193 5.4451 20.5948 5.70322C20.8703 5.96135 20.9262 6.27551 20.7627 6.61471Z" fill="white"/>
</svg>
