<svg width="21" height="21" viewBox="0 0 21 21" fill="none" xmlns="http://www.w3.org/2000/svg">
<path d="M0.00109617 5.90718C0.100848 5.78838 0.218687 5.70483 0.345843 5.63369C3.65574 3.77993 6.96509 1.92486 10.2733 0.0671888C10.4279 -0.0196245 10.5688 -0.0235409 10.7222 0.0626197C14.0584 1.934 17.3952 3.80408 20.7319 5.67416C20.8799 5.75705 21.0027 5.86149 21 6.08799C20.9972 6.31318 20.8723 6.41109 20.7237 6.49464C19.6725 7.08145 18.6224 7.67217 17.5695 8.2544C17.4363 8.32816 17.3842 8.41041 17.3859 8.59513C17.3952 9.79159 17.376 10.988 17.3963 12.1838C17.4067 12.8144 17.2269 13.3392 16.9123 13.8209C16.6196 14.2687 16.2623 14.6322 15.8715 14.9495C15.7838 15.0206 15.7427 15.0905 15.7465 15.223C15.7564 15.5565 15.7526 15.8901 15.7482 16.2236C15.7465 16.3254 15.7734 16.3757 15.8523 16.4279C16.4585 16.8287 16.5846 17.5872 16.162 18.2601C16.1242 18.3202 16.0946 18.3731 16.1012 18.4559C16.1428 19.0225 16.1795 19.5904 16.2173 20.157C16.2256 20.2784 16.2382 20.3998 16.2404 20.5218C16.2464 20.8606 16.1346 20.997 15.8529 20.9983C15.552 20.9996 15.2516 21.0016 14.9507 20.9977C14.72 20.9944 14.589 20.8489 14.6032 20.5741C14.6383 19.8926 14.6854 19.2125 14.7348 18.5317C14.7435 18.4096 14.7233 18.3221 14.658 18.2229C14.2585 17.6152 14.3988 16.8078 14.9699 16.4403C15.0625 16.3803 15.0993 16.3241 15.0949 16.2014C15.0872 15.9834 15.0927 15.7654 15.0927 15.516C14.6449 15.7791 14.207 16.0147 13.7482 16.1844C10.8883 17.2412 8.13087 16.9971 5.50225 15.2334C4.89716 14.8274 4.36277 14.3091 3.96431 13.6172C3.72754 13.206 3.59929 12.7615 3.60477 12.2504C3.61792 11.0298 3.60477 9.80921 3.61354 8.5886C3.61518 8.40127 3.55928 8.32229 3.42664 8.24918C2.39678 7.68065 1.37022 7.10298 0.342006 6.53119C0.213206 6.45939 0.0931748 6.3778 0 6.24791V5.90588L0.00109617 5.90718ZM1.12687 6.07689C1.17894 6.11475 1.20086 6.13368 1.22497 6.14739C4.27289 7.85754 7.3208 9.56705 10.3676 11.2798C10.4728 11.3392 10.5556 11.3249 10.6543 11.2694C11.5882 10.742 12.5238 10.2185 13.4583 9.69368C13.8891 9.45151 14.3193 9.20805 14.7759 8.95087C14.6942 8.90126 14.6405 8.86797 14.5868 8.83599C13.1936 8.00571 11.7998 7.17544 10.4065 6.34582C10.2936 6.27858 10.1933 6.1996 10.1709 6.03512C10.1495 5.87911 10.178 5.74269 10.2865 5.64282C10.4241 5.51685 10.5649 5.54948 10.708 5.63434C12.2645 6.56187 13.8228 7.48679 15.3777 8.41889C15.4999 8.492 15.5947 8.49983 15.7186 8.42934C16.7561 7.84122 17.7969 7.2616 18.8367 6.67806C19.1787 6.48615 19.5185 6.28903 19.878 6.08407C19.8035 6.04034 19.7552 6.01096 19.7059 5.98355C16.6799 4.28514 13.6534 2.58739 10.628 0.886367C10.5304 0.831538 10.457 0.84394 10.3632 0.896811C8.45972 1.96794 6.55403 3.03516 4.64887 4.10303C3.48145 4.75772 2.31402 5.41176 1.12687 6.07754V6.07689ZM4.26741 8.72894C4.26741 9.97239 4.26741 11.1845 4.2685 12.3966C4.2685 12.4528 4.28056 12.5089 4.29043 12.5644C4.37099 13.005 4.60393 13.3333 4.86263 13.6381C5.47868 14.3633 6.21969 14.8574 7.01716 15.2301C8.51015 15.9286 10.0547 16.1616 11.6507 15.9299C12.805 15.7628 13.8951 15.3705 14.9178 14.708C15.0477 14.6238 15.0982 14.5383 15.0976 14.3568C15.0905 12.8757 15.0932 11.394 15.0932 9.91299V9.65517C15.0209 9.69302 14.9721 9.71652 14.9244 9.74329C13.535 10.5207 12.1451 11.2961 10.7579 12.0801C10.5748 12.1832 10.4186 12.1812 10.2361 12.0748C9.66223 11.74 9.08125 11.4228 8.50247 11.0997C7.09992 10.3151 5.69791 9.53049 4.26686 8.72959L4.26741 8.72894ZM16.7325 8.73351C16.4492 8.89082 16.1834 9.04682 15.9115 9.18585C15.7893 9.24851 15.7449 9.32488 15.7454 9.49133C15.7526 10.9371 15.7493 12.3836 15.7509 13.8294C15.7509 13.8881 15.7246 13.9567 15.7822 14.0167C16.0902 13.7178 16.3736 13.3966 16.5736 12.9828C16.6597 12.8052 16.7287 12.6166 16.7293 12.4123C16.7336 11.1956 16.7315 9.97827 16.7315 8.73416L16.7325 8.73351ZM15.427 17.0944C15.2598 17.0891 15.0954 17.2817 15.0949 17.4814C15.0949 17.6707 15.2445 17.8587 15.4051 17.8704C15.5701 17.8822 15.7405 17.6955 15.7471 17.4951C15.7537 17.2967 15.5958 17.0989 15.4265 17.0937L15.427 17.0944ZM15.4434 18.7007C15.4286 18.7007 15.4144 18.7007 15.3996 18.7007C15.3656 19.1668 15.3338 19.6328 15.2966 20.0982C15.2861 20.2268 15.3492 20.219 15.4215 20.219C15.4933 20.219 15.5569 20.2281 15.5465 20.0989C15.5092 19.6335 15.4774 19.1668 15.4434 18.7007Z" fill="#F6F6F6"/>
</svg>
