<?xml version="1.0" encoding="UTF-8"?><svg id="Camada_2" xmlns="http://www.w3.org/2000/svg" viewBox="0 0 210.77 211.39"><defs><style>.cls-1{fill:#fff;}.cls-2{fill:#008d1c;}</style></defs><g id="Camada_1-2"><g><circle class="cls-1" cx="105.39" cy="104.66" r="93.7"/><polygon class="cls-1" points="25.29 145.95 11.69 198.36 64.51 182.78 25.29 145.95"/><path class="cls-2" d="M71.17,54.65c5.4-.3,7.56,2.64,9.16,6.82,2.02,5.27,4.01,10.59,6.6,15.59,2.4,4.63,1.17,8.15-1.82,11.77-6.45,7.82-6.38,7.84-.44,16.16,8.15,11.42,18.8,19.66,31.92,24.52,1.63,.6,4.56-.16,5.89-1.38,2.79-2.55,5.06-5.72,7.29-8.82,1.88-2.6,3.95-3.24,6.84-1.84,6.72,3.26,13.43,6.54,20.24,9.6,3.45,1.55,3.21,4.27,2.88,7.11-1.54,13.37-16.77,23.11-30.97,19.88-26.1-5.93-46.86-19.78-62.33-41.67-6.26-8.86-12.68-17.57-13.9-28.82-1.11-10.15,2.2-18.8,9.77-25.45,2.24-1.97,5.87-2.37,8.87-3.49Z"/><path class="cls-2" d="M106.11,0C48.31,0,1.45,46.86,1.45,104.67c0,20.1,5.67,38.9,15.51,54.84l-11.67,35.63L0,211.28l.03,.11,16.3-4.98,37.03-11.32c2.17,1.26,4.38,2.45,6.64,3.56,32.44,15.35,68.14,13.31,96.91-2.46,.46-.24,.91-.5,1.36-.77,31.38-18.06,52.5-51.94,52.5-90.75C210.77,46.86,163.92,0,106.11,0Zm90.72,106.84c-.02,1.07-.06,2.13-.13,3.19-2.77,47.62-42.27,85.38-90.59,85.38-18.42,0-35.57-5.49-49.88-14.94-.04-.01-.07-.01-.11-.01-1.1-.15-2.26-.1-3.23,.13l-14,4.28-17.23,5.27,9.3-28.35s-.01-.01,0-.01l.51-1.57c.04-.23,.06-.47,.06-.71v-1.78c0-.84-.22-1.63-.59-2.31l-.07-.02c-.19-.27-.37-.55-.55-.83-9.21-13.94-14.66-30.57-14.93-48.45-.02-.48-.02-.96-.02-1.44v-.67c0-.45,0-.9,.02-1.35,.01-.76,.03-1.52,.08-2.27,1.15-26.88,14.42-52.18,36.26-68.36,.2-.15,.4-.3,.6-.45,15.05-11.09,33.65-17.65,53.78-17.65,45.89,0,83.81,34.07,89.88,78.3,.14,.98,.26,1.95,.37,2.94,.03,.34,.06,.68,.09,1.03,.12,1.26,.22,2.53,.29,3.81,.08,1.55,.12,3.1,.12,4.67v.04c0,.71-.01,1.42-.03,2.13Z"/><path d="M30.32,154.56c.24,.25,.44,.54,.62,.85l-.07-.02c-.19-.27-.37-.55-.55-.83Z"/><path d="M31.47,160.21c-.08,.56-.25,1.09-.51,1.57l.51-1.57Z"/></g></g></svg>