<?xml version="1.0" encoding="UTF-8"?><svg id="Camada_2" xmlns="http://www.w3.org/2000/svg" viewBox="0 0 1715.43 1715.43"><defs><style>.cls-1{fill:#fff;}.cls-2{fill:#e71d73;}</style></defs><g id="Camada_1-2"><rect class="cls-2" x="0" y="0" width="1715.43" height="1715.43" rx="857.72" ry="857.72"/><g><path class="cls-1" d="M1349.02,922.9c-28.42-.04-56.84-.18-85.25-.02-4.82,.03-8.36-1.14-11.74-4.74-10.68-11.39-25.68-20.74-31.45-34.14-5.46-12.69-1.07-29.5-1.65-44.48-.26-6.67,1.81-11.36,6.66-15.84,8.91-8.23,17.47-16.86,25.74-25.73,3.84-4.12,7.88-5.46,13.4-5.42,28.1,.22,56.2,.04,84.3,0v130.37Zm-28.77-64.64c0-9.56-.47-19.15,.16-28.67,.44-6.68-2.17-7.93-8.11-7.73-11.78,.41-23.58,.11-35.37,.12-7.38,0-27.45,14.29-27.6,21.33-.33,14.94-5.28,31.55,11.42,42.16,4.34,2.76,6.48,8.35,13.19,8.11,13.37-.49,26.77-.38,40.14-.03,5.27,.14,6.42-1.84,6.27-6.63-.31-9.55-.09-19.12-.09-28.68Z"/><path class="cls-1" d="M888.9,366.93c27.01,11.28,34.4,22.71,34.4,53.2,0,10.21,.05,20.42-.01,30.64-.14,24.58-14.58,42.59-38.83,45.3-18.62,2.08-37.62,2.53-56.27-.66-19.96-3.41-34.43-20.54-34.94-40.85-.38-15.31-.68-30.66,.07-45.94,1.09-22,14.34-34.74,34.23-41.68h61.35Zm-30.72,100.15c6.69,0,13.38,.17,20.06-.04,10.36-.32,15.3-4.76,15.63-15.14,.43-13.68,.45-27.39-.03-41.06-.34-9.84-5.96-14.88-16.01-15.07-13.05-.25-26.11-.25-39.16,0-10.43,.2-15.85,5.44-16.13,15.96-.36,13.36-.39,26.75,.03,40.11,.32,10.4,5.23,14.89,15.56,15.21,6.68,.21,13.37,.04,20.06,.04Z"/><path class="cls-1" d="M926.9,637.39c.16-2.25,.69-4.18,.37-5.95-3.68-20.15,5.43-34.4,18.83-48.71,35.35-37.77,69.34-76.81,103.81-115.4,2.31-2.58,4.41-5.46,6.06-8.49,3.4-6.22,1.82-11.99-3.32-16.3-5.51-4.62-11.77-4.4-17.63-.36-2.33,1.61-4.17,3.93-6.2,5.96-38.4,38.41-76.87,76.75-115.09,115.34-4.64,4.69-9.26,6.55-15.85,6.46-26.51-.37-53.04-.39-79.55,.01-6.68,.1-11.16-2.08-15.75-6.7-38.7-39.02-77.62-77.8-116.46-116.68-3.87-3.88-7.61-7.55-13.85-7.21-9.95,.54-15.8,9.5-12.14,18.87,1.69,4.32,4.9,7.41,7.86,10.73,14.25,15.96,28.42,32,42.91,47.75,3.41,3.71,3.02,5.59-.5,8.92-16.94,16.03-16.79,16.1-32.12-1.25-12.47-14.12-25.41-27.86-37.54-42.27-22.98-27.29-8.96-65.75,26.07-71.74,15.39-2.63,27.99,3.36,38.74,14.12,36.12,36.18,72.4,72.19,108.3,108.57,5.18,5.25,10.38,7.19,17.54,7.03,17.88-.41,35.79-.55,53.67,.06,7.76,.26,12.89-2.39,18.21-7.77,35.93-36.36,72.07-72.51,108.37-108.5,18.97-18.81,45.44-18.95,63.08-.87,15.84,16.23,16.37,41.61,.33,59.84-30.58,34.78-61.62,69.16-92.47,103.7-3.4,3.81-6.28,8.34-10.3,11.31-16.03,11.82-17.42,28.26-15.92,46.05,.34,4,1.43,6.3,5.03,8.13,45.24,22.97,79.36,57.12,102.5,102.28,.84,1.65,1.81,3.58,3.28,4.49,5.42,3.39,34.22-.3,39.22-4.77,42.15-37.68,84.1-75.58,126.52-112.94,24.61-21.68,61.13-12.43,70.92,17.49,5.85,17.88,.81,33.21-12.21,46.25-36.57,36.62-73.09,73.3-109.84,109.74-4.19,4.16-6,8.21-5.89,14.13,.37,19.16,.36,38.34,0,57.5-.12,6.21,1.71,10.58,6.16,14.99,37,36.65,73.94,73.36,110.48,110.46,24.44,24.8,14.44,64.32-18.33,73-15.9,4.21-30.18-.09-42.49-11.12-38.78-34.74-78-69-116.2-104.36-10.66-9.86-21.1-14.34-35.59-13.67-9.77,.45-14.87,2.99-19.59,11.83-22.27,41.68-54.95,73.24-96.86,95.01-5.35,2.78-6.46,5.97-7.25,11.59-2.7,19.16,4.38,33.37,18.16,46.3,11.7,10.97,10.86,11.87-1.25,22.68-1.67,1.49-3.51,2.84-4.94,4.53-3.26,3.87-5.75,3.74-8.89-.42-3.65-4.82-7.62-9.54-12.12-13.56-14.75-13.18-24.05-28.31-19.95-49.13,1.15-5.83-.96-6.55-6.81-4.92-41.45,11.51-83.1,11.56-124.54-.05-6.15-1.72-7.78-.4-6.71,5.09,3.95,20.37-5.94,34.35-19.18,48.57-35.26,37.85-69.31,76.84-103.78,115.43-2.3,2.58-4.3,5.52-5.95,8.56-3.2,5.91-1.47,11.36,3.12,15.56,4.99,4.57,11.01,4.84,16.76,1.36,2.67-1.61,4.86-4.08,7.1-6.33,38.65-38.61,77.35-77.17,115.81-115.98,4.43-4.47,8.82-6.19,15.01-6.12,27.15,.3,54.31,.29,81.47,0,5.61-.06,9.39,1.75,13.28,5.66,38.95,39.21,78.09,78.24,117.19,117.31,2.69,2.69,5.08,6.04,8.93,6.97,6.28,1.51,12.18,.7,16.16-5.16,4.2-6.18,3.05-12.36-1.44-17.62-9.11-10.69-18.42-21.23-28.08-31.43-4.26-4.5-3.9-6.98,.73-11.05,16.33-14.37,16.15-14.55,30.66,1.95,5.91,6.71,12.01,13.26,17.8,20.07,16.59,19.51,15.78,45.62-1.8,61.95-17.73,16.47-43.24,15.43-61.75-2.95-36.72-36.47-73.31-73.08-109.77-109.82-4.11-4.14-8.08-6.18-14.08-6.05-19.16,.4-38.34,.36-57.5,.03-6.17-.11-10.58,1.61-15.02,6.09-36.65,37-73.42,73.88-110.46,110.48-24.74,24.45-64.28,14.69-73.1-18.05-4.27-15.86-.11-30.18,10.93-42.51,36.66-40.91,72.85-82.27,110.12-122.61,12.14-13.14,5.85-27.59,7.1-41.56,.24-2.66-3.62-3.23-5.8-4.36-44.08-22.92-77.7-56.33-100.35-100.55-2.67-5.22-5.9-5.97-11.1-6.53-17.54-1.9-30.97,3.27-44.29,15.88-37.1,35.12-75.74,68.62-114.03,102.46-17.76,15.7-42.15,16.14-58.47,1.89-19.95-17.41-20.51-45.31-.91-65.04,36.47-36.72,73.07-73.32,109.84-109.74,4.45-4.41,6.29-8.77,6.18-14.99-.36-19.16-.35-38.34,0-57.5,.11-5.9-1.65-9.97-5.86-14.15-36.98-36.66-73.87-73.42-110.49-110.45-23.01-23.27-16.26-60.67,13-71.8,17.21-6.54,33.28-3.09,47.1,9.26,40.99,36.58,82.36,72.75,122.61,110.13,13.2,12.26,27.58,5.97,41.52,7.44,2.77,.29,3.39-3.49,4.51-5.66,23-44.43,56.65-78.2,101.21-100.97,4.23-2.16,6.65-4.64,5.79-9.52-.05-.31-.05-.64,0-.96,2.48-17.84-2.03-32.61-16.21-45-10.27-8.97-18.37-20.38-27.8-30.36-3.52-3.72-3.04-5.62,.53-8.97,16.73-15.69,16.64-15.83,31.92,1.15,10.47,11.63,20.41,23.78,31.46,34.84,7.09,7.09,10.38,14.44,9.48,24.46-.55,6.18-2.94,14.56,1.27,18.14,2.78,2.36,11.15-1.77,16.99-3.11,38.4-8.8,76.5-7.52,114.35,3.2,1.49,.42,3.04,.61,4.96,.99Zm-189.61,212.52c-18.63-.54-36.02,2.61-52.52,8.28-34.07,11.7-29.88,1.59-23.67,36.97,14.2,80.88,79.49,147.97,168.34,161.72,4.5,.7,6.09,.05,5.33-5.3-3.92-27.49,3.72-52.42,18.78-75.1,14.34-21.59,34.34-29.02,59.74-23.71,30.55,6.39,57.92,20.58,85.15,34.95,7.25,3.82,11.19,2.81,16.09-3.52,37.28-48.19,51.26-101.96,41.46-162.33-12.91-79.55-82.08-149.29-161.64-161.77-28.59-4.48-29.74-2.99-32.51,26.05-3.01,31.63,7.08,58.17,27.82,81.48,11.24,12.62,23.57,24.31,33.19,38.33,7.18,10.46,12.4,21.84,11.38,34.73-3.48,43.92-44.68,70.52-85.84,55.76-21.74-7.79-40.94-20.39-60.41-32.37-15.95-9.81-32.82-15.17-50.7-14.17Zm-78.63-14.69c8.82-2.52,16.63-4.85,24.49-7,46.21-12.65,90.37-11.73,131.31,17.45,14.4,10.27,30.19,18.88,47.3,24.33,16.03,5.1,24.7,1.67,35.74-13.65,9.49-13.18,9.84-22.75-.2-35.55-8.06-10.27-16.93-19.94-25.83-29.5-33.29-35.76-47.64-77-35.68-125.4,2.08-8.4-.72-8.43-6.86-7.31-74.93,13.67-127.83,55.11-157.61,125.4-6.81,16.06-10.94,32.93-12.66,51.22Zm419.92-46.18c.35,1.88,.51,3.44,.94,4.93,11.31,39.14,11.7,78.53,2.67,118.12-3.37,14.75-3.46,15.3,11.72,14.54,11.73-.59,20.68,2.2,29.8,10.61,41.08,37.88,83.04,74.8,124.74,112.01,2.59,2.31,5.36,4.63,8.45,6.12,10.28,4.99,20.33-2.25,19.64-13.64-.33-5.43-3.87-8.54-7.23-11.89-39.06-39.09-78.09-78.21-117.3-117.15-4.15-4.12-6.03-8.16-5.96-14.13,.34-26.83,.36-53.66,0-80.49-.09-6.58,1.76-11.21,6.45-15.86,38.58-38.21,76.91-76.67,115.3-115.08,2.25-2.25,4.73-4.4,6.42-7.04,3.64-5.65,3.57-11.66-.82-16.81-4.36-5.11-10.09-6.71-16.31-3.32-3.03,1.66-5.9,3.77-8.48,6.08-38.58,34.47-77.62,68.45-115.37,103.8-14.31,13.4-28.54,22.53-48.69,18.85-1.79-.33-3.73,.19-5.97,.35Zm-440.3-.41c-8.11,0-15.46-.46-22.73,.13-7.56,.61-12.98-1.91-18.63-7.03-43.07-39.02-86.47-77.68-129.84-116.38-2.57-2.29-5.54-4.4-8.69-5.73-9.24-3.89-18.18,2.44-18.52,12.46-.22,6.25,3.61,9.88,7.48,13.74,38.87,38.83,77.66,77.74,116.66,116.44,4.37,4.34,6.49,8.57,6.41,14.91-.36,27.15-.35,54.31,0,81.45,.08,5.99-1.87,10-6.01,14.11-38.76,38.49-77.34,77.16-115.95,115.8-2.25,2.25-4.73,4.41-6.38,7.07-3.56,5.71-3.33,11.73,1.16,16.77,4.13,4.64,9.4,6.16,15.57,3.44,3.61-1.59,6.45-4.04,9.3-6.58,38.54-34.51,77.55-68.53,115.38-103.81,14.02-13.07,27.82-22.56,47.79-18.66,6.9,1.35,6.66-1.68,5.07-7.42-5.81-20.96-8.49-42.35-8.33-64.21,.16-22.46,4.07-44.24,10.26-66.5Zm346.97,224.8c-26.26-12.42-50.87-26.39-78.85-32.26-8.52-1.79-17-1.36-23.09,5.34-17.16,18.87-22.44,41.45-18.85,66.32,.58,4.01,2.69,6.06,7.84,5.61,41.65-3.57,78.9-17.95,112.95-45.01Z"/><path class="cls-1" d="M368.23,855.87c-6.31-19.15,4.83-31.88,18.06-45.77,12.76-13.39,25.75-17.77,43.93-18.21,21.15-.51,36.14,5.23,50.66,20.86,11.71,12.6,16.58,24.37,17.27,41.58,.91,22.33-5.55,38.08-22.07,53.12-11.97,10.9-23.06,15.2-39.1,16.05-23.23,1.24-39.44-5.85-55.64-22.69-13.08-13.6-15.69-27-13.11-44.93Zm99.32,1.55c0-19.58-13.1-35.79-29.26-35.3-10,.3-21.2-3.84-28.97,7.1-5.08,7.16-15.02,10.92-13.29,22.59,1.51,10.24-2.91,21.49,8.24,29.53,7.25,5.23,11.8,12.9,23.12,12.46,27.73-1.08,40.16-11.47,40.16-36.38Z"/><path class="cls-1" d="M858.35,1348.51c-36.03,.02-65.22-29.02-65.18-64.83,.04-35.51,30.09-65.39,65.41-65.05,35.27,.34,64.55,29.66,64.69,64.79,.15,35.84-29,65.06-64.93,65.08Zm35.54-65.17c-.37-19.95-16.17-35.1-36.38-34.88-19.45,.21-34.97,15.9-34.96,35.34,0,19.56,16.52,36.07,35.91,35.88,19.46-.18,35.79-16.94,35.43-36.35Z"/><path class="cls-1" d="M453.33,410.68q-14.62,0-14.61-17.52,0-12.48,18.72-12.46c11.29,0,11.36,0,11.24,18.96-.08,13.17,1.57,10.8-15.35,11.03Z"/><path class="cls-1" d="M1262.41,410.6q-14.59,0-14.58-17.4,0-12.45,18.59-12.44c11.27,0,11.34,0,11.22,18.83-.08,13.12,1.7,10.79-15.23,11.01Z"/><path class="cls-1" d="M396.87,438.2q14.32,0,14.32,17.82c0,12.17,0,12.32-18.06,12.12-14.39-.16-11.79,2.7-11.87-18.25-.05-13.93-1.89-11.45,15.61-11.69Z"/><path class="cls-1" d="M511.71,438.2q14.51,0,14.51,17.63,0,12.36-17.87,12.36c-12.14,0-12.21,0-12.1-19.06,.08-13.09-1.53-10.7,15.45-10.93Z"/><path class="cls-1" d="M1204.92,468.12q-14.61,0-14.61-17.38,0-12.48,18.57-12.46c11.29,0,11.37,0,11.25,18.8-.08,13.14,1.72,10.81-15.21,11.04Z"/><path class="cls-1" d="M1319.78,468.19q-14.51,0-14.51-17.63,0-12.36,17.87-12.36c12.14,0,12.21,0,12.1,19.06-.08,13.09,1.53,10.7-15.45,10.93Z"/><path class="cls-1" d="M438.72,510.19q0-14.47,17.67-14.47,12.32,0,12.32,17.91c0,12.09,0,12.17-18.14,12.05-14.07-.09-11.6,1.87-11.84-15.49Z"/><path class="cls-1" d="M1247.75,510.4q0-14.68,17.46-14.68,12.54,0,12.53,18.65c0,11.35,0,11.42-18.89,11.31-13.23-.08-10.87,1.62-11.09-15.28Z"/><path class="cls-1" d="M453.37,1219.71q-14.66,0-14.65-17.48,0-12.52,18.68-12.5c11.32,0,11.4,0,11.28,18.92-.08,13.2,1.6,10.84-15.31,11.07Z"/><path class="cls-1" d="M1262.33,1219.71q-14.58,0-14.58-17.56,0-12.44,18.76-12.43c11.25,0,11.32,0,11.21,18.99-.08,13.14,1.55,10.76-15.38,10.99Z"/><path class="cls-1" d="M411.19,1262.64q0,14.58-17.56,14.58-12.44,0-12.43-18.76c0-11.25,0-11.32,18.99-11.21,13.14,.08,10.76-1.55,10.99,15.38Z"/><path class="cls-1" d="M511.53,1247.24q14.69,0,14.69,17.45,0,12.55-18.64,12.54c-11.36,0-11.43,0-11.32-18.88,.08-13.24-1.62-10.88,15.27-11.11Z"/><path class="cls-1" d="M1204.71,1277.22q-14.47,0-14.47-17.67,0-12.32,17.91-12.32c12.09,0,12.17,0,12.05,18.14-.09,14.07,1.87,11.6-15.49,11.84Z"/><path class="cls-1" d="M1305.27,1261.93q0-14.69,17.45-14.69,12.55,0,12.54,18.64c0,11.36,0,11.43-18.88,11.32-13.24-.08-10.88,1.62-11.11-15.27Z"/><path class="cls-1" d="M454.09,1304.75q14.62,0,14.61,17.52,0,12.48-18.72,12.46c-11.29,0-11.36,0-11.24-18.96,.08-13.17-1.58-10.8,15.35-11.03Z"/><path class="cls-1" d="M1277.74,1319.36q0,15.37-17.72,15.37-12.27,0-12.26-17.96c0-12.03,0-12.1,18.2-12,13.89,.07,11.57-1.64,11.79,14.59Z"/><path class="cls-1" d="M1004.27,1152.86c2.33,2.55,4.44,4.79,6.48,7.1,12.89,14.62,12.4,14.13-1.42,27.75-6.63,6.53-9.56,4.5-14.41-1.34-12.02-14.46-12.26-14.28,1.76-26.97,2.33-2.11,4.76-4.11,7.59-6.54Z"/><path class="cls-1" d="M1004.12,827.04q-14.9,0-14.9-16.86,0-12.05,18.76-12.04c11.04,0,10.1,.07,11.32,18.74,.94,14.38-8.47,9.36-15.18,10.16Z"/><path class="cls-1" d="M975.28,769.53q-14.82,0-14.82-16.94,0-11.97,18.84-11.96,10.95,0,10.94,17.88,0,11.01-14.96,11.01Z"/></g></g></svg>