<?xml version="1.0" encoding="UTF-8"?><svg id="Camada_2" xmlns="http://www.w3.org/2000/svg" viewBox="0 0 1715.43 1715.43"><defs><style>.cls-1{fill:#fff;}.cls-2{fill:#2d2e83;}</style></defs><g id="Camada_1-2"><rect class="cls-2" x="0" y="0" width="1715.43" height="1715.43" rx="857.72" ry="857.72"/><g><path class="cls-1" d="M1451.57,771.93c-23.61,23.84-46.98,47.94-70.95,71.41-11.61,11.36-26.14,13.18-40.8,6.88-6.19-2.66-9.58-1.97-13.83,2.75-6.45,7.17-13.39,13.94-20.47,20.52-8.33,7.74-18.95,7.89-25.89,.83-6.86-6.96-6.63-17.86,1.27-25.85,8.37-8.47,17.31-16.38,26.79-25.27-63.56-60.73-125.5-119.92-188.36-179.98-20.27,19.79-40.09,39.1-59.87,58.46-19.51,19.09-26.45,21.44-49.28,5.83-37.91-25.93-78.3-36.46-124.23-32.76-35.33,2.85-71.09,.13-106.63,.95-6.87,.16-15.17,3.55-20.18,8.25-21.13,19.83-41.58,40.42-61.66,61.32-19.56,20.36-10.5,51.57,16.45,58.27,12.4,3.08,22.73-1.58,32.08-9.22,16.45-13.45,32.56-27.34,49.42-40.26,4.84-3.71,11.71-6.5,17.73-6.67,25.88-.72,51.79-.49,77.69-.24,15.41,.15,21.12,7.12,20.68,22.53-.1,3.56,1.93,8.02,4.44,10.68,10.86,11.53,22.33,22.48,33.45,33.78,9.83,9.99,10.77,20.67,2.76,28.37-7.94,7.64-17.69,6.73-27.52-2.97-16.51-16.29-32.84-32.76-49.25-49.15-1.91-1.91-3.64-4.12-5.85-5.59-6.81-4.51-53.98-1.7-60.46,3.55-14.41,11.68-28.56,23.69-43.12,35.17-30.73,24.21-71.58,21-96.98-7.36-24.8-27.68-23.51-68.63,3.63-96.34,22.16-22.63,44.92-44.68,68.96-68.51-7.48-5.13-13.69-10.06-20.53-13.86-6.02-3.35-12.65-5.68-19.16-8.05-25.34-9.19-51.36-17.15-67.72-42.82-32.24,32.43-62.98,63.39-93.75,94.32-10.09,10.14-20.1,20.36-30.39,30.29-9.28,8.96-18.93,9.59-26.62,2.24-8.13-7.76-7.61-17.71,2-27.36,44.48-44.63,89.07-89.13,133.62-133.69,13.45-13.45,13.44-17.92-.07-31.45-20.21-20.24-40.49-40.41-60.64-60.72-10.05-10.13-11.02-19.14-3.33-27.35,8-8.54,17.8-7.83,28.18,2.47,21.96,21.77,43.83,43.64,65.63,65.57,15.41,15.5,19.14,33.52,12.09,54.27-1.11,3.26,.21,8.69,2.44,11.51,8.74,11.06,19.84,18.56,33.69,23.03,29.56,9.54,57.68,21.96,79.06,46.06,2.66,3,8.89,3.96,13.47,3.98,51.02,.27,102.06-.32,153.07,.56,11.1,.19,22.88,3.61,32.99,8.41,19.06,9.04,37.14,20.15,56.51,30.89,19.76-21.07,39.28-41.88,59.77-63.73-11.53-20.01-4.29-37.74,13.3-54.82,41.3-40.13,81.63-81.27,122.36-121.98,2.73-2.73,5.37-5.63,8.44-7.92,8.05-6.01,17.82-5.29,23.88,2.02,6.25,7.53,5.95,15.6,.12,23.31-2.08,2.75-4.78,5.04-7.24,7.5-40.72,40.73-81.46,81.45-122.17,122.19-2.95,2.95-5.75,6.05-9.38,9.88,78.08,74.58,155.64,148.68,233.85,223.39,21.17-21.32,41.53-41.92,62-62.41,13.41-13.42,21.9-13.09,34.51,1.02v13.92Z"/><path class="cls-1" d="M642.83,973.12c52.93-18.34,99.08,24.46,84.15,78.54,29.14,13.11,37.97,23.51,45.58,53.94,7.68,1.35,15.77,1.95,23.35,4.25,35.57,10.8,53.78,48.94,39.46,83.31-2.8,6.72-1.58,10.19,3.14,14.7,12.02,11.48,23.44,23.57,35.4,35.12,12.76,12.32,29.36,12.91,40.22,1.85,10.93-11.13,10.01-27.39-2.63-40.15-21.22-21.42-42.74-42.54-63.87-64.04-11.23-11.43-8.32-28.59,5.87-30.95,6.23-1.03,15.19,2.79,20.11,7.39,21.43,20.07,41.61,41.47,62.76,61.85,4.76,4.59,11.21,8.75,17.53,10.14,11.59,2.55,21.22-2.36,27.31-12.87,6.24-10.76,5.11-22.21-4.27-31.89-19.63-20.26-39.77-40.04-59.69-60.02-2.73-2.74-5.59-5.36-8.11-8.28-7.01-8.11-7.14-18.21-.52-25.02,7.22-7.42,17.39-7.55,25.73,.48,13.36,12.87,26.31,26.17,39.43,39.29,8.75,8.75,17.38,17.61,26.27,26.21,12.99,12.57,28.9,13.23,40.1,1.89,11.26-11.4,10.58-27.01-2.31-40.11-19.79-20.12-39.86-39.95-59.81-59.9-2.18-2.19-4.47-4.29-6.45-6.65-6.56-7.81-6.53-17.21-.06-24.05,6.7-7.08,17.14-7.74,24.85-.49,12.94,12.18,25.31,24.97,37.91,37.52,9.58,9.55,18.99,19.28,28.75,28.65,13.3,12.78,28.82,13.45,40.11,2.06,11.08-11.17,10.35-27.35-2.33-40.1-38.17-38.36-76.5-76.56-114.75-114.84-2.46-2.46-5.15-4.78-7.15-7.58-5.67-7.92-5.63-16.11,1.18-23.16,6.84-7.08,15.01-7.37,23.08-1.83,2.83,1.94,5.17,4.63,7.63,7.09,37.73,37.71,75.48,75.39,113.09,113.22,2.68,2.7,4.29,6.47,6.75,10.3,32.19-32.32,61.89-62.19,91.68-91.96,3.24-3.24,7.04-8.23,10.65-8.29,6.63-.12,15.7,.8,19.32,5.05,3.59,4.21,2.74,13.22,1.83,19.85-.48,3.48-5.12,6.5-8.11,9.5-30.85,30.92-61.83,61.72-92.51,92.8-3.27,3.31-6.48,8-7.09,12.42-5.26,38.18-23.73,56.78-62.46,61.39-3.52,37.84-24.58,58.91-62.87,63.18-4.05,37.19-24.34,58.7-62.55,63.01-1.03,4.75-2,9.54-3.12,14.3-11.02,46.57-67.16,64.18-102.19,31.54-15.2-14.17-28.91-29.94-45.03-46.79-9.87,10.75-18.03,19.48-26.02,28.35-19.01,21.13-42.2,30.5-69.69,21.02-27.05-9.33-41.08-29.99-43.13-58.42-40.22-7.32-57.3-24.35-62.27-61.43-9.27-2.79-18.89-4.39-27.32-8.48-18.48-8.97-29.71-24.07-33.07-44.64-.93-5.68-1.27-10.75-9.59-11.7-24.99-2.86-42.09-17.14-49.96-40.69-7.83-23.43-2.75-44.94,14.38-63.2,1.56-1.66,3.06-3.37,5.07-5.59-3.9-4.55-7.73-8.73-11.25-13.17-13.14-16.6-18.29-36.04-16.09-56.51,2.32-21.56-4.55-37.23-21.07-51.2-17.06-14.42-31.82-31.55-48.01-47.05-2.83-2.71-7.89-4.76-11.73-4.48-15.21,1.09-28.42-3.07-39.14-13.67-29.68-29.35-59.15-58.92-88.55-88.56-8.79-8.87-9.06-19.04-1.38-26.53,7.41-7.23,17.75-6.69,26.65,2.12,27.46,27.2,54.71,54.62,82.06,81.93,13,12.97,17.25,12.9,30.52-.31,7.12-7.09,14.05-14.39,21.39-21.24,8.67-8.09,18.33-8.07,25.68-.46,7.04,7.29,7.23,16.63-.56,24.82-6.35,6.68-13.68,12.43-21.44,19.36,23.48,23.47,44.84,45.68,67.21,66.81,10.14,9.58,15.03,19.73,13.72,33.66-.94,9.96,.11,20.09-.25,30.13-.55,15.85,5.61,28.42,17.52,38.52,32.84-37.24,88.71-32.58,110.96,18.76Zm52.72,58.21c-1.47-12.09-6.78-20.06-16.66-24.79-11.13-5.33-21.3-2.43-29.66,5.74-20.12,19.66-40.04,39.51-59.66,59.67-11.03,11.33-11.12,27.04-1.14,37.35,10.72,11.07,25.97,11.19,38.02-.56,20.14-19.63,40.09-39.47,59.52-59.8,4.45-4.66,6.45-11.67,9.58-17.59Zm78.83,111.38c-2.04,.85-8.42,1.79-12.24,5.41-17.65,16.73-35.18,33.66-51.56,51.62-9.37,10.27-7.19,24.62,2.74,34.49,9.59,9.54,23.63,12.03,33.53,3.04,18.55-16.84,36.11-34.84,53.18-53.2,7.14-7.68,6.62-18.03,1.59-27.18-4.96-9.02-12.74-14.32-27.24-14.19Zm-37.14-27.68c-1.11-13.56-5.57-22.18-15.61-26.85-10.52-4.88-20.56-3.13-28.83,4.8-13.91,13.34-27.56,26.97-40.95,40.83-11.15,11.54-11.54,26.82-1.62,37.28,10.35,10.91,26.13,11.07,38.09-.34,13.66-13.04,27.13-26.32,39.97-40.17,4.47-4.82,6.78-11.65,8.96-15.55Zm-189.37-59.74c2.63-1.1,8.96-2.05,12.82-5.65,14.67-13.67,29.13-27.68,42.53-42.58,9.05-10.07,6.97-25.44-2.73-34.5-9.05-8.46-24.54-9.6-33.84-1-14.44,13.36-28.38,27.33-41.76,41.76-7.1,7.65-7.89,17.45-3.19,27.04,4.64,9.47,12.41,14.43,26.16,14.94Z"/></g></g></svg>