<?xml version="1.0" encoding="UTF-8"?><svg id="Camada_2" xmlns="http://www.w3.org/2000/svg" viewBox="0 0 1423.88 1423.88"><defs><style>.cls-1{fill:#fff;stroke:#8b8c8c;stroke-miterlimit:10;stroke-width:5px;}.cls-2{fill:#b4cc18;}</style></defs><g id="Camada_1-2"><g><circle class="cls-1" cx="711.94" cy="711.94" r="709.44"/><g><path class="cls-2" d="M921.91,943.36h-5.48c-34.82,0-69.65-.09-104.47,.12-4.19,.03-5.73-1.43-6.91-5.11-5.09-15.8-10.54-31.48-15.63-47.27-.95-2.93-2.28-3.8-5.27-3.79-46.99,.09-93.98,.09-140.96,0-3.23,0-4.5,1.04-5.53,4.1-5.36,16.05-11.04,31.99-16.57,47.99-.78,2.25-1.29,4.06-4.53,4.05-36.82-.14-73.65-.09-110.47-.11-.47,0-.94-.17-1.91-.35,4.11-11.84,8.15-23.57,12.25-35.28,49.15-140.43,98.33-280.85,147.36-421.32,1.32-3.79,3.08-4.61,6.73-4.59,30.82,.13,61.65,.21,92.47-.07,4.76-.04,6.49,1.55,7.89,5.79,46.97,142.07,94.06,284.09,141.14,426.13,3.23,9.74,6.48,19.46,9.9,29.72Zm-206.17-273.73c-12.93,36.78-25.46,72.52-38.08,108.22-1.6,4.52,1.9,2.87,3.42,2.88,22.46,.1,44.92-.03,67.38,.16,4.11,.04,4.58-.93,3.33-4.61-10.4-30.73-20.63-61.52-30.95-92.29-1.51-4.5-3.17-8.94-5.1-14.37Z"/><path class="cls-2" d="M456.18,607.64c-16.66,0-33.32-.07-49.98,.06-3.05,.02-4.16-.58-4.37-3.97-.46-7.8-4.21-13.69-11.29-17.6-11.61-6.42-23.54-9.78-36.74-5.76-12.14,3.69-19.34,12.01-20.41,24.37-1.08,12.44,4.44,22.42,15.48,28.58,13.26,7.39,27.69,11.97,42.16,16.29,24.71,7.38,49.31,15.08,70.76,30,37.92,26.38,59.92,62.3,64.33,108.61,6.37,66.86-33.07,124.78-91.43,149.8-60.34,25.86-136.33,16.12-185.26-34.84-24.39-25.39-38.77-55.63-42.5-90.8-.51-4.81-.78-9.61-.97-14.44-.11-2.71,.59-3.78,3.55-3.77,33.99,.09,67.97,.06,101.96,.06,1.82,0,3.66-.35,3.69,2.56,.23,20.52,11.08,34.53,28.47,43.48,17.53,9.03,35.17,6.59,52-2.67,21.24-11.69,27.99-39.45,14.48-58.94-5.98-8.62-14.21-14.55-23.98-17.98-21.59-7.59-43.51-14.27-64.93-22.31-33.98-12.75-61.93-33.26-80.12-65.55-36.84-65.4-13.33-146.52,52.65-183.3,61.97-34.55,150.74-16.19,192.31,40.64,15.75,21.53,24.14,45.6,25.16,72.29,.15,3.99-.66,5.38-5.03,5.3-16.65-.29-33.32-.12-49.98-.12Z"/><path class="cls-2" d="M1147.44,607.64c-16.5,0-32.99-.08-49.49,.07-3.37,.03-5.04-.4-5.16-4.41-.21-7.54-4.07-13.06-10.67-16.86-11.66-6.72-23.76-10.15-37.17-6.07-12.36,3.76-19.55,12.19-20.44,24.84-.84,12.01,4.34,21.81,15.03,27.84,14.4,8.12,30.18,12.84,45.92,17.55,24.08,7.22,47.91,15.1,68.68,29.81,36.28,25.69,57.77,60.37,62.82,104.83,7.68,67.56-31.02,127.22-91.71,153.01-60.04,25.52-135.14,15.95-184.1-34.48-25.56-26.32-40.27-57.83-43.35-94.56-.32-3.81-.49-7.63-.89-11.43-.31-2.9,.88-3.62,3.66-3.61,33.82,.08,67.65,.1,101.47-.03,3.4-.01,4.24,1.23,4.27,4.28,.29,24.15,21.17,41.59,37.81,45.47,19.31,4.5,36.57,.23,51.4-13.04,18.59-16.63,16.8-48.96-6.09-63.86-7.19-4.68-15.06-7.67-23.1-10.34-20.47-6.78-41.25-12.69-61.13-21.11-32.57-13.79-58.35-35.15-75.3-66.82-29-54.2-14.99-124.82,32.6-163.78,27.99-22.91,60.04-34.25,95.9-32.89,48.39,1.83,89.72,19.36,119.45,59.19,15.64,20.95,23.38,44.88,24.48,71.02,.19,4.37-.97,5.56-5.42,5.48-16.49-.3-32.99-.12-49.48-.12Z"/></g></g></g></svg>