<?xml version="1.0" encoding="UTF-8"?><svg id="Camada_2" xmlns="http://www.w3.org/2000/svg" viewBox="0 0 1423.88 1423.88"><defs><style>.cls-1{fill:#fff;stroke:#8b8c8c;stroke-miterlimit:10;stroke-width:5px;}.cls-2{fill:#115385;}.cls-3{fill:#010101;}</style></defs><g id="Camada_1-2"><g><circle class="cls-1" cx="711.94" cy="711.94" r="709.44"/><path class="cls-2" d="M488.6,719.93c.65-13.78,.74-27.58,2.79-41.28,6.84-45.65,26.09-85.42,57.2-119.25,34.12-37.09,76.25-60.8,125.93-69.08,74.05-12.34,139.08,7.77,194.46,58.38,26.16,23.91,44.57,53.19,57.1,86.25,.42,1.11,.17,2.79,2.37,3.31v-5.42c0-46.49,.06-92.98-.09-139.47-.01-4.27,.91-5.67,5.45-5.61,19.16,.25,38.32,.06,57.48,.04,72.98-.07,145.96-.14,218.94-.21q6.96,0,6.97,7.09c0,30.16-.09,60.32,.1,90.48,.03,4.51-1.13,5.89-5.79,5.88-57.82-.16-115.64-.03-173.46-.23-5.11-.02-6.46,1.36-6.38,6.39,.29,18.49,.11,36.99,.12,55.49q0,6.4,6.64,6.41c45.82,0,91.64,.08,137.47-.11,5.04-.02,6.47,1.3,6.43,6.4-.24,30.66-.21,61.32-.02,91.98,.03,4.39-1.15,5.58-5.57,5.57-46.32-.16-92.64-.03-138.96-.21-4.82-.02-6.17,1.23-6.1,6.07,.27,19.66,.26,39.33,0,58.99-.06,4.72,1.07,6.17,6.01,6.16,57.82-.18,115.64-.06,173.46-.22,4.71-.01,6.21,1.04,6.17,5.99-.23,30.66-.2,61.32-.03,91.98,.03,4.48-1.11,5.97-5.82,5.96-92.48-.13-184.95-.14-277.43,.01-4.84,0-5.69-1.65-5.67-5.99,.13-46.82,.08-93.65,.08-140.47v-6.56c-37.5,90.47-102.75,144.98-200.47,151.18-97.96,6.21-169.14-40.04-216.94-124.83-.91,5.77-1.51,11.75-2.81,17.57-11.42,51.21-42.01,86.61-90.3,105.99-72.3,29.01-156.35,2.17-194.27-70.19-11.15-21.28-16.79-44.02-17.11-68.1-.05-3.5,.91-4.51,4.42-4.49,31.49,.13,62.98,.13,94.48,0,3.44-.01,4.57,.98,4.67,4.41,.74,25.74,22.38,42.33,38.67,45.02,18.56,3.06,35.05-1.37,48.21-15.47,14.98-16.05,13.35-45.47-7.26-59.77-6.51-4.52-13.69-7.48-21.11-10.03-20.74-7.15-41.95-13.07-61.96-22.19-42.51-19.38-70.89-51.07-80.47-97.31-16.51-79.7,38.95-146.33,106.96-156.56,47.39-7.13,89.63,4.89,124.73,38.08,22.91,21.66,35.25,48.88,37.87,80.36,.97,11.63,.8,11.65-10.65,11.65-29.16,0-58.32-.04-87.48,.05-3.25,0-5-.27-5.24-4.37-.43-7.43-4.29-12.96-10.97-16.75-10.37-5.88-21.15-9-32.97-5.91-11.54,3.02-19.04,10.4-20.68,22.37-1.75,12.72,2.97,23.04,14.14,29.64,12.4,7.32,26.09,11.66,39.76,15.9,20.36,6.31,40.62,12.8,59.09,23.81,17.72,10.56,32.55,24.2,44.42,41.08,1.02,1.44,1.58,3.34,3.48,4.05,.05-.02,.09-.03,.14-.05-.07,.06-.14,.12-.21,.18Zm225.39-129.34c-67.03,0-120.91,53.98-121.49,120.64-.54,62.58,49.87,121.92,121.25,122.08,68.13,.14,121.34-55.23,121.5-121.33,.16-66.98-54.31-121.38-121.26-121.38Z"/></g><path class="cls-3" d="M507.64,746.79c.07-.06,.14-.12,.21-.18-.05,.02-.09,.03-.14,.05,0,0-.07,.13-.07,.13Z"/></g></svg>