<?xml version="1.0" encoding="UTF-8"?><svg id="Camada_2" xmlns="http://www.w3.org/2000/svg" viewBox="0 0 1715.43 1715.43"><defs><style>.cls-1{fill:#fff;}.cls-2{fill:#f39200;}</style></defs><g id="Camada_1-2"><rect class="cls-2" x="0" y="0" width="1715.43" height="1715.43" rx="857.72" ry="857.72"/><path class="cls-1" d="M307.07,737.1c17.93-38.74,79.59-42.14,112.22-22.47,7.25,4.37,13.79,9.73,20.55,14.93,2.93-3.59,1.82-6.89,1.83-9.89,.11-22.58-.03-45.15,.1-67.73,.07-13.88,5.5-20.59,16.22-20.64,10.59-.05,16.51,7.19,16.65,20.4,.02,2.15,0,4.3,0,6.45,0,38.34,.52,76.7-.27,115.02-.29,13.98,8.8,22.89,14.07,33.89,1.89,3.94,5.8,1.13,8.6,.37,57.8-15.54,113.25,16.5,126.99,74.32,8.18,34.43-.8,65.05-24.31,91.37-7.58,8.48-17.39,9.77-24.51,3.7-7.85-6.7-7.81-16.05,.11-25.4,33.72-39.79,18.88-96.78-29.14-112.13-17.58-5.62-34.5-3.86-50.99,3.95-14.64,6.94-20.95,5.08-29-8.81-13.06-22.54-25.74-45.31-39.13-67.65-17.06-28.46-51.23-38.96-80.04-25.53-7.08,3.3-8.51,6.42-4.28,13.71,52.69,90.75,105.01,181.72,157.6,272.54,4.64,8.02,10.34,15.44,15.71,23.01,16.62,23.44,25.15,49.54,25.28,78.21,.21,43.36,.24,86.72-.11,130.08-.06,7.24,1.32,9.58,9.14,9.55,71.67-.34,143.34-.32,215.01-.02,7.27,.03,8.7-2.18,8.65-8.95-.3-41.21-.03-82.42-.19-123.63-.13-32.82,8.6-62.67,28.48-89.08,10.55-14.01,19.41-28.98,25.89-45.41,2.02-5.11,1.26-7.45-3.14-10.41-12.46-8.38-24.69-17.11-36.78-26.02-9.56-7.05-11.64-17.21-5.64-24.96,6.34-8.19,15.11-8.58,25.51-1.23,14.31,10.11,28.67,20.13,42.98,30.23,3.68,2.6,6.69,4.1,11.47,.97,55.12-36.16,106.2-76.87,145.33-130.66,18.47-25.39,32.77-52.8,32.57-85.52-.24-38.3-25.95-72.66-62.35-83.25-37.59-10.93-77.56,3.65-98.65,36.02-.97,1.49-1.82,3.07-2.74,4.59-11.06,18.26-27.61,18.5-38.34,.2-11.76-20.06-28.44-34.14-50.63-40.54-32.82-9.48-62.56-2.57-87.05,21.39-25.26,24.71-31.73,55.25-22.68,88.84,10.75,39.95,36.12,70.87,64,100.03,2.97,3.11,6.41,5.85,8.93,9.28,5.25,7.16,5.43,14.7-.54,21.58-5.84,6.73-15.47,8.08-22.06,1.54-47.52-47.19-88.07-97.76-87.39-170.19,.8-84.92,.2-169.86,.17-254.79,0-6.42,.41-12.92-1.81-19.13-4.71-13.22-18.64-22.87-32.24-22.39-14.06,.5-27.7,11.28-31.12,25.35-1.34,5.49-1.74,11.33-1.75,17.01-.11,79.2-.07,158.39-.08,237.59,0,3.94,.1,7.91-.32,11.81-1.02,9.37-6.96,14.01-15.87,14.13-9.12,.12-14.55-5.25-16.25-14.05-.6-3.11-.19-6.43-.19-9.66,0-71.67,.05-143.34-.05-215.01-.02-18.21-12.5-32.32-30.12-34.7-15.11-2.05-31.26,9.13-35.59,24.94-.92,3.38-1.02,7.05-1.04,10.6-.1,18.28,.07,36.55-.1,54.83-.11,11.36-6.63,18.72-16.2,18.93-9.47,.2-16.42-7.07-16.53-18.43-.2-20.42-.77-40.89,.39-61.26,2.76-48.37,52.83-76.81,96.08-54.86,5.28,2.68,7.38,3.75,10.82-2.74,12.51-23.62,32.09-36.99,59.53-36.7,26.86,.28,45.94,13.46,58.63,36.6,1.76,3.21,1.85,7.53,7.86,4.12,47.27-26.87,102.72,11.53,98.63,61.76-.11,1.34,.14,2.7,.27,4.89,18.79-9.3,37.57-11.53,57.22-4.37,10.33,3.76,18.04,16.2,26.6,15.8,8.08-.38,15.79-11.94,25.68-15.69,17.26-6.54,30.16-5.9,57.18,3.43,1.48-8.02,0-16.15,2.2-24.23,11.35-41.73,55.58-62.4,94.01-43.19,5.73,2.86,7.94,3.46,11.46-3.26,12.05-23.03,31.42-35.57,57.8-35.86,26.94-.3,46.35,12.59,59.05,35.7,3.14,5.71,4.64,7.3,11.35,3.85,43.09-22.16,93.87,6.32,95.93,54.72,1.7,40.06,.69,80.25,.59,120.38-.03,11.7-6.62,18.49-16.46,18.39-9.58-.1-16.26-7.46-16.3-18.74-.13-37.63-.02-75.25-.07-112.88-.03-21.22-14.3-36.94-33.37-36.93-19.08,.01-33.43,15.79-33.44,36.97-.03,71.31-.01,142.62-.03,213.94,0,3.22,.45,6.6-.35,9.63-2.25,8.59-7.9,13.65-17.08,13.04-8.49-.57-13.94-5.2-14.87-14-.41-3.9-.31-7.87-.31-11.81-.02-79.91,.02-159.82-.03-239.74-.01-21.05-9.22-34.39-26.58-39.04-17.56-4.71-37.2,8.15-39.74,26.26-.69,4.94-.65,10-.66,15.01-.04,79.91-1.87,159.88,.57,239.72,1.85,60.58-20.45,109.74-58.77,153.95-35.46,40.9-76.93,74.86-121.68,104.86-8.53,5.72-9.17,10.22-5.17,18.69,6.75,14.28,14.58,27.79,24.05,40.38,19.65,26.1,28.3,55.67,28.25,88.09-.05,40.85,.17,81.71-.17,122.55-.07,7.78,1.1,10.84,10.11,10.78,70.95-.44,141.91-.4,212.86-.04,8.1,.04,9.96-1.96,9.87-9.94-.44-42.28-.14-84.57-.22-126.85-.06-30.64,8.94-58.15,26.81-83.12,25.62-35.78,45.22-75.23,67.45-113.07,34.89-59.39,68.76-119.38,103.62-178.79,5.5-9.37,3.08-12.71-5.77-16.29-29.14-11.81-61.16-1.23-77.9,26.78-13.19,22.06-25.79,44.46-38.68,66.69-8.54,14.72-14.29,16.5-29.59,9.29-30.19-14.23-64.71-6.05-84.65,20.05-19.28,25.24-18.09,61.32,2.87,86.16,1.15,1.37,2.46,2.61,3.56,4.02,6.15,7.87,5.77,16.86-.92,23.08-6.36,5.91-16.37,5.71-23.09-1.17-21.16-21.65-31.48-47.99-28.79-77.94,4.35-48.46,35.68-82.71,83.11-92.3,15.18-3.07,30.73-2.6,45.6,2.42,6.29,2.12,9.03,.46,12.52-5.02,7.95-12.45,11.86-25.22,10.9-40.25-1.12-17.49-.37-35.1-.22-52.66,.1-11.84,7.1-19.68,16.9-19.39,9.41,.28,15.56,7.56,15.92,19.2,.2,6.42,.04,12.84,.04,19.23,4.61,.93,6.19-2.54,8.49-4.39,30.05-24.19,70.77-28.25,104.59-10.29,20.94,11.12,28.16,33.18,16.41,53.61-53.74,93.45-107.8,186.72-161.75,280.04-.89,1.54-1.71,3.19-2.88,4.51-27.5,30.95-34.05,67.72-32.33,107.81,1.55,36.13,.4,72.37,.3,108.57-.06,22.22-10.02,32.07-32.06,32.08-77.76,.01-155.52,.01-233.29,0-22.4,0-32.72-10.1-32.81-32.8-.18-43.36-.45-86.73,.09-130.08,.35-27.87-6.72-52.79-24.18-74.78-10.59-13.34-18.42-28.48-26.61-46.02-9.15,23.82-23.92,41.75-36.19,61.25-10.77,17.12-14.01,36.38-13.93,56.42,.16,43.36-.45,86.73,.25,130.08,.35,21.7-9.5,36.67-36.38,36.3-76.67-1.04-153.37-.36-230.06-.37-21.9,0-31.94-9.98-31.99-32.15-.1-43.72-.18-87.44,.02-131.16,.13-27.35-7.48-51.67-23.93-73.9-21.69-29.33-37.69-62.26-56-93.71-38.07-65.38-75.71-131.02-113.53-196.54-2.77-4.81-5.61-9.58-8.41-14.37,0-7.17,0-14.33,0-21.5Zm733.42-65.6c0-54.65,.12-106.87-.07-159.1-.07-18.06-14.77-32.73-32.43-33.25-17.68-.53-34.02,14.45-34.23,32.89-.46,39.35-.12,78.7-.19,118.05,0,3.45,.17,5.51,4.63,6.5,23.4,5.17,43.76,16.28,62.29,34.91Zm-366.02,.13c18.44-18.72,38.77-29.93,62.15-34.95,6.28-1.35,4.71-5.05,4.71-8.55,.07-37.56,.12-75.12,.01-112.68-.06-20.81-15.19-36.72-34.18-36.3-18.84,.41-32.64,15.6-32.67,36.29-.08,43.64-.03,87.28-.03,130.92,0,7.7,0,15.39,0,25.27Zm199.76-8.91c19.16-14.8,38.67-24.48,61.13-27.36,3.16-.41,6.04-1.13,5.95-5.8-.33-17.55,.71-35.17-.58-52.63-1.37-18.58-17.69-32.14-34.85-31.03-17.95,1.15-31.43,15.4-31.6,34.12-.24,26.86-.06,53.72-.06,82.71Zm-33.48,.02c0-28.52,.15-55.25-.05-81.98-.15-19.53-13.56-33.93-31.93-34.88-17.56-.91-33.76,13.52-34.75,32.42-.88,16.79-.1,33.66-.35,50.49-.06,4.04,1.39,5.92,5.19,6.43,22.7,3,42.69,12.45,61.88,27.53Z"/></g></svg>