<?xml version="1.0" encoding="UTF-8"?><svg id="Camada_2" xmlns="http://www.w3.org/2000/svg" viewBox="0 0 1423.88 1423.88"><defs><style>.cls-1{fill:#fff;stroke:#8b8c8c;stroke-miterlimit:10;stroke-width:5px;}.cls-2{fill:#346cb4;}</style></defs><g id="Camada_1-2"><g><circle class="cls-1" cx="711.94" cy="711.94" r="709.44"/><path class="cls-2" d="M485.19,720.95c-2.88-121.7,83.01-212.1,184.17-230.5,38.46-6.99,76.6-4.68,113.66,8.3,36.74,12.87,68.56,33.49,94.79,62.45,26.28,29.02,43.58,62.78,53.57,100.64,0-1.96,0-3.91,0-5.87,0-54.48,.05-108.97-.09-163.45-.01-4.05,.88-5.33,5.13-5.3,33.99,.18,67.99-.45,101.96,.24,42.77,.86,80.48,16.24,113.33,43.25,35.35,29.05,57.88,66.24,66.06,111.29,15.1,83.09-24.26,162.09-96.66,201.3-25.39,13.75-52.5,21.39-81.44,21.96-3.87,.08-4.63,1.41-4.61,4.98,.16,20.83-.02,41.65,.17,62.48,.03,3.69-.84,4.73-4.64,4.71-31.49-.16-62.98-.18-94.47,.01-4.19,.03-4.83-1.42-4.83-5.12,.1-54.82,.07-109.63,.07-164.45,0-1.99,0-3.97,0-5.57-29.41,97.65-92.29,160.2-195.16,172.25-103.14,12.08-178.28-34.93-228.98-123.6-1.24,12.86-3.54,26.06-8.48,38.61-19.75,50.23-56.87,80.85-108.85,92.4-47.27,10.5-91.28,1.35-129.75-29.01-30.06-23.73-48.16-54.92-54.94-92.66-1.48-8.22-2.08-16.48-2.29-24.81-.07-2.95,.91-3.58,3.65-3.57,31.99,.08,63.98,.11,95.96-.03,3.65-.02,3.89,1.59,3.97,4.44,.66,23.89,20.47,40.23,36.36,44.4,18.85,4.94,41.52-2.61,53.01-18.21,13.23-17.98,8.65-43.58-10.18-56.86-6.03-4.26-12.8-6.95-19.71-9.37-21.44-7.5-43.46-13.48-64.12-23.09-41.41-19.25-69.1-50.38-79.02-95.44-16.92-76.87,34.67-145.29,103.57-157.29,50.85-8.86,95.74,4.4,132.1,41.82,22.23,22.88,32.98,51.06,34.17,82.94,.15,3.97-1.09,5.02-5.01,5-31.32-.16-62.64-.08-93.97-.11-1.95,0-4.43,.92-4.6-2.71-.71-15.04-11.86-20.14-23.74-23.95-7.52-2.41-15.34-2.57-23.03,.25-11.36,4.17-17.79,12.43-18.49,24.24-.7,11.86,4.45,21.42,15.01,27.33,14.87,8.31,31.15,13.09,47.33,18.09,24.88,7.69,48.86,17.2,69.25,34.07,11.34,9.38,20.92,20.31,29.78,33.57Zm346.2-8.82c.99-64.7-52.38-120.53-118.72-121.79-69.22-1.31-124.05,55.86-123.71,121.39,.34,66.97,54.28,121.42,121.08,121.52,66.86,.1,121.35-54.28,121.36-121.12Zm203.74-34.82c0,26.8,.05,53.61-.07,80.41-.02,3.44,.68,4.93,4.41,4.05,3.06-.72,6.24-.9,9.34-1.48,45.56-8.52,76.63-55.34,66.72-100.51-8.14-37.08-37.28-63.26-74.98-67.78-4.63-.56-5.55,.41-5.52,4.9,.21,26.8,.1,53.61,.1,80.41Z"/></g></g></svg>